G04 #@! TF.FileFunction,Legend,Top*
%FSLAX46Y46*%
G04 Gerber Fmt 4.6, Leading zero omitted, Abs format (unit mm)*
G04 Created by KiCad (PCBNEW 4.0.1-stable) date 2017年08月20日日曜日 22:05:08*
%MOMM*%
G01*
G04 APERTURE LIST*
%ADD10C,0.100000*%
%ADD11C,0.200000*%
%ADD12C,0.150000*%
%ADD13C,0.120000*%
G04 APERTURE END LIST*
D10*
D11*
X134238095Y-95052381D02*
X134238095Y-94385714D01*
X134238095Y-94480952D02*
X134285714Y-94433333D01*
X134380952Y-94385714D01*
X134523810Y-94385714D01*
X134619048Y-94433333D01*
X134666667Y-94528571D01*
X134666667Y-95052381D01*
X134666667Y-94528571D02*
X134714286Y-94433333D01*
X134809524Y-94385714D01*
X134952381Y-94385714D01*
X135047619Y-94433333D01*
X135095238Y-94528571D01*
X135095238Y-95052381D01*
X135571428Y-95052381D02*
X135571428Y-94385714D01*
X135571428Y-94052381D02*
X135523809Y-94100000D01*
X135571428Y-94147619D01*
X135619047Y-94100000D01*
X135571428Y-94052381D01*
X135571428Y-94147619D01*
X135952380Y-95052381D02*
X136476190Y-94385714D01*
X135952380Y-94385714D02*
X136476190Y-95052381D01*
X137571428Y-94004762D02*
X136714285Y-95290476D01*
X137904761Y-95052381D02*
X137904761Y-94052381D01*
X137904761Y-94433333D02*
X137999999Y-94385714D01*
X138190476Y-94385714D01*
X138285714Y-94433333D01*
X138333333Y-94480952D01*
X138380952Y-94576190D01*
X138380952Y-94861905D01*
X138333333Y-94957143D01*
X138285714Y-95004762D01*
X138190476Y-95052381D01*
X137999999Y-95052381D01*
X137904761Y-95004762D01*
X138952380Y-95052381D02*
X138857142Y-95004762D01*
X138809523Y-94957143D01*
X138761904Y-94861905D01*
X138761904Y-94576190D01*
X138809523Y-94480952D01*
X138857142Y-94433333D01*
X138952380Y-94385714D01*
X139095238Y-94385714D01*
X139190476Y-94433333D01*
X139238095Y-94480952D01*
X139285714Y-94576190D01*
X139285714Y-94861905D01*
X139238095Y-94957143D01*
X139190476Y-95004762D01*
X139095238Y-95052381D01*
X138952380Y-95052381D01*
X139857142Y-95052381D02*
X139761904Y-95004762D01*
X139714285Y-94957143D01*
X139666666Y-94861905D01*
X139666666Y-94576190D01*
X139714285Y-94480952D01*
X139761904Y-94433333D01*
X139857142Y-94385714D01*
X140000000Y-94385714D01*
X140095238Y-94433333D01*
X140142857Y-94480952D01*
X140190476Y-94576190D01*
X140190476Y-94861905D01*
X140142857Y-94957143D01*
X140095238Y-95004762D01*
X140000000Y-95052381D01*
X139857142Y-95052381D01*
X140571428Y-95004762D02*
X140666666Y-95052381D01*
X140857142Y-95052381D01*
X140952381Y-95004762D01*
X141000000Y-94909524D01*
X141000000Y-94861905D01*
X140952381Y-94766667D01*
X140857142Y-94719048D01*
X140714285Y-94719048D01*
X140619047Y-94671429D01*
X140571428Y-94576190D01*
X140571428Y-94528571D01*
X140619047Y-94433333D01*
X140714285Y-94385714D01*
X140857142Y-94385714D01*
X140952381Y-94433333D01*
X141285714Y-94385714D02*
X141666666Y-94385714D01*
X141428571Y-94052381D02*
X141428571Y-94909524D01*
X141476190Y-95004762D01*
X141571428Y-95052381D01*
X141666666Y-95052381D01*
X142666667Y-94385714D02*
X142904762Y-95052381D01*
X143142858Y-94385714D01*
X143714286Y-94052381D02*
X143809525Y-94052381D01*
X143904763Y-94100000D01*
X143952382Y-94147619D01*
X144000001Y-94242857D01*
X144047620Y-94433333D01*
X144047620Y-94671429D01*
X144000001Y-94861905D01*
X143952382Y-94957143D01*
X143904763Y-95004762D01*
X143809525Y-95052381D01*
X143714286Y-95052381D01*
X143619048Y-95004762D01*
X143571429Y-94957143D01*
X143523810Y-94861905D01*
X143476191Y-94671429D01*
X143476191Y-94433333D01*
X143523810Y-94242857D01*
X143571429Y-94147619D01*
X143619048Y-94100000D01*
X143714286Y-94052381D01*
X144476191Y-94957143D02*
X144523810Y-95004762D01*
X144476191Y-95052381D01*
X144428572Y-95004762D01*
X144476191Y-94957143D01*
X144476191Y-95052381D01*
X145000000Y-95052381D02*
X145190476Y-95052381D01*
X145285715Y-95004762D01*
X145333334Y-94957143D01*
X145428572Y-94814286D01*
X145476191Y-94623810D01*
X145476191Y-94242857D01*
X145428572Y-94147619D01*
X145380953Y-94100000D01*
X145285715Y-94052381D01*
X145095238Y-94052381D01*
X145000000Y-94100000D01*
X144952381Y-94147619D01*
X144904762Y-94242857D01*
X144904762Y-94480952D01*
X144952381Y-94576190D01*
X145000000Y-94623810D01*
X145095238Y-94671429D01*
X145285715Y-94671429D01*
X145380953Y-94623810D01*
X145428572Y-94576190D01*
X145476191Y-94480952D01*
X146380953Y-94052381D02*
X145904762Y-94052381D01*
X145857143Y-94528571D01*
X145904762Y-94480952D01*
X146000000Y-94433333D01*
X146238096Y-94433333D01*
X146333334Y-94480952D01*
X146380953Y-94528571D01*
X146428572Y-94623810D01*
X146428572Y-94861905D01*
X146380953Y-94957143D01*
X146333334Y-95004762D01*
X146238096Y-95052381D01*
X146000000Y-95052381D01*
X145904762Y-95004762D01*
X145857143Y-94957143D01*
X134238095Y-96652381D02*
X134238095Y-95652381D01*
X134238095Y-96033333D02*
X134333333Y-95985714D01*
X134523810Y-95985714D01*
X134619048Y-96033333D01*
X134666667Y-96080952D01*
X134714286Y-96176190D01*
X134714286Y-96461905D01*
X134666667Y-96557143D01*
X134619048Y-96604762D01*
X134523810Y-96652381D01*
X134333333Y-96652381D01*
X134238095Y-96604762D01*
X135047619Y-95985714D02*
X135285714Y-96652381D01*
X135523810Y-95985714D02*
X135285714Y-96652381D01*
X135190476Y-96890476D01*
X135142857Y-96938095D01*
X135047619Y-96985714D01*
X137285715Y-96176190D02*
X137238096Y-96128571D01*
X137142858Y-96080952D01*
X137047620Y-96080952D01*
X136952382Y-96128571D01*
X136904762Y-96176190D01*
X136857143Y-96271429D01*
X136857143Y-96366667D01*
X136904762Y-96461905D01*
X136952382Y-96509524D01*
X137047620Y-96557143D01*
X137142858Y-96557143D01*
X137238096Y-96509524D01*
X137285715Y-96461905D01*
X137285715Y-96080952D02*
X137285715Y-96461905D01*
X137333334Y-96509524D01*
X137380953Y-96509524D01*
X137476191Y-96461905D01*
X137523810Y-96366667D01*
X137523810Y-96128571D01*
X137428572Y-95985714D01*
X137285715Y-95890476D01*
X137095239Y-95842857D01*
X136904762Y-95890476D01*
X136761905Y-95985714D01*
X136666667Y-96128571D01*
X136619048Y-96319048D01*
X136666667Y-96509524D01*
X136761905Y-96652381D01*
X136904762Y-96747619D01*
X137095239Y-96795238D01*
X137285715Y-96747619D01*
X137428572Y-96652381D01*
X137952381Y-96652381D02*
X137952381Y-95985714D01*
X137952381Y-96080952D02*
X138000000Y-96033333D01*
X138095238Y-95985714D01*
X138238096Y-95985714D01*
X138333334Y-96033333D01*
X138380953Y-96128571D01*
X138380953Y-96652381D01*
X138380953Y-96128571D02*
X138428572Y-96033333D01*
X138523810Y-95985714D01*
X138666667Y-95985714D01*
X138761905Y-96033333D01*
X138809524Y-96128571D01*
X138809524Y-96652381D01*
X139666667Y-96604762D02*
X139571429Y-96652381D01*
X139380952Y-96652381D01*
X139285714Y-96604762D01*
X139238095Y-96509524D01*
X139238095Y-96128571D01*
X139285714Y-96033333D01*
X139380952Y-95985714D01*
X139571429Y-95985714D01*
X139666667Y-96033333D01*
X139714286Y-96128571D01*
X139714286Y-96223810D01*
X139238095Y-96319048D01*
X140095238Y-96604762D02*
X140190476Y-96652381D01*
X140380952Y-96652381D01*
X140476191Y-96604762D01*
X140523810Y-96509524D01*
X140523810Y-96461905D01*
X140476191Y-96366667D01*
X140380952Y-96319048D01*
X140238095Y-96319048D01*
X140142857Y-96271429D01*
X140095238Y-96176190D01*
X140095238Y-96128571D01*
X140142857Y-96033333D01*
X140238095Y-95985714D01*
X140380952Y-95985714D01*
X140476191Y-96033333D01*
X141095238Y-96652381D02*
X141000000Y-96604762D01*
X140952381Y-96557143D01*
X140904762Y-96461905D01*
X140904762Y-96176190D01*
X140952381Y-96080952D01*
X141000000Y-96033333D01*
X141095238Y-95985714D01*
X141238096Y-95985714D01*
X141333334Y-96033333D01*
X141380953Y-96080952D01*
X141428572Y-96176190D01*
X141428572Y-96461905D01*
X141380953Y-96557143D01*
X141333334Y-96604762D01*
X141238096Y-96652381D01*
X141095238Y-96652381D01*
X141714286Y-95985714D02*
X142095238Y-95985714D01*
X141857143Y-95652381D02*
X141857143Y-96509524D01*
X141904762Y-96604762D01*
X142000000Y-96652381D01*
X142095238Y-96652381D01*
X142571429Y-96652381D02*
X142476191Y-96604762D01*
X142428572Y-96557143D01*
X142380953Y-96461905D01*
X142380953Y-96176190D01*
X142428572Y-96080952D01*
X142476191Y-96033333D01*
X142571429Y-95985714D01*
X142714287Y-95985714D01*
X142809525Y-96033333D01*
X142857144Y-96080952D01*
X142904763Y-96176190D01*
X142904763Y-96461905D01*
X142857144Y-96557143D01*
X142809525Y-96604762D01*
X142714287Y-96652381D01*
X142571429Y-96652381D01*
X143333334Y-96652381D02*
X143333334Y-95652381D01*
X143428572Y-96271429D02*
X143714287Y-96652381D01*
X143714287Y-95985714D02*
X143333334Y-96366667D01*
X144047620Y-95985714D02*
X144285715Y-96652381D01*
X144523811Y-95985714D02*
X144285715Y-96652381D01*
X144190477Y-96890476D01*
X144142858Y-96938095D01*
X144047620Y-96985714D01*
X145047620Y-96652381D02*
X144952382Y-96604762D01*
X144904763Y-96557143D01*
X144857144Y-96461905D01*
X144857144Y-96176190D01*
X144904763Y-96080952D01*
X144952382Y-96033333D01*
X145047620Y-95985714D01*
X145190478Y-95985714D01*
X145285716Y-96033333D01*
X145333335Y-96080952D01*
X145380954Y-96176190D01*
X145380954Y-96461905D01*
X145333335Y-96557143D01*
X145285716Y-96604762D01*
X145190478Y-96652381D01*
X145047620Y-96652381D01*
X134238095Y-98252381D02*
X134238095Y-97252381D01*
X134666667Y-98252381D02*
X134666667Y-97728571D01*
X134619048Y-97633333D01*
X134523810Y-97585714D01*
X134380952Y-97585714D01*
X134285714Y-97633333D01*
X134238095Y-97680952D01*
X135000000Y-97585714D02*
X135380952Y-97585714D01*
X135142857Y-97252381D02*
X135142857Y-98109524D01*
X135190476Y-98204762D01*
X135285714Y-98252381D01*
X135380952Y-98252381D01*
X135571429Y-97585714D02*
X135952381Y-97585714D01*
X135714286Y-97252381D02*
X135714286Y-98109524D01*
X135761905Y-98204762D01*
X135857143Y-98252381D01*
X135952381Y-98252381D01*
X136285715Y-97585714D02*
X136285715Y-98585714D01*
X136285715Y-97633333D02*
X136380953Y-97585714D01*
X136571430Y-97585714D01*
X136666668Y-97633333D01*
X136714287Y-97680952D01*
X136761906Y-97776190D01*
X136761906Y-98061905D01*
X136714287Y-98157143D01*
X136666668Y-98204762D01*
X136571430Y-98252381D01*
X136380953Y-98252381D01*
X136285715Y-98204762D01*
X137190477Y-98157143D02*
X137238096Y-98204762D01*
X137190477Y-98252381D01*
X137142858Y-98204762D01*
X137190477Y-98157143D01*
X137190477Y-98252381D01*
X137190477Y-97633333D02*
X137238096Y-97680952D01*
X137190477Y-97728571D01*
X137142858Y-97680952D01*
X137190477Y-97633333D01*
X137190477Y-97728571D01*
X138380953Y-97204762D02*
X137523810Y-98490476D01*
X139428572Y-97204762D02*
X138571429Y-98490476D01*
X139761905Y-98252381D02*
X139761905Y-97585714D01*
X139761905Y-97680952D02*
X139809524Y-97633333D01*
X139904762Y-97585714D01*
X140047620Y-97585714D01*
X140142858Y-97633333D01*
X140190477Y-97728571D01*
X140190477Y-98252381D01*
X140190477Y-97728571D02*
X140238096Y-97633333D01*
X140333334Y-97585714D01*
X140476191Y-97585714D01*
X140571429Y-97633333D01*
X140619048Y-97728571D01*
X140619048Y-98252381D01*
X141476191Y-98204762D02*
X141380953Y-98252381D01*
X141190476Y-98252381D01*
X141095238Y-98204762D01*
X141047619Y-98109524D01*
X141047619Y-97728571D01*
X141095238Y-97633333D01*
X141190476Y-97585714D01*
X141380953Y-97585714D01*
X141476191Y-97633333D01*
X141523810Y-97728571D01*
X141523810Y-97823810D01*
X141047619Y-97919048D01*
X141904762Y-98204762D02*
X142000000Y-98252381D01*
X142190476Y-98252381D01*
X142285715Y-98204762D01*
X142333334Y-98109524D01*
X142333334Y-98061905D01*
X142285715Y-97966667D01*
X142190476Y-97919048D01*
X142047619Y-97919048D01*
X141952381Y-97871429D01*
X141904762Y-97776190D01*
X141904762Y-97728571D01*
X141952381Y-97633333D01*
X142047619Y-97585714D01*
X142190476Y-97585714D01*
X142285715Y-97633333D01*
X142904762Y-98252381D02*
X142809524Y-98204762D01*
X142761905Y-98157143D01*
X142714286Y-98061905D01*
X142714286Y-97776190D01*
X142761905Y-97680952D01*
X142809524Y-97633333D01*
X142904762Y-97585714D01*
X143047620Y-97585714D01*
X143142858Y-97633333D01*
X143190477Y-97680952D01*
X143238096Y-97776190D01*
X143238096Y-98061905D01*
X143190477Y-98157143D01*
X143142858Y-98204762D01*
X143047620Y-98252381D01*
X142904762Y-98252381D01*
X139571430Y-99757143D02*
X139619049Y-99804762D01*
X139571430Y-99852381D01*
X139523811Y-99804762D01*
X139571430Y-99757143D01*
X139571430Y-99852381D01*
X139904763Y-99185714D02*
X140285715Y-99185714D01*
X140047620Y-98852381D02*
X140047620Y-99709524D01*
X140095239Y-99804762D01*
X140190477Y-99852381D01*
X140285715Y-99852381D01*
X140761906Y-99852381D02*
X140666668Y-99804762D01*
X140619049Y-99757143D01*
X140571430Y-99661905D01*
X140571430Y-99376190D01*
X140619049Y-99280952D01*
X140666668Y-99233333D01*
X140761906Y-99185714D01*
X140904764Y-99185714D01*
X141000002Y-99233333D01*
X141047621Y-99280952D01*
X141095240Y-99376190D01*
X141095240Y-99661905D01*
X141047621Y-99757143D01*
X141000002Y-99804762D01*
X140904764Y-99852381D01*
X140761906Y-99852381D01*
X141523811Y-99852381D02*
X141523811Y-98852381D01*
X141619049Y-99471429D02*
X141904764Y-99852381D01*
X141904764Y-99185714D02*
X141523811Y-99566667D01*
X142238097Y-99185714D02*
X142476192Y-99852381D01*
X142714288Y-99185714D02*
X142476192Y-99852381D01*
X142380954Y-100090476D01*
X142333335Y-100138095D01*
X142238097Y-100185714D01*
X143238097Y-99852381D02*
X143142859Y-99804762D01*
X143095240Y-99757143D01*
X143047621Y-99661905D01*
X143047621Y-99376190D01*
X143095240Y-99280952D01*
X143142859Y-99233333D01*
X143238097Y-99185714D01*
X143380955Y-99185714D01*
X143476193Y-99233333D01*
X143523812Y-99280952D01*
X143571431Y-99376190D01*
X143571431Y-99661905D01*
X143523812Y-99757143D01*
X143476193Y-99804762D01*
X143380955Y-99852381D01*
X143238097Y-99852381D01*
X144714288Y-98804762D02*
X143857145Y-100090476D01*
D12*
X129300000Y-134500000D02*
X128500000Y-130000000D01*
X128500000Y-130000000D02*
X129300000Y-125500000D01*
X132300000Y-134500000D02*
X129300000Y-134500000D01*
X129300000Y-125500000D02*
X132300000Y-125500000D01*
X153000000Y-135700000D02*
X156000000Y-135700000D01*
X156000000Y-135700000D02*
X156000000Y-124300000D01*
X153000000Y-124300000D02*
X156000000Y-124300000D01*
X132300000Y-140000000D02*
X132300000Y-120000000D01*
X132300000Y-120000000D02*
X153000000Y-120000000D01*
X153000000Y-120000000D02*
X153000000Y-140000000D01*
X153000000Y-140000000D02*
X132300000Y-140000000D01*
D13*
X141100722Y-111850277D02*
G75*
G03X136489420Y-111850000I-2305722J-1179723D01*
G01*
X141100722Y-114209723D02*
G75*
G02X136489420Y-114210000I-2305722J1179723D01*
G01*
X141100722Y-114209723D02*
G75*
G03X141100580Y-111850000I-2305722J1179723D01*
G01*
X138795000Y-110480000D02*
X138795000Y-115580000D01*
X138835000Y-110480000D02*
X138835000Y-112050000D01*
X138835000Y-114010000D02*
X138835000Y-115580000D01*
X138875000Y-110481000D02*
X138875000Y-112050000D01*
X138875000Y-114010000D02*
X138875000Y-115579000D01*
X138915000Y-110482000D02*
X138915000Y-112050000D01*
X138915000Y-114010000D02*
X138915000Y-115578000D01*
X138955000Y-110484000D02*
X138955000Y-112050000D01*
X138955000Y-114010000D02*
X138955000Y-115576000D01*
X138995000Y-110487000D02*
X138995000Y-112050000D01*
X138995000Y-114010000D02*
X138995000Y-115573000D01*
X139035000Y-110491000D02*
X139035000Y-112050000D01*
X139035000Y-114010000D02*
X139035000Y-115569000D01*
X139075000Y-110495000D02*
X139075000Y-112050000D01*
X139075000Y-114010000D02*
X139075000Y-115565000D01*
X139115000Y-110499000D02*
X139115000Y-112050000D01*
X139115000Y-114010000D02*
X139115000Y-115561000D01*
X139155000Y-110505000D02*
X139155000Y-112050000D01*
X139155000Y-114010000D02*
X139155000Y-115555000D01*
X139195000Y-110511000D02*
X139195000Y-112050000D01*
X139195000Y-114010000D02*
X139195000Y-115549000D01*
X139235000Y-110517000D02*
X139235000Y-112050000D01*
X139235000Y-114010000D02*
X139235000Y-115543000D01*
X139275000Y-110524000D02*
X139275000Y-112050000D01*
X139275000Y-114010000D02*
X139275000Y-115536000D01*
X139315000Y-110532000D02*
X139315000Y-112050000D01*
X139315000Y-114010000D02*
X139315000Y-115528000D01*
X139355000Y-110541000D02*
X139355000Y-112050000D01*
X139355000Y-114010000D02*
X139355000Y-115519000D01*
X139395000Y-110550000D02*
X139395000Y-112050000D01*
X139395000Y-114010000D02*
X139395000Y-115510000D01*
X139435000Y-110560000D02*
X139435000Y-112050000D01*
X139435000Y-114010000D02*
X139435000Y-115500000D01*
X139475000Y-110570000D02*
X139475000Y-112050000D01*
X139475000Y-114010000D02*
X139475000Y-115490000D01*
X139516000Y-110582000D02*
X139516000Y-112050000D01*
X139516000Y-114010000D02*
X139516000Y-115478000D01*
X139556000Y-110594000D02*
X139556000Y-112050000D01*
X139556000Y-114010000D02*
X139556000Y-115466000D01*
X139596000Y-110606000D02*
X139596000Y-112050000D01*
X139596000Y-114010000D02*
X139596000Y-115454000D01*
X139636000Y-110620000D02*
X139636000Y-112050000D01*
X139636000Y-114010000D02*
X139636000Y-115440000D01*
X139676000Y-110634000D02*
X139676000Y-112050000D01*
X139676000Y-114010000D02*
X139676000Y-115426000D01*
X139716000Y-110648000D02*
X139716000Y-112050000D01*
X139716000Y-114010000D02*
X139716000Y-115412000D01*
X139756000Y-110664000D02*
X139756000Y-112050000D01*
X139756000Y-114010000D02*
X139756000Y-115396000D01*
X139796000Y-110680000D02*
X139796000Y-112050000D01*
X139796000Y-114010000D02*
X139796000Y-115380000D01*
X139836000Y-110697000D02*
X139836000Y-112050000D01*
X139836000Y-114010000D02*
X139836000Y-115363000D01*
X139876000Y-110715000D02*
X139876000Y-112050000D01*
X139876000Y-114010000D02*
X139876000Y-115345000D01*
X139916000Y-110734000D02*
X139916000Y-112050000D01*
X139916000Y-114010000D02*
X139916000Y-115326000D01*
X139956000Y-110754000D02*
X139956000Y-112050000D01*
X139956000Y-114010000D02*
X139956000Y-115306000D01*
X139996000Y-110774000D02*
X139996000Y-112050000D01*
X139996000Y-114010000D02*
X139996000Y-115286000D01*
X140036000Y-110796000D02*
X140036000Y-112050000D01*
X140036000Y-114010000D02*
X140036000Y-115264000D01*
X140076000Y-110818000D02*
X140076000Y-112050000D01*
X140076000Y-114010000D02*
X140076000Y-115242000D01*
X140116000Y-110841000D02*
X140116000Y-112050000D01*
X140116000Y-114010000D02*
X140116000Y-115219000D01*
X140156000Y-110865000D02*
X140156000Y-112050000D01*
X140156000Y-114010000D02*
X140156000Y-115195000D01*
X140196000Y-110890000D02*
X140196000Y-112050000D01*
X140196000Y-114010000D02*
X140196000Y-115170000D01*
X140236000Y-110917000D02*
X140236000Y-112050000D01*
X140236000Y-114010000D02*
X140236000Y-115143000D01*
X140276000Y-110944000D02*
X140276000Y-112050000D01*
X140276000Y-114010000D02*
X140276000Y-115116000D01*
X140316000Y-110972000D02*
X140316000Y-112050000D01*
X140316000Y-114010000D02*
X140316000Y-115088000D01*
X140356000Y-111002000D02*
X140356000Y-112050000D01*
X140356000Y-114010000D02*
X140356000Y-115058000D01*
X140396000Y-111033000D02*
X140396000Y-112050000D01*
X140396000Y-114010000D02*
X140396000Y-115027000D01*
X140436000Y-111065000D02*
X140436000Y-112050000D01*
X140436000Y-114010000D02*
X140436000Y-114995000D01*
X140476000Y-111098000D02*
X140476000Y-112050000D01*
X140476000Y-114010000D02*
X140476000Y-114962000D01*
X140516000Y-111133000D02*
X140516000Y-112050000D01*
X140516000Y-114010000D02*
X140516000Y-114927000D01*
X140556000Y-111169000D02*
X140556000Y-112050000D01*
X140556000Y-114010000D02*
X140556000Y-114891000D01*
X140596000Y-111207000D02*
X140596000Y-112050000D01*
X140596000Y-114010000D02*
X140596000Y-114853000D01*
X140636000Y-111247000D02*
X140636000Y-112050000D01*
X140636000Y-114010000D02*
X140636000Y-114813000D01*
X140676000Y-111288000D02*
X140676000Y-112050000D01*
X140676000Y-114010000D02*
X140676000Y-114772000D01*
X140716000Y-111331000D02*
X140716000Y-112050000D01*
X140716000Y-114010000D02*
X140716000Y-114729000D01*
X140756000Y-111376000D02*
X140756000Y-112050000D01*
X140756000Y-114010000D02*
X140756000Y-114684000D01*
X140796000Y-111424000D02*
X140796000Y-114636000D01*
X140836000Y-111474000D02*
X140836000Y-114586000D01*
X140876000Y-111526000D02*
X140876000Y-114534000D01*
X140916000Y-111582000D02*
X140916000Y-114478000D01*
X140956000Y-111640000D02*
X140956000Y-114420000D01*
X140996000Y-111703000D02*
X140996000Y-114357000D01*
X141036000Y-111769000D02*
X141036000Y-114291000D01*
X141076000Y-111841000D02*
X141076000Y-114219000D01*
X141116000Y-111918000D02*
X141116000Y-114142000D01*
X141156000Y-112002000D02*
X141156000Y-114058000D01*
X141196000Y-112096000D02*
X141196000Y-113964000D01*
X141236000Y-112201000D02*
X141236000Y-113859000D01*
X141276000Y-112323000D02*
X141276000Y-113737000D01*
X141316000Y-112471000D02*
X141316000Y-113589000D01*
X141356000Y-112676000D02*
X141356000Y-113384000D01*
X135595000Y-113030000D02*
X136795000Y-113030000D01*
X136195000Y-112380000D02*
X136195000Y-113680000D01*
D12*
X121570000Y-109680000D02*
X121570000Y-116380000D01*
X121570000Y-116380000D02*
X134970000Y-116380000D01*
X134970000Y-116380000D02*
X134970000Y-109680000D01*
X121570000Y-103680000D02*
X121570000Y-99980000D01*
X121570000Y-99980000D02*
X134970000Y-99980000D01*
X134970000Y-99980000D02*
X134970000Y-103680000D01*
X129970000Y-106680000D02*
G75*
G03X129970000Y-106680000I-1700000J0D01*
G01*
X126700000Y-162500000D02*
X127500000Y-167000000D01*
X127500000Y-167000000D02*
X126700000Y-171500000D01*
X123700000Y-162500000D02*
X126700000Y-162500000D01*
X126700000Y-171500000D02*
X123700000Y-171500000D01*
X103000000Y-161300000D02*
X100000000Y-161300000D01*
X100000000Y-161300000D02*
X100000000Y-172700000D01*
X103000000Y-172700000D02*
X100000000Y-172700000D01*
X123700000Y-157000000D02*
X123700000Y-177000000D01*
X123700000Y-177000000D02*
X103000000Y-177000000D01*
X103000000Y-177000000D02*
X103000000Y-157000000D01*
X103000000Y-157000000D02*
X123700000Y-157000000D01*
X129300000Y-171500000D02*
X128500000Y-167000000D01*
X128500000Y-167000000D02*
X129300000Y-162500000D01*
X132300000Y-171500000D02*
X129300000Y-171500000D01*
X129300000Y-162500000D02*
X132300000Y-162500000D01*
X153000000Y-172700000D02*
X156000000Y-172700000D01*
X156000000Y-172700000D02*
X156000000Y-161300000D01*
X153000000Y-161300000D02*
X156000000Y-161300000D01*
X132300000Y-177000000D02*
X132300000Y-157000000D01*
X132300000Y-157000000D02*
X153000000Y-157000000D01*
X153000000Y-157000000D02*
X153000000Y-177000000D01*
X153000000Y-177000000D02*
X132300000Y-177000000D01*
D13*
X137664278Y-144689723D02*
G75*
G03X142275580Y-144690000I2305722J1179723D01*
G01*
X137664278Y-142330277D02*
G75*
G02X142275580Y-142330000I2305722J-1179723D01*
G01*
X137664278Y-142330277D02*
G75*
G03X137664420Y-144690000I2305722J-1179723D01*
G01*
X139970000Y-146060000D02*
X139970000Y-140960000D01*
X139930000Y-146060000D02*
X139930000Y-144490000D01*
X139930000Y-142530000D02*
X139930000Y-140960000D01*
X139890000Y-146059000D02*
X139890000Y-144490000D01*
X139890000Y-142530000D02*
X139890000Y-140961000D01*
X139850000Y-146058000D02*
X139850000Y-144490000D01*
X139850000Y-142530000D02*
X139850000Y-140962000D01*
X139810000Y-146056000D02*
X139810000Y-144490000D01*
X139810000Y-142530000D02*
X139810000Y-140964000D01*
X139770000Y-146053000D02*
X139770000Y-144490000D01*
X139770000Y-142530000D02*
X139770000Y-140967000D01*
X139730000Y-146049000D02*
X139730000Y-144490000D01*
X139730000Y-142530000D02*
X139730000Y-140971000D01*
X139690000Y-146045000D02*
X139690000Y-144490000D01*
X139690000Y-142530000D02*
X139690000Y-140975000D01*
X139650000Y-146041000D02*
X139650000Y-144490000D01*
X139650000Y-142530000D02*
X139650000Y-140979000D01*
X139610000Y-146035000D02*
X139610000Y-144490000D01*
X139610000Y-142530000D02*
X139610000Y-140985000D01*
X139570000Y-146029000D02*
X139570000Y-144490000D01*
X139570000Y-142530000D02*
X139570000Y-140991000D01*
X139530000Y-146023000D02*
X139530000Y-144490000D01*
X139530000Y-142530000D02*
X139530000Y-140997000D01*
X139490000Y-146016000D02*
X139490000Y-144490000D01*
X139490000Y-142530000D02*
X139490000Y-141004000D01*
X139450000Y-146008000D02*
X139450000Y-144490000D01*
X139450000Y-142530000D02*
X139450000Y-141012000D01*
X139410000Y-145999000D02*
X139410000Y-144490000D01*
X139410000Y-142530000D02*
X139410000Y-141021000D01*
X139370000Y-145990000D02*
X139370000Y-144490000D01*
X139370000Y-142530000D02*
X139370000Y-141030000D01*
X139330000Y-145980000D02*
X139330000Y-144490000D01*
X139330000Y-142530000D02*
X139330000Y-141040000D01*
X139290000Y-145970000D02*
X139290000Y-144490000D01*
X139290000Y-142530000D02*
X139290000Y-141050000D01*
X139249000Y-145958000D02*
X139249000Y-144490000D01*
X139249000Y-142530000D02*
X139249000Y-141062000D01*
X139209000Y-145946000D02*
X139209000Y-144490000D01*
X139209000Y-142530000D02*
X139209000Y-141074000D01*
X139169000Y-145934000D02*
X139169000Y-144490000D01*
X139169000Y-142530000D02*
X139169000Y-141086000D01*
X139129000Y-145920000D02*
X139129000Y-144490000D01*
X139129000Y-142530000D02*
X139129000Y-141100000D01*
X139089000Y-145906000D02*
X139089000Y-144490000D01*
X139089000Y-142530000D02*
X139089000Y-141114000D01*
X139049000Y-145892000D02*
X139049000Y-144490000D01*
X139049000Y-142530000D02*
X139049000Y-141128000D01*
X139009000Y-145876000D02*
X139009000Y-144490000D01*
X139009000Y-142530000D02*
X139009000Y-141144000D01*
X138969000Y-145860000D02*
X138969000Y-144490000D01*
X138969000Y-142530000D02*
X138969000Y-141160000D01*
X138929000Y-145843000D02*
X138929000Y-144490000D01*
X138929000Y-142530000D02*
X138929000Y-141177000D01*
X138889000Y-145825000D02*
X138889000Y-144490000D01*
X138889000Y-142530000D02*
X138889000Y-141195000D01*
X138849000Y-145806000D02*
X138849000Y-144490000D01*
X138849000Y-142530000D02*
X138849000Y-141214000D01*
X138809000Y-145786000D02*
X138809000Y-144490000D01*
X138809000Y-142530000D02*
X138809000Y-141234000D01*
X138769000Y-145766000D02*
X138769000Y-144490000D01*
X138769000Y-142530000D02*
X138769000Y-141254000D01*
X138729000Y-145744000D02*
X138729000Y-144490000D01*
X138729000Y-142530000D02*
X138729000Y-141276000D01*
X138689000Y-145722000D02*
X138689000Y-144490000D01*
X138689000Y-142530000D02*
X138689000Y-141298000D01*
X138649000Y-145699000D02*
X138649000Y-144490000D01*
X138649000Y-142530000D02*
X138649000Y-141321000D01*
X138609000Y-145675000D02*
X138609000Y-144490000D01*
X138609000Y-142530000D02*
X138609000Y-141345000D01*
X138569000Y-145650000D02*
X138569000Y-144490000D01*
X138569000Y-142530000D02*
X138569000Y-141370000D01*
X138529000Y-145623000D02*
X138529000Y-144490000D01*
X138529000Y-142530000D02*
X138529000Y-141397000D01*
X138489000Y-145596000D02*
X138489000Y-144490000D01*
X138489000Y-142530000D02*
X138489000Y-141424000D01*
X138449000Y-145568000D02*
X138449000Y-144490000D01*
X138449000Y-142530000D02*
X138449000Y-141452000D01*
X138409000Y-145538000D02*
X138409000Y-144490000D01*
X138409000Y-142530000D02*
X138409000Y-141482000D01*
X138369000Y-145507000D02*
X138369000Y-144490000D01*
X138369000Y-142530000D02*
X138369000Y-141513000D01*
X138329000Y-145475000D02*
X138329000Y-144490000D01*
X138329000Y-142530000D02*
X138329000Y-141545000D01*
X138289000Y-145442000D02*
X138289000Y-144490000D01*
X138289000Y-142530000D02*
X138289000Y-141578000D01*
X138249000Y-145407000D02*
X138249000Y-144490000D01*
X138249000Y-142530000D02*
X138249000Y-141613000D01*
X138209000Y-145371000D02*
X138209000Y-144490000D01*
X138209000Y-142530000D02*
X138209000Y-141649000D01*
X138169000Y-145333000D02*
X138169000Y-144490000D01*
X138169000Y-142530000D02*
X138169000Y-141687000D01*
X138129000Y-145293000D02*
X138129000Y-144490000D01*
X138129000Y-142530000D02*
X138129000Y-141727000D01*
X138089000Y-145252000D02*
X138089000Y-144490000D01*
X138089000Y-142530000D02*
X138089000Y-141768000D01*
X138049000Y-145209000D02*
X138049000Y-144490000D01*
X138049000Y-142530000D02*
X138049000Y-141811000D01*
X138009000Y-145164000D02*
X138009000Y-144490000D01*
X138009000Y-142530000D02*
X138009000Y-141856000D01*
X137969000Y-145116000D02*
X137969000Y-141904000D01*
X137929000Y-145066000D02*
X137929000Y-141954000D01*
X137889000Y-145014000D02*
X137889000Y-142006000D01*
X137849000Y-144958000D02*
X137849000Y-142062000D01*
X137809000Y-144900000D02*
X137809000Y-142120000D01*
X137769000Y-144837000D02*
X137769000Y-142183000D01*
X137729000Y-144771000D02*
X137729000Y-142249000D01*
X137689000Y-144699000D02*
X137689000Y-142321000D01*
X137649000Y-144622000D02*
X137649000Y-142398000D01*
X137609000Y-144538000D02*
X137609000Y-142482000D01*
X137569000Y-144444000D02*
X137569000Y-142576000D01*
X137529000Y-144339000D02*
X137529000Y-142681000D01*
X137489000Y-144217000D02*
X137489000Y-142803000D01*
X137449000Y-144069000D02*
X137449000Y-142951000D01*
X137409000Y-143864000D02*
X137409000Y-143156000D01*
X143170000Y-143510000D02*
X141970000Y-143510000D01*
X142570000Y-144160000D02*
X142570000Y-142860000D01*
X149950277Y-179574278D02*
G75*
G03X149950000Y-184185580I1179723J-2305722D01*
G01*
X152309723Y-179574278D02*
G75*
G02X152310000Y-184185580I-1179723J-2305722D01*
G01*
X152309723Y-179574278D02*
G75*
G03X149950000Y-179574420I-1179723J-2305722D01*
G01*
X148580000Y-181880000D02*
X153680000Y-181880000D01*
X148580000Y-181840000D02*
X150150000Y-181840000D01*
X152110000Y-181840000D02*
X153680000Y-181840000D01*
X148581000Y-181800000D02*
X150150000Y-181800000D01*
X152110000Y-181800000D02*
X153679000Y-181800000D01*
X148582000Y-181760000D02*
X150150000Y-181760000D01*
X152110000Y-181760000D02*
X153678000Y-181760000D01*
X148584000Y-181720000D02*
X150150000Y-181720000D01*
X152110000Y-181720000D02*
X153676000Y-181720000D01*
X148587000Y-181680000D02*
X150150000Y-181680000D01*
X152110000Y-181680000D02*
X153673000Y-181680000D01*
X148591000Y-181640000D02*
X150150000Y-181640000D01*
X152110000Y-181640000D02*
X153669000Y-181640000D01*
X148595000Y-181600000D02*
X150150000Y-181600000D01*
X152110000Y-181600000D02*
X153665000Y-181600000D01*
X148599000Y-181560000D02*
X150150000Y-181560000D01*
X152110000Y-181560000D02*
X153661000Y-181560000D01*
X148605000Y-181520000D02*
X150150000Y-181520000D01*
X152110000Y-181520000D02*
X153655000Y-181520000D01*
X148611000Y-181480000D02*
X150150000Y-181480000D01*
X152110000Y-181480000D02*
X153649000Y-181480000D01*
X148617000Y-181440000D02*
X150150000Y-181440000D01*
X152110000Y-181440000D02*
X153643000Y-181440000D01*
X148624000Y-181400000D02*
X150150000Y-181400000D01*
X152110000Y-181400000D02*
X153636000Y-181400000D01*
X148632000Y-181360000D02*
X150150000Y-181360000D01*
X152110000Y-181360000D02*
X153628000Y-181360000D01*
X148641000Y-181320000D02*
X150150000Y-181320000D01*
X152110000Y-181320000D02*
X153619000Y-181320000D01*
X148650000Y-181280000D02*
X150150000Y-181280000D01*
X152110000Y-181280000D02*
X153610000Y-181280000D01*
X148660000Y-181240000D02*
X150150000Y-181240000D01*
X152110000Y-181240000D02*
X153600000Y-181240000D01*
X148670000Y-181200000D02*
X150150000Y-181200000D01*
X152110000Y-181200000D02*
X153590000Y-181200000D01*
X148682000Y-181159000D02*
X150150000Y-181159000D01*
X152110000Y-181159000D02*
X153578000Y-181159000D01*
X148694000Y-181119000D02*
X150150000Y-181119000D01*
X152110000Y-181119000D02*
X153566000Y-181119000D01*
X148706000Y-181079000D02*
X150150000Y-181079000D01*
X152110000Y-181079000D02*
X153554000Y-181079000D01*
X148720000Y-181039000D02*
X150150000Y-181039000D01*
X152110000Y-181039000D02*
X153540000Y-181039000D01*
X148734000Y-180999000D02*
X150150000Y-180999000D01*
X152110000Y-180999000D02*
X153526000Y-180999000D01*
X148748000Y-180959000D02*
X150150000Y-180959000D01*
X152110000Y-180959000D02*
X153512000Y-180959000D01*
X148764000Y-180919000D02*
X150150000Y-180919000D01*
X152110000Y-180919000D02*
X153496000Y-180919000D01*
X148780000Y-180879000D02*
X150150000Y-180879000D01*
X152110000Y-180879000D02*
X153480000Y-180879000D01*
X148797000Y-180839000D02*
X150150000Y-180839000D01*
X152110000Y-180839000D02*
X153463000Y-180839000D01*
X148815000Y-180799000D02*
X150150000Y-180799000D01*
X152110000Y-180799000D02*
X153445000Y-180799000D01*
X148834000Y-180759000D02*
X150150000Y-180759000D01*
X152110000Y-180759000D02*
X153426000Y-180759000D01*
X148854000Y-180719000D02*
X150150000Y-180719000D01*
X152110000Y-180719000D02*
X153406000Y-180719000D01*
X148874000Y-180679000D02*
X150150000Y-180679000D01*
X152110000Y-180679000D02*
X153386000Y-180679000D01*
X148896000Y-180639000D02*
X150150000Y-180639000D01*
X152110000Y-180639000D02*
X153364000Y-180639000D01*
X148918000Y-180599000D02*
X150150000Y-180599000D01*
X152110000Y-180599000D02*
X153342000Y-180599000D01*
X148941000Y-180559000D02*
X150150000Y-180559000D01*
X152110000Y-180559000D02*
X153319000Y-180559000D01*
X148965000Y-180519000D02*
X150150000Y-180519000D01*
X152110000Y-180519000D02*
X153295000Y-180519000D01*
X148990000Y-180479000D02*
X150150000Y-180479000D01*
X152110000Y-180479000D02*
X153270000Y-180479000D01*
X149017000Y-180439000D02*
X150150000Y-180439000D01*
X152110000Y-180439000D02*
X153243000Y-180439000D01*
X149044000Y-180399000D02*
X150150000Y-180399000D01*
X152110000Y-180399000D02*
X153216000Y-180399000D01*
X149072000Y-180359000D02*
X150150000Y-180359000D01*
X152110000Y-180359000D02*
X153188000Y-180359000D01*
X149102000Y-180319000D02*
X150150000Y-180319000D01*
X152110000Y-180319000D02*
X153158000Y-180319000D01*
X149133000Y-180279000D02*
X150150000Y-180279000D01*
X152110000Y-180279000D02*
X153127000Y-180279000D01*
X149165000Y-180239000D02*
X150150000Y-180239000D01*
X152110000Y-180239000D02*
X153095000Y-180239000D01*
X149198000Y-180199000D02*
X150150000Y-180199000D01*
X152110000Y-180199000D02*
X153062000Y-180199000D01*
X149233000Y-180159000D02*
X150150000Y-180159000D01*
X152110000Y-180159000D02*
X153027000Y-180159000D01*
X149269000Y-180119000D02*
X150150000Y-180119000D01*
X152110000Y-180119000D02*
X152991000Y-180119000D01*
X149307000Y-180079000D02*
X150150000Y-180079000D01*
X152110000Y-180079000D02*
X152953000Y-180079000D01*
X149347000Y-180039000D02*
X150150000Y-180039000D01*
X152110000Y-180039000D02*
X152913000Y-180039000D01*
X149388000Y-179999000D02*
X150150000Y-179999000D01*
X152110000Y-179999000D02*
X152872000Y-179999000D01*
X149431000Y-179959000D02*
X150150000Y-179959000D01*
X152110000Y-179959000D02*
X152829000Y-179959000D01*
X149476000Y-179919000D02*
X150150000Y-179919000D01*
X152110000Y-179919000D02*
X152784000Y-179919000D01*
X149524000Y-179879000D02*
X152736000Y-179879000D01*
X149574000Y-179839000D02*
X152686000Y-179839000D01*
X149626000Y-179799000D02*
X152634000Y-179799000D01*
X149682000Y-179759000D02*
X152578000Y-179759000D01*
X149740000Y-179719000D02*
X152520000Y-179719000D01*
X149803000Y-179679000D02*
X152457000Y-179679000D01*
X149869000Y-179639000D02*
X152391000Y-179639000D01*
X149941000Y-179599000D02*
X152319000Y-179599000D01*
X150018000Y-179559000D02*
X152242000Y-179559000D01*
X150102000Y-179519000D02*
X152158000Y-179519000D01*
X150196000Y-179479000D02*
X152064000Y-179479000D01*
X150301000Y-179439000D02*
X151959000Y-179439000D01*
X150423000Y-179399000D02*
X151837000Y-179399000D01*
X150571000Y-179359000D02*
X151689000Y-179359000D01*
X150776000Y-179319000D02*
X151484000Y-179319000D01*
X151130000Y-185080000D02*
X151130000Y-183880000D01*
X150480000Y-184480000D02*
X151780000Y-184480000D01*
X136105000Y-151630000D02*
X136105000Y-150630000D01*
X134405000Y-150630000D02*
X134405000Y-151630000D01*
X104910000Y-125310000D02*
X105910000Y-125310000D01*
X105910000Y-123610000D02*
X104910000Y-123610000D01*
X110990000Y-123610000D02*
X109990000Y-123610000D01*
X109990000Y-125310000D02*
X110990000Y-125310000D01*
X111669723Y-155705722D02*
G75*
G03X111670000Y-151094420I-1179723J2305722D01*
G01*
X109310277Y-155705722D02*
G75*
G02X109310000Y-151094420I1179723J2305722D01*
G01*
X109310277Y-155705722D02*
G75*
G03X111670000Y-155705580I1179723J2305722D01*
G01*
X113040000Y-153400000D02*
X107940000Y-153400000D01*
X113040000Y-153440000D02*
X111470000Y-153440000D01*
X109510000Y-153440000D02*
X107940000Y-153440000D01*
X113039000Y-153480000D02*
X111470000Y-153480000D01*
X109510000Y-153480000D02*
X107941000Y-153480000D01*
X113038000Y-153520000D02*
X111470000Y-153520000D01*
X109510000Y-153520000D02*
X107942000Y-153520000D01*
X113036000Y-153560000D02*
X111470000Y-153560000D01*
X109510000Y-153560000D02*
X107944000Y-153560000D01*
X113033000Y-153600000D02*
X111470000Y-153600000D01*
X109510000Y-153600000D02*
X107947000Y-153600000D01*
X113029000Y-153640000D02*
X111470000Y-153640000D01*
X109510000Y-153640000D02*
X107951000Y-153640000D01*
X113025000Y-153680000D02*
X111470000Y-153680000D01*
X109510000Y-153680000D02*
X107955000Y-153680000D01*
X113021000Y-153720000D02*
X111470000Y-153720000D01*
X109510000Y-153720000D02*
X107959000Y-153720000D01*
X113015000Y-153760000D02*
X111470000Y-153760000D01*
X109510000Y-153760000D02*
X107965000Y-153760000D01*
X113009000Y-153800000D02*
X111470000Y-153800000D01*
X109510000Y-153800000D02*
X107971000Y-153800000D01*
X113003000Y-153840000D02*
X111470000Y-153840000D01*
X109510000Y-153840000D02*
X107977000Y-153840000D01*
X112996000Y-153880000D02*
X111470000Y-153880000D01*
X109510000Y-153880000D02*
X107984000Y-153880000D01*
X112988000Y-153920000D02*
X111470000Y-153920000D01*
X109510000Y-153920000D02*
X107992000Y-153920000D01*
X112979000Y-153960000D02*
X111470000Y-153960000D01*
X109510000Y-153960000D02*
X108001000Y-153960000D01*
X112970000Y-154000000D02*
X111470000Y-154000000D01*
X109510000Y-154000000D02*
X108010000Y-154000000D01*
X112960000Y-154040000D02*
X111470000Y-154040000D01*
X109510000Y-154040000D02*
X108020000Y-154040000D01*
X112950000Y-154080000D02*
X111470000Y-154080000D01*
X109510000Y-154080000D02*
X108030000Y-154080000D01*
X112938000Y-154121000D02*
X111470000Y-154121000D01*
X109510000Y-154121000D02*
X108042000Y-154121000D01*
X112926000Y-154161000D02*
X111470000Y-154161000D01*
X109510000Y-154161000D02*
X108054000Y-154161000D01*
X112914000Y-154201000D02*
X111470000Y-154201000D01*
X109510000Y-154201000D02*
X108066000Y-154201000D01*
X112900000Y-154241000D02*
X111470000Y-154241000D01*
X109510000Y-154241000D02*
X108080000Y-154241000D01*
X112886000Y-154281000D02*
X111470000Y-154281000D01*
X109510000Y-154281000D02*
X108094000Y-154281000D01*
X112872000Y-154321000D02*
X111470000Y-154321000D01*
X109510000Y-154321000D02*
X108108000Y-154321000D01*
X112856000Y-154361000D02*
X111470000Y-154361000D01*
X109510000Y-154361000D02*
X108124000Y-154361000D01*
X112840000Y-154401000D02*
X111470000Y-154401000D01*
X109510000Y-154401000D02*
X108140000Y-154401000D01*
X112823000Y-154441000D02*
X111470000Y-154441000D01*
X109510000Y-154441000D02*
X108157000Y-154441000D01*
X112805000Y-154481000D02*
X111470000Y-154481000D01*
X109510000Y-154481000D02*
X108175000Y-154481000D01*
X112786000Y-154521000D02*
X111470000Y-154521000D01*
X109510000Y-154521000D02*
X108194000Y-154521000D01*
X112766000Y-154561000D02*
X111470000Y-154561000D01*
X109510000Y-154561000D02*
X108214000Y-154561000D01*
X112746000Y-154601000D02*
X111470000Y-154601000D01*
X109510000Y-154601000D02*
X108234000Y-154601000D01*
X112724000Y-154641000D02*
X111470000Y-154641000D01*
X109510000Y-154641000D02*
X108256000Y-154641000D01*
X112702000Y-154681000D02*
X111470000Y-154681000D01*
X109510000Y-154681000D02*
X108278000Y-154681000D01*
X112679000Y-154721000D02*
X111470000Y-154721000D01*
X109510000Y-154721000D02*
X108301000Y-154721000D01*
X112655000Y-154761000D02*
X111470000Y-154761000D01*
X109510000Y-154761000D02*
X108325000Y-154761000D01*
X112630000Y-154801000D02*
X111470000Y-154801000D01*
X109510000Y-154801000D02*
X108350000Y-154801000D01*
X112603000Y-154841000D02*
X111470000Y-154841000D01*
X109510000Y-154841000D02*
X108377000Y-154841000D01*
X112576000Y-154881000D02*
X111470000Y-154881000D01*
X109510000Y-154881000D02*
X108404000Y-154881000D01*
X112548000Y-154921000D02*
X111470000Y-154921000D01*
X109510000Y-154921000D02*
X108432000Y-154921000D01*
X112518000Y-154961000D02*
X111470000Y-154961000D01*
X109510000Y-154961000D02*
X108462000Y-154961000D01*
X112487000Y-155001000D02*
X111470000Y-155001000D01*
X109510000Y-155001000D02*
X108493000Y-155001000D01*
X112455000Y-155041000D02*
X111470000Y-155041000D01*
X109510000Y-155041000D02*
X108525000Y-155041000D01*
X112422000Y-155081000D02*
X111470000Y-155081000D01*
X109510000Y-155081000D02*
X108558000Y-155081000D01*
X112387000Y-155121000D02*
X111470000Y-155121000D01*
X109510000Y-155121000D02*
X108593000Y-155121000D01*
X112351000Y-155161000D02*
X111470000Y-155161000D01*
X109510000Y-155161000D02*
X108629000Y-155161000D01*
X112313000Y-155201000D02*
X111470000Y-155201000D01*
X109510000Y-155201000D02*
X108667000Y-155201000D01*
X112273000Y-155241000D02*
X111470000Y-155241000D01*
X109510000Y-155241000D02*
X108707000Y-155241000D01*
X112232000Y-155281000D02*
X111470000Y-155281000D01*
X109510000Y-155281000D02*
X108748000Y-155281000D01*
X112189000Y-155321000D02*
X111470000Y-155321000D01*
X109510000Y-155321000D02*
X108791000Y-155321000D01*
X112144000Y-155361000D02*
X111470000Y-155361000D01*
X109510000Y-155361000D02*
X108836000Y-155361000D01*
X112096000Y-155401000D02*
X108884000Y-155401000D01*
X112046000Y-155441000D02*
X108934000Y-155441000D01*
X111994000Y-155481000D02*
X108986000Y-155481000D01*
X111938000Y-155521000D02*
X109042000Y-155521000D01*
X111880000Y-155561000D02*
X109100000Y-155561000D01*
X111817000Y-155601000D02*
X109163000Y-155601000D01*
X111751000Y-155641000D02*
X109229000Y-155641000D01*
X111679000Y-155681000D02*
X109301000Y-155681000D01*
X111602000Y-155721000D02*
X109378000Y-155721000D01*
X111518000Y-155761000D02*
X109462000Y-155761000D01*
X111424000Y-155801000D02*
X109556000Y-155801000D01*
X111319000Y-155841000D02*
X109661000Y-155841000D01*
X111197000Y-155881000D02*
X109783000Y-155881000D01*
X111049000Y-155921000D02*
X109931000Y-155921000D01*
X110844000Y-155961000D02*
X110136000Y-155961000D01*
X110490000Y-150200000D02*
X110490000Y-151400000D01*
X111140000Y-150800000D02*
X109840000Y-150800000D01*
X115355000Y-127135000D02*
X115355000Y-128135000D01*
X117055000Y-128135000D02*
X117055000Y-127135000D01*
X109990000Y-188810000D02*
X110990000Y-188810000D01*
X110990000Y-187110000D02*
X109990000Y-187110000D01*
X120435000Y-145550000D02*
X120435000Y-146550000D01*
X122135000Y-146550000D02*
X122135000Y-145550000D01*
X109310277Y-145284278D02*
G75*
G03X109310000Y-149895580I1179723J-2305722D01*
G01*
X111669723Y-145284278D02*
G75*
G02X111670000Y-149895580I-1179723J-2305722D01*
G01*
X111669723Y-145284278D02*
G75*
G03X109310000Y-145284420I-1179723J-2305722D01*
G01*
X107940000Y-147590000D02*
X113040000Y-147590000D01*
X107940000Y-147550000D02*
X109510000Y-147550000D01*
X111470000Y-147550000D02*
X113040000Y-147550000D01*
X107941000Y-147510000D02*
X109510000Y-147510000D01*
X111470000Y-147510000D02*
X113039000Y-147510000D01*
X107942000Y-147470000D02*
X109510000Y-147470000D01*
X111470000Y-147470000D02*
X113038000Y-147470000D01*
X107944000Y-147430000D02*
X109510000Y-147430000D01*
X111470000Y-147430000D02*
X113036000Y-147430000D01*
X107947000Y-147390000D02*
X109510000Y-147390000D01*
X111470000Y-147390000D02*
X113033000Y-147390000D01*
X107951000Y-147350000D02*
X109510000Y-147350000D01*
X111470000Y-147350000D02*
X113029000Y-147350000D01*
X107955000Y-147310000D02*
X109510000Y-147310000D01*
X111470000Y-147310000D02*
X113025000Y-147310000D01*
X107959000Y-147270000D02*
X109510000Y-147270000D01*
X111470000Y-147270000D02*
X113021000Y-147270000D01*
X107965000Y-147230000D02*
X109510000Y-147230000D01*
X111470000Y-147230000D02*
X113015000Y-147230000D01*
X107971000Y-147190000D02*
X109510000Y-147190000D01*
X111470000Y-147190000D02*
X113009000Y-147190000D01*
X107977000Y-147150000D02*
X109510000Y-147150000D01*
X111470000Y-147150000D02*
X113003000Y-147150000D01*
X107984000Y-147110000D02*
X109510000Y-147110000D01*
X111470000Y-147110000D02*
X112996000Y-147110000D01*
X107992000Y-147070000D02*
X109510000Y-147070000D01*
X111470000Y-147070000D02*
X112988000Y-147070000D01*
X108001000Y-147030000D02*
X109510000Y-147030000D01*
X111470000Y-147030000D02*
X112979000Y-147030000D01*
X108010000Y-146990000D02*
X109510000Y-146990000D01*
X111470000Y-146990000D02*
X112970000Y-146990000D01*
X108020000Y-146950000D02*
X109510000Y-146950000D01*
X111470000Y-146950000D02*
X112960000Y-146950000D01*
X108030000Y-146910000D02*
X109510000Y-146910000D01*
X111470000Y-146910000D02*
X112950000Y-146910000D01*
X108042000Y-146869000D02*
X109510000Y-146869000D01*
X111470000Y-146869000D02*
X112938000Y-146869000D01*
X108054000Y-146829000D02*
X109510000Y-146829000D01*
X111470000Y-146829000D02*
X112926000Y-146829000D01*
X108066000Y-146789000D02*
X109510000Y-146789000D01*
X111470000Y-146789000D02*
X112914000Y-146789000D01*
X108080000Y-146749000D02*
X109510000Y-146749000D01*
X111470000Y-146749000D02*
X112900000Y-146749000D01*
X108094000Y-146709000D02*
X109510000Y-146709000D01*
X111470000Y-146709000D02*
X112886000Y-146709000D01*
X108108000Y-146669000D02*
X109510000Y-146669000D01*
X111470000Y-146669000D02*
X112872000Y-146669000D01*
X108124000Y-146629000D02*
X109510000Y-146629000D01*
X111470000Y-146629000D02*
X112856000Y-146629000D01*
X108140000Y-146589000D02*
X109510000Y-146589000D01*
X111470000Y-146589000D02*
X112840000Y-146589000D01*
X108157000Y-146549000D02*
X109510000Y-146549000D01*
X111470000Y-146549000D02*
X112823000Y-146549000D01*
X108175000Y-146509000D02*
X109510000Y-146509000D01*
X111470000Y-146509000D02*
X112805000Y-146509000D01*
X108194000Y-146469000D02*
X109510000Y-146469000D01*
X111470000Y-146469000D02*
X112786000Y-146469000D01*
X108214000Y-146429000D02*
X109510000Y-146429000D01*
X111470000Y-146429000D02*
X112766000Y-146429000D01*
X108234000Y-146389000D02*
X109510000Y-146389000D01*
X111470000Y-146389000D02*
X112746000Y-146389000D01*
X108256000Y-146349000D02*
X109510000Y-146349000D01*
X111470000Y-146349000D02*
X112724000Y-146349000D01*
X108278000Y-146309000D02*
X109510000Y-146309000D01*
X111470000Y-146309000D02*
X112702000Y-146309000D01*
X108301000Y-146269000D02*
X109510000Y-146269000D01*
X111470000Y-146269000D02*
X112679000Y-146269000D01*
X108325000Y-146229000D02*
X109510000Y-146229000D01*
X111470000Y-146229000D02*
X112655000Y-146229000D01*
X108350000Y-146189000D02*
X109510000Y-146189000D01*
X111470000Y-146189000D02*
X112630000Y-146189000D01*
X108377000Y-146149000D02*
X109510000Y-146149000D01*
X111470000Y-146149000D02*
X112603000Y-146149000D01*
X108404000Y-146109000D02*
X109510000Y-146109000D01*
X111470000Y-146109000D02*
X112576000Y-146109000D01*
X108432000Y-146069000D02*
X109510000Y-146069000D01*
X111470000Y-146069000D02*
X112548000Y-146069000D01*
X108462000Y-146029000D02*
X109510000Y-146029000D01*
X111470000Y-146029000D02*
X112518000Y-146029000D01*
X108493000Y-145989000D02*
X109510000Y-145989000D01*
X111470000Y-145989000D02*
X112487000Y-145989000D01*
X108525000Y-145949000D02*
X109510000Y-145949000D01*
X111470000Y-145949000D02*
X112455000Y-145949000D01*
X108558000Y-145909000D02*
X109510000Y-145909000D01*
X111470000Y-145909000D02*
X112422000Y-145909000D01*
X108593000Y-145869000D02*
X109510000Y-145869000D01*
X111470000Y-145869000D02*
X112387000Y-145869000D01*
X108629000Y-145829000D02*
X109510000Y-145829000D01*
X111470000Y-145829000D02*
X112351000Y-145829000D01*
X108667000Y-145789000D02*
X109510000Y-145789000D01*
X111470000Y-145789000D02*
X112313000Y-145789000D01*
X108707000Y-145749000D02*
X109510000Y-145749000D01*
X111470000Y-145749000D02*
X112273000Y-145749000D01*
X108748000Y-145709000D02*
X109510000Y-145709000D01*
X111470000Y-145709000D02*
X112232000Y-145709000D01*
X108791000Y-145669000D02*
X109510000Y-145669000D01*
X111470000Y-145669000D02*
X112189000Y-145669000D01*
X108836000Y-145629000D02*
X109510000Y-145629000D01*
X111470000Y-145629000D02*
X112144000Y-145629000D01*
X108884000Y-145589000D02*
X112096000Y-145589000D01*
X108934000Y-145549000D02*
X112046000Y-145549000D01*
X108986000Y-145509000D02*
X111994000Y-145509000D01*
X109042000Y-145469000D02*
X111938000Y-145469000D01*
X109100000Y-145429000D02*
X111880000Y-145429000D01*
X109163000Y-145389000D02*
X111817000Y-145389000D01*
X109229000Y-145349000D02*
X111751000Y-145349000D01*
X109301000Y-145309000D02*
X111679000Y-145309000D01*
X109378000Y-145269000D02*
X111602000Y-145269000D01*
X109462000Y-145229000D02*
X111518000Y-145229000D01*
X109556000Y-145189000D02*
X111424000Y-145189000D01*
X109661000Y-145149000D02*
X111319000Y-145149000D01*
X109783000Y-145109000D02*
X111197000Y-145109000D01*
X109931000Y-145069000D02*
X111049000Y-145069000D01*
X110136000Y-145029000D02*
X110844000Y-145029000D01*
X110490000Y-150790000D02*
X110490000Y-149590000D01*
X109840000Y-150190000D02*
X111140000Y-150190000D01*
X128135000Y-134405000D02*
X127135000Y-134405000D01*
X127135000Y-136105000D02*
X128135000Y-136105000D01*
X110990000Y-179490000D02*
X109990000Y-179490000D01*
X109990000Y-181190000D02*
X110990000Y-181190000D01*
X145550000Y-154520000D02*
X146550000Y-154520000D01*
X146550000Y-152820000D02*
X145550000Y-152820000D01*
X138930000Y-179490000D02*
X137930000Y-179490000D01*
X137930000Y-181190000D02*
X138930000Y-181190000D01*
X151630000Y-145200000D02*
X150630000Y-145200000D01*
X150630000Y-146900000D02*
X151630000Y-146900000D01*
X116340000Y-181190000D02*
X117340000Y-181190000D01*
X117340000Y-179490000D02*
X116340000Y-179490000D01*
X105830000Y-132850000D02*
X105830000Y-133850000D01*
X107530000Y-133850000D02*
X107530000Y-132850000D01*
X102960277Y-179574278D02*
G75*
G03X102960000Y-184185580I1179723J-2305722D01*
G01*
X105319723Y-179574278D02*
G75*
G02X105320000Y-184185580I-1179723J-2305722D01*
G01*
X105319723Y-179574278D02*
G75*
G03X102960000Y-179574420I-1179723J-2305722D01*
G01*
X101590000Y-181880000D02*
X106690000Y-181880000D01*
X101590000Y-181840000D02*
X103160000Y-181840000D01*
X105120000Y-181840000D02*
X106690000Y-181840000D01*
X101591000Y-181800000D02*
X103160000Y-181800000D01*
X105120000Y-181800000D02*
X106689000Y-181800000D01*
X101592000Y-181760000D02*
X103160000Y-181760000D01*
X105120000Y-181760000D02*
X106688000Y-181760000D01*
X101594000Y-181720000D02*
X103160000Y-181720000D01*
X105120000Y-181720000D02*
X106686000Y-181720000D01*
X101597000Y-181680000D02*
X103160000Y-181680000D01*
X105120000Y-181680000D02*
X106683000Y-181680000D01*
X101601000Y-181640000D02*
X103160000Y-181640000D01*
X105120000Y-181640000D02*
X106679000Y-181640000D01*
X101605000Y-181600000D02*
X103160000Y-181600000D01*
X105120000Y-181600000D02*
X106675000Y-181600000D01*
X101609000Y-181560000D02*
X103160000Y-181560000D01*
X105120000Y-181560000D02*
X106671000Y-181560000D01*
X101615000Y-181520000D02*
X103160000Y-181520000D01*
X105120000Y-181520000D02*
X106665000Y-181520000D01*
X101621000Y-181480000D02*
X103160000Y-181480000D01*
X105120000Y-181480000D02*
X106659000Y-181480000D01*
X101627000Y-181440000D02*
X103160000Y-181440000D01*
X105120000Y-181440000D02*
X106653000Y-181440000D01*
X101634000Y-181400000D02*
X103160000Y-181400000D01*
X105120000Y-181400000D02*
X106646000Y-181400000D01*
X101642000Y-181360000D02*
X103160000Y-181360000D01*
X105120000Y-181360000D02*
X106638000Y-181360000D01*
X101651000Y-181320000D02*
X103160000Y-181320000D01*
X105120000Y-181320000D02*
X106629000Y-181320000D01*
X101660000Y-181280000D02*
X103160000Y-181280000D01*
X105120000Y-181280000D02*
X106620000Y-181280000D01*
X101670000Y-181240000D02*
X103160000Y-181240000D01*
X105120000Y-181240000D02*
X106610000Y-181240000D01*
X101680000Y-181200000D02*
X103160000Y-181200000D01*
X105120000Y-181200000D02*
X106600000Y-181200000D01*
X101692000Y-181159000D02*
X103160000Y-181159000D01*
X105120000Y-181159000D02*
X106588000Y-181159000D01*
X101704000Y-181119000D02*
X103160000Y-181119000D01*
X105120000Y-181119000D02*
X106576000Y-181119000D01*
X101716000Y-181079000D02*
X103160000Y-181079000D01*
X105120000Y-181079000D02*
X106564000Y-181079000D01*
X101730000Y-181039000D02*
X103160000Y-181039000D01*
X105120000Y-181039000D02*
X106550000Y-181039000D01*
X101744000Y-180999000D02*
X103160000Y-180999000D01*
X105120000Y-180999000D02*
X106536000Y-180999000D01*
X101758000Y-180959000D02*
X103160000Y-180959000D01*
X105120000Y-180959000D02*
X106522000Y-180959000D01*
X101774000Y-180919000D02*
X103160000Y-180919000D01*
X105120000Y-180919000D02*
X106506000Y-180919000D01*
X101790000Y-180879000D02*
X103160000Y-180879000D01*
X105120000Y-180879000D02*
X106490000Y-180879000D01*
X101807000Y-180839000D02*
X103160000Y-180839000D01*
X105120000Y-180839000D02*
X106473000Y-180839000D01*
X101825000Y-180799000D02*
X103160000Y-180799000D01*
X105120000Y-180799000D02*
X106455000Y-180799000D01*
X101844000Y-180759000D02*
X103160000Y-180759000D01*
X105120000Y-180759000D02*
X106436000Y-180759000D01*
X101864000Y-180719000D02*
X103160000Y-180719000D01*
X105120000Y-180719000D02*
X106416000Y-180719000D01*
X101884000Y-180679000D02*
X103160000Y-180679000D01*
X105120000Y-180679000D02*
X106396000Y-180679000D01*
X101906000Y-180639000D02*
X103160000Y-180639000D01*
X105120000Y-180639000D02*
X106374000Y-180639000D01*
X101928000Y-180599000D02*
X103160000Y-180599000D01*
X105120000Y-180599000D02*
X106352000Y-180599000D01*
X101951000Y-180559000D02*
X103160000Y-180559000D01*
X105120000Y-180559000D02*
X106329000Y-180559000D01*
X101975000Y-180519000D02*
X103160000Y-180519000D01*
X105120000Y-180519000D02*
X106305000Y-180519000D01*
X102000000Y-180479000D02*
X103160000Y-180479000D01*
X105120000Y-180479000D02*
X106280000Y-180479000D01*
X102027000Y-180439000D02*
X103160000Y-180439000D01*
X105120000Y-180439000D02*
X106253000Y-180439000D01*
X102054000Y-180399000D02*
X103160000Y-180399000D01*
X105120000Y-180399000D02*
X106226000Y-180399000D01*
X102082000Y-180359000D02*
X103160000Y-180359000D01*
X105120000Y-180359000D02*
X106198000Y-180359000D01*
X102112000Y-180319000D02*
X103160000Y-180319000D01*
X105120000Y-180319000D02*
X106168000Y-180319000D01*
X102143000Y-180279000D02*
X103160000Y-180279000D01*
X105120000Y-180279000D02*
X106137000Y-180279000D01*
X102175000Y-180239000D02*
X103160000Y-180239000D01*
X105120000Y-180239000D02*
X106105000Y-180239000D01*
X102208000Y-180199000D02*
X103160000Y-180199000D01*
X105120000Y-180199000D02*
X106072000Y-180199000D01*
X102243000Y-180159000D02*
X103160000Y-180159000D01*
X105120000Y-180159000D02*
X106037000Y-180159000D01*
X102279000Y-180119000D02*
X103160000Y-180119000D01*
X105120000Y-180119000D02*
X106001000Y-180119000D01*
X102317000Y-180079000D02*
X103160000Y-180079000D01*
X105120000Y-180079000D02*
X105963000Y-180079000D01*
X102357000Y-180039000D02*
X103160000Y-180039000D01*
X105120000Y-180039000D02*
X105923000Y-180039000D01*
X102398000Y-179999000D02*
X103160000Y-179999000D01*
X105120000Y-179999000D02*
X105882000Y-179999000D01*
X102441000Y-179959000D02*
X103160000Y-179959000D01*
X105120000Y-179959000D02*
X105839000Y-179959000D01*
X102486000Y-179919000D02*
X103160000Y-179919000D01*
X105120000Y-179919000D02*
X105794000Y-179919000D01*
X102534000Y-179879000D02*
X105746000Y-179879000D01*
X102584000Y-179839000D02*
X105696000Y-179839000D01*
X102636000Y-179799000D02*
X105644000Y-179799000D01*
X102692000Y-179759000D02*
X105588000Y-179759000D01*
X102750000Y-179719000D02*
X105530000Y-179719000D01*
X102813000Y-179679000D02*
X105467000Y-179679000D01*
X102879000Y-179639000D02*
X105401000Y-179639000D01*
X102951000Y-179599000D02*
X105329000Y-179599000D01*
X103028000Y-179559000D02*
X105252000Y-179559000D01*
X103112000Y-179519000D02*
X105168000Y-179519000D01*
X103206000Y-179479000D02*
X105074000Y-179479000D01*
X103311000Y-179439000D02*
X104969000Y-179439000D01*
X103433000Y-179399000D02*
X104847000Y-179399000D01*
X103581000Y-179359000D02*
X104699000Y-179359000D01*
X103786000Y-179319000D02*
X104494000Y-179319000D01*
X104140000Y-185080000D02*
X104140000Y-183880000D01*
X103490000Y-184480000D02*
X104790000Y-184480000D01*
X115150000Y-138295000D02*
X115150000Y-137295000D01*
X113450000Y-137295000D02*
X113450000Y-138295000D01*
X115560000Y-108070000D02*
X115430000Y-108070000D01*
X115430000Y-108070000D02*
X115430000Y-102750000D01*
X115430000Y-102750000D02*
X115560000Y-102750000D01*
X118120000Y-108070000D02*
X118250000Y-108070000D01*
X118250000Y-108070000D02*
X118250000Y-102750000D01*
X118250000Y-102750000D02*
X118120000Y-102750000D01*
X115430000Y-107230000D02*
X118250000Y-107230000D01*
X128269538Y-161740000D02*
G75*
G03X129814830Y-156190000I462J2990000D01*
G01*
X128270462Y-161740000D02*
G75*
G02X126725170Y-156190000I-462J2990000D01*
G01*
X130770000Y-158750000D02*
G75*
G03X130770000Y-158750000I-2500000J0D01*
G01*
X129815000Y-156190000D02*
X126725000Y-156190000D01*
X127191392Y-105007665D02*
G75*
G03X127034484Y-108240000I1078608J-1672335D01*
G01*
X129348608Y-105007665D02*
G75*
G02X129505516Y-108240000I-1078608J-1672335D01*
G01*
X127190163Y-105638870D02*
G75*
G03X127190000Y-107720961I1079837J-1041130D01*
G01*
X129349837Y-105638870D02*
G75*
G02X129350000Y-107720961I-1079837J-1041130D01*
G01*
X127034000Y-108240000D02*
X127190000Y-108240000D01*
X129350000Y-108240000D02*
X129506000Y-108240000D01*
X104200000Y-126940000D02*
X101540000Y-126940000D01*
X104200000Y-132080000D02*
X104200000Y-126940000D01*
X101540000Y-132080000D02*
X101540000Y-126940000D01*
X104200000Y-132080000D02*
X101540000Y-132080000D01*
X104200000Y-133350000D02*
X104200000Y-134680000D01*
X104200000Y-134680000D02*
X102870000Y-134680000D01*
X115510000Y-121980000D02*
X118170000Y-121980000D01*
X115510000Y-116840000D02*
X115510000Y-121980000D01*
X118170000Y-116840000D02*
X118170000Y-121980000D01*
X115510000Y-116840000D02*
X118170000Y-116840000D01*
X115510000Y-115570000D02*
X115510000Y-114240000D01*
X115510000Y-114240000D02*
X116840000Y-114240000D01*
X115630000Y-97850000D02*
X115630000Y-95190000D01*
X113030000Y-97850000D02*
X115630000Y-97850000D01*
X113030000Y-95190000D02*
X115630000Y-95190000D01*
X113030000Y-97850000D02*
X113030000Y-95190000D01*
X111760000Y-97850000D02*
X110430000Y-97850000D01*
X110430000Y-97850000D02*
X110430000Y-96520000D01*
X126470000Y-177110000D02*
X130070000Y-177110000D01*
X126431522Y-177098478D02*
G75*
G02X128270000Y-172660000I1838478J1838478D01*
G01*
X130108478Y-177098478D02*
G75*
G03X128270000Y-172660000I-1838478J1838478D01*
G01*
X127740000Y-98370000D02*
X131340000Y-98370000D01*
X127701522Y-98358478D02*
G75*
G02X129540000Y-93920000I1838478J1838478D01*
G01*
X131378478Y-98358478D02*
G75*
G03X129540000Y-93920000I-1838478J1838478D01*
G01*
X144180000Y-179460000D02*
X145380000Y-179460000D01*
X145380000Y-181220000D02*
X144180000Y-181220000D01*
X144180000Y-183270000D02*
X145380000Y-183270000D01*
X145380000Y-185030000D02*
X144180000Y-185030000D01*
X137830000Y-115960000D02*
X139030000Y-115960000D01*
X139030000Y-117720000D02*
X137830000Y-117720000D01*
X126120000Y-140300000D02*
X126120000Y-139100000D01*
X127880000Y-139100000D02*
X127880000Y-140300000D01*
X130210000Y-140725000D02*
X131410000Y-140725000D01*
X131410000Y-142485000D02*
X130210000Y-142485000D01*
X139030000Y-188840000D02*
X137830000Y-188840000D01*
X137830000Y-187080000D02*
X139030000Y-187080000D01*
X139030000Y-185030000D02*
X137830000Y-185030000D01*
X137830000Y-183270000D02*
X139030000Y-183270000D01*
X140300000Y-150740000D02*
X139100000Y-150740000D01*
X139100000Y-148980000D02*
X140300000Y-148980000D01*
X150530000Y-141360000D02*
X151730000Y-141360000D01*
X151730000Y-143120000D02*
X150530000Y-143120000D01*
X146650000Y-146930000D02*
X145450000Y-146930000D01*
X145450000Y-145170000D02*
X146650000Y-145170000D01*
X117440000Y-183760000D02*
X116240000Y-183760000D01*
X116240000Y-182000000D02*
X117440000Y-182000000D01*
X116240000Y-187080000D02*
X117440000Y-187080000D01*
X117440000Y-188840000D02*
X116240000Y-188840000D01*
X122800000Y-139100000D02*
X122800000Y-140300000D01*
X121040000Y-140300000D02*
X121040000Y-139100000D01*
X113420000Y-144110000D02*
X113420000Y-142910000D01*
X115180000Y-142910000D02*
X115180000Y-144110000D01*
X103540000Y-187080000D02*
X104740000Y-187080000D01*
X104740000Y-188840000D02*
X103540000Y-188840000D01*
X120260000Y-139100000D02*
X120260000Y-140300000D01*
X118500000Y-140300000D02*
X118500000Y-139100000D01*
X111090000Y-130420000D02*
X109890000Y-130420000D01*
X109890000Y-128660000D02*
X111090000Y-128660000D01*
X111090000Y-143120000D02*
X109890000Y-143120000D01*
X109890000Y-141360000D02*
X111090000Y-141360000D01*
X128870000Y-169790000D02*
X127670000Y-169790000D01*
X127670000Y-168030000D02*
X128870000Y-168030000D01*
X123790000Y-98670000D02*
X122590000Y-98670000D01*
X122590000Y-96910000D02*
X123790000Y-96910000D01*
X128870000Y-165980000D02*
X127670000Y-165980000D01*
X127670000Y-164220000D02*
X128870000Y-164220000D01*
X122590000Y-94370000D02*
X123790000Y-94370000D01*
X123790000Y-96130000D02*
X122590000Y-96130000D01*
X122795000Y-148510000D02*
X120445000Y-148510000D01*
X124245000Y-153560000D02*
X120695000Y-153560000D01*
X124245000Y-151810000D02*
X124245000Y-153560000D01*
X124245000Y-145210000D02*
X124245000Y-143460000D01*
X124245000Y-143460000D02*
X120645000Y-143460000D01*
X122845000Y-148510000D02*
X121845000Y-149460000D01*
X122845000Y-148560000D02*
X121895000Y-147560000D01*
X122845000Y-145210000D02*
X125545000Y-145210000D01*
X125545000Y-145210000D02*
X125545000Y-151810000D01*
X125545000Y-151810000D02*
X122845000Y-151810000D01*
X122845000Y-151810000D02*
X122845000Y-145210000D01*
D12*
X134970000Y-178150000D02*
X121570000Y-178150000D01*
X121570000Y-178150000D02*
X121570000Y-190150000D01*
X121570000Y-190150000D02*
X134970000Y-190150000D01*
X134970000Y-190150000D02*
X134970000Y-178150000D01*
X143000000Y-101500000D02*
X151000000Y-101500000D01*
X151000000Y-101500000D02*
X151000000Y-114500000D01*
X151000000Y-114500000D02*
X143000000Y-114500000D01*
X143000000Y-114500000D02*
X143000000Y-101500000D01*
X101650000Y-101500000D02*
X114350000Y-101500000D01*
X114350000Y-101500000D02*
X114350000Y-114500000D01*
X114350000Y-114500000D02*
X101650000Y-114500000D01*
X101650000Y-114500000D02*
X101650000Y-101500000D01*
X111506000Y-118999000D02*
X111506000Y-122428000D01*
X101854000Y-118999000D02*
X101854000Y-122428000D01*
X112014000Y-117856000D02*
X101346000Y-117856000D01*
X108458000Y-118872000D02*
X108458000Y-117602000D01*
X104902000Y-118872000D02*
X104902000Y-117602000D01*
X101346000Y-118999000D02*
X112014000Y-118999000D01*
X112014000Y-122428000D02*
X101346000Y-122428000D01*
X101346000Y-117602000D02*
X101346000Y-122428000D01*
X112014000Y-117602000D02*
X112014000Y-122428000D01*
X112014000Y-117602000D02*
X101346000Y-117602000D01*
D13*
X133470000Y-147590000D02*
X133470000Y-145820000D01*
X133470000Y-145820000D02*
X123070000Y-145820000D01*
X123070000Y-145820000D02*
X123070000Y-151360000D01*
X123070000Y-151360000D02*
X133470000Y-151360000D01*
X133470000Y-151360000D02*
X133470000Y-149590000D01*
X133470000Y-143390000D02*
X123070000Y-143390000D01*
X123070000Y-143390000D02*
X123070000Y-153790000D01*
X123070000Y-153790000D02*
X133470000Y-153790000D01*
X133470000Y-153790000D02*
X133470000Y-143390000D01*
X133470000Y-149590000D02*
G75*
G02X133470000Y-147590000I0J1000000D01*
G01*
D12*
X106710000Y-136330000D02*
X106710000Y-155830000D01*
X106710000Y-155830000D02*
X100610000Y-155830000D01*
X100610000Y-155830000D02*
X100610000Y-136330000D01*
X100610000Y-136330000D02*
X106710000Y-136330000D01*
X149915000Y-151400000D02*
G75*
G03X149915000Y-151400000I-500000J0D01*
G01*
X146050000Y-147400000D02*
X151050000Y-147400000D01*
X151050000Y-152400000D02*
X146050000Y-152400000D01*
D13*
X108990000Y-182650000D02*
X111990000Y-182650000D01*
X108990000Y-185650000D02*
X112990000Y-185650000D01*
D12*
X109450000Y-136715000D02*
G75*
G03X109450000Y-136715000I-500000J0D01*
G01*
X112950000Y-133350000D02*
X112950000Y-138350000D01*
X107950000Y-138350000D02*
X107950000Y-133350000D01*
X117280000Y-132315000D02*
X117555000Y-132315000D01*
X117280000Y-126765000D02*
X117635000Y-126765000D01*
X127830000Y-126765000D02*
X127475000Y-126765000D01*
X127830000Y-132315000D02*
X127475000Y-132315000D01*
X117280000Y-132315000D02*
X117280000Y-126765000D01*
X127830000Y-132315000D02*
X127830000Y-126765000D01*
X117555000Y-132315000D02*
X117555000Y-133840000D01*
X150952381Y-130333333D02*
X151666667Y-130333333D01*
X151809524Y-130380953D01*
X151904762Y-130476191D01*
X151952381Y-130619048D01*
X151952381Y-130714286D01*
X150952381Y-129952381D02*
X150952381Y-129333333D01*
X151333333Y-129666667D01*
X151333333Y-129523809D01*
X151380952Y-129428571D01*
X151428571Y-129380952D01*
X151523810Y-129333333D01*
X151761905Y-129333333D01*
X151857143Y-129380952D01*
X151904762Y-129428571D01*
X151952381Y-129523809D01*
X151952381Y-129809524D01*
X151904762Y-129904762D01*
X151857143Y-129952381D01*
X138628334Y-109577143D02*
X138580715Y-109624762D01*
X138437858Y-109672381D01*
X138342620Y-109672381D01*
X138199762Y-109624762D01*
X138104524Y-109529524D01*
X138056905Y-109434286D01*
X138009286Y-109243810D01*
X138009286Y-109100952D01*
X138056905Y-108910476D01*
X138104524Y-108815238D01*
X138199762Y-108720000D01*
X138342620Y-108672381D01*
X138437858Y-108672381D01*
X138580715Y-108720000D01*
X138628334Y-108767619D01*
X139533096Y-108672381D02*
X139056905Y-108672381D01*
X139009286Y-109148571D01*
X139056905Y-109100952D01*
X139152143Y-109053333D01*
X139390239Y-109053333D01*
X139485477Y-109100952D01*
X139533096Y-109148571D01*
X139580715Y-109243810D01*
X139580715Y-109481905D01*
X139533096Y-109577143D01*
X139485477Y-109624762D01*
X139390239Y-109672381D01*
X139152143Y-109672381D01*
X139056905Y-109624762D01*
X139009286Y-109577143D01*
X131904762Y-111452381D02*
X131571428Y-110976190D01*
X131333333Y-111452381D02*
X131333333Y-110452381D01*
X131714286Y-110452381D01*
X131809524Y-110500000D01*
X131857143Y-110547619D01*
X131904762Y-110642857D01*
X131904762Y-110785714D01*
X131857143Y-110880952D01*
X131809524Y-110928571D01*
X131714286Y-110976190D01*
X131333333Y-110976190D01*
X132190476Y-110452381D02*
X132523809Y-111452381D01*
X132857143Y-110452381D01*
X133142857Y-110547619D02*
X133190476Y-110500000D01*
X133285714Y-110452381D01*
X133523810Y-110452381D01*
X133619048Y-110500000D01*
X133666667Y-110547619D01*
X133714286Y-110642857D01*
X133714286Y-110738095D01*
X133666667Y-110880952D01*
X133095238Y-111452381D01*
X133714286Y-111452381D01*
X103952381Y-167333333D02*
X104666667Y-167333333D01*
X104809524Y-167380953D01*
X104904762Y-167476191D01*
X104952381Y-167619048D01*
X104952381Y-167714286D01*
X104952381Y-166333333D02*
X104952381Y-166904762D01*
X104952381Y-166619048D02*
X103952381Y-166619048D01*
X104095238Y-166714286D01*
X104190476Y-166809524D01*
X104238095Y-166904762D01*
X150952381Y-167333333D02*
X151666667Y-167333333D01*
X151809524Y-167380953D01*
X151904762Y-167476191D01*
X151952381Y-167619048D01*
X151952381Y-167714286D01*
X151047619Y-166904762D02*
X151000000Y-166857143D01*
X150952381Y-166761905D01*
X150952381Y-166523809D01*
X151000000Y-166428571D01*
X151047619Y-166380952D01*
X151142857Y-166333333D01*
X151238095Y-166333333D01*
X151380952Y-166380952D01*
X151952381Y-166952381D01*
X151952381Y-166333333D01*
X135357143Y-141857143D02*
X135309524Y-141904762D01*
X135166667Y-141952381D01*
X135071429Y-141952381D01*
X134928571Y-141904762D01*
X134833333Y-141809524D01*
X134785714Y-141714286D01*
X134738095Y-141523810D01*
X134738095Y-141380952D01*
X134785714Y-141190476D01*
X134833333Y-141095238D01*
X134928571Y-141000000D01*
X135071429Y-140952381D01*
X135166667Y-140952381D01*
X135309524Y-141000000D01*
X135357143Y-141047619D01*
X136309524Y-141952381D02*
X135738095Y-141952381D01*
X136023809Y-141952381D02*
X136023809Y-140952381D01*
X135928571Y-141095238D01*
X135833333Y-141190476D01*
X135738095Y-141238095D01*
X137214286Y-140952381D02*
X136738095Y-140952381D01*
X136690476Y-141428571D01*
X136738095Y-141380952D01*
X136833333Y-141333333D01*
X137071429Y-141333333D01*
X137166667Y-141380952D01*
X137214286Y-141428571D01*
X137261905Y-141523810D01*
X137261905Y-141761905D01*
X137214286Y-141857143D01*
X137166667Y-141904762D01*
X137071429Y-141952381D01*
X136833333Y-141952381D01*
X136738095Y-141904762D01*
X136690476Y-141857143D01*
X153357143Y-186166666D02*
X153404762Y-186214285D01*
X153452381Y-186357142D01*
X153452381Y-186452380D01*
X153404762Y-186595238D01*
X153309524Y-186690476D01*
X153214286Y-186738095D01*
X153023810Y-186785714D01*
X152880952Y-186785714D01*
X152690476Y-186738095D01*
X152595238Y-186690476D01*
X152500000Y-186595238D01*
X152452381Y-186452380D01*
X152452381Y-186357142D01*
X152500000Y-186214285D01*
X152547619Y-186166666D01*
X152785714Y-185309523D02*
X153452381Y-185309523D01*
X152404762Y-185547619D02*
X153119048Y-185785714D01*
X153119048Y-185166666D01*
X137357143Y-152166666D02*
X137404762Y-152214285D01*
X137452381Y-152357142D01*
X137452381Y-152452380D01*
X137404762Y-152595238D01*
X137309524Y-152690476D01*
X137214286Y-152738095D01*
X137023810Y-152785714D01*
X136880952Y-152785714D01*
X136690476Y-152738095D01*
X136595238Y-152690476D01*
X136500000Y-152595238D01*
X136452381Y-152452380D01*
X136452381Y-152357142D01*
X136500000Y-152214285D01*
X136547619Y-152166666D01*
X137452381Y-151214285D02*
X137452381Y-151785714D01*
X137452381Y-151500000D02*
X136452381Y-151500000D01*
X136595238Y-151595238D01*
X136690476Y-151690476D01*
X136738095Y-151785714D01*
X105243334Y-126567143D02*
X105195715Y-126614762D01*
X105052858Y-126662381D01*
X104957620Y-126662381D01*
X104814762Y-126614762D01*
X104719524Y-126519524D01*
X104671905Y-126424286D01*
X104624286Y-126233810D01*
X104624286Y-126090952D01*
X104671905Y-125900476D01*
X104719524Y-125805238D01*
X104814762Y-125710000D01*
X104957620Y-125662381D01*
X105052858Y-125662381D01*
X105195715Y-125710000D01*
X105243334Y-125757619D01*
X105624286Y-125757619D02*
X105671905Y-125710000D01*
X105767143Y-125662381D01*
X106005239Y-125662381D01*
X106100477Y-125710000D01*
X106148096Y-125757619D01*
X106195715Y-125852857D01*
X106195715Y-125948095D01*
X106148096Y-126090952D01*
X105576667Y-126662381D01*
X106195715Y-126662381D01*
X112833334Y-123357143D02*
X112785715Y-123404762D01*
X112642858Y-123452381D01*
X112547620Y-123452381D01*
X112404762Y-123404762D01*
X112309524Y-123309524D01*
X112261905Y-123214286D01*
X112214286Y-123023810D01*
X112214286Y-122880952D01*
X112261905Y-122690476D01*
X112309524Y-122595238D01*
X112404762Y-122500000D01*
X112547620Y-122452381D01*
X112642858Y-122452381D01*
X112785715Y-122500000D01*
X112833334Y-122547619D01*
X113166667Y-122452381D02*
X113785715Y-122452381D01*
X113452381Y-122833333D01*
X113595239Y-122833333D01*
X113690477Y-122880952D01*
X113738096Y-122928571D01*
X113785715Y-123023810D01*
X113785715Y-123261905D01*
X113738096Y-123357143D01*
X113690477Y-123404762D01*
X113595239Y-123452381D01*
X113309524Y-123452381D01*
X113214286Y-123404762D01*
X113166667Y-123357143D01*
X114657143Y-153566666D02*
X114704762Y-153614285D01*
X114752381Y-153757142D01*
X114752381Y-153852380D01*
X114704762Y-153995238D01*
X114609524Y-154090476D01*
X114514286Y-154138095D01*
X114323810Y-154185714D01*
X114180952Y-154185714D01*
X113990476Y-154138095D01*
X113895238Y-154090476D01*
X113800000Y-153995238D01*
X113752381Y-153852380D01*
X113752381Y-153757142D01*
X113800000Y-153614285D01*
X113847619Y-153566666D01*
X113752381Y-152709523D02*
X113752381Y-152900000D01*
X113800000Y-152995238D01*
X113847619Y-153042857D01*
X113990476Y-153138095D01*
X114180952Y-153185714D01*
X114561905Y-153185714D01*
X114657143Y-153138095D01*
X114704762Y-153090476D01*
X114752381Y-152995238D01*
X114752381Y-152804761D01*
X114704762Y-152709523D01*
X114657143Y-152661904D01*
X114561905Y-152614285D01*
X114323810Y-152614285D01*
X114228571Y-152661904D01*
X114180952Y-152709523D01*
X114133333Y-152804761D01*
X114133333Y-152995238D01*
X114180952Y-153090476D01*
X114228571Y-153138095D01*
X114323810Y-153185714D01*
X114812143Y-127801666D02*
X114859762Y-127849285D01*
X114907381Y-127992142D01*
X114907381Y-128087380D01*
X114859762Y-128230238D01*
X114764524Y-128325476D01*
X114669286Y-128373095D01*
X114478810Y-128420714D01*
X114335952Y-128420714D01*
X114145476Y-128373095D01*
X114050238Y-128325476D01*
X113955000Y-128230238D01*
X113907381Y-128087380D01*
X113907381Y-127992142D01*
X113955000Y-127849285D01*
X114002619Y-127801666D01*
X113907381Y-127468333D02*
X113907381Y-126801666D01*
X114907381Y-127230238D01*
X112833334Y-186857143D02*
X112785715Y-186904762D01*
X112642858Y-186952381D01*
X112547620Y-186952381D01*
X112404762Y-186904762D01*
X112309524Y-186809524D01*
X112261905Y-186714286D01*
X112214286Y-186523810D01*
X112214286Y-186380952D01*
X112261905Y-186190476D01*
X112309524Y-186095238D01*
X112404762Y-186000000D01*
X112547620Y-185952381D01*
X112642858Y-185952381D01*
X112785715Y-186000000D01*
X112833334Y-186047619D01*
X113404762Y-186380952D02*
X113309524Y-186333333D01*
X113261905Y-186285714D01*
X113214286Y-186190476D01*
X113214286Y-186142857D01*
X113261905Y-186047619D01*
X113309524Y-186000000D01*
X113404762Y-185952381D01*
X113595239Y-185952381D01*
X113690477Y-186000000D01*
X113738096Y-186047619D01*
X113785715Y-186142857D01*
X113785715Y-186190476D01*
X113738096Y-186285714D01*
X113690477Y-186333333D01*
X113595239Y-186380952D01*
X113404762Y-186380952D01*
X113309524Y-186428571D01*
X113261905Y-186476190D01*
X113214286Y-186571429D01*
X113214286Y-186761905D01*
X113261905Y-186857143D01*
X113309524Y-186904762D01*
X113404762Y-186952381D01*
X113595239Y-186952381D01*
X113690477Y-186904762D01*
X113738096Y-186857143D01*
X113785715Y-186761905D01*
X113785715Y-186571429D01*
X113738096Y-186476190D01*
X113690477Y-186428571D01*
X113595239Y-186380952D01*
X121857143Y-150166666D02*
X121904762Y-150214285D01*
X121952381Y-150357142D01*
X121952381Y-150452380D01*
X121904762Y-150595238D01*
X121809524Y-150690476D01*
X121714286Y-150738095D01*
X121523810Y-150785714D01*
X121380952Y-150785714D01*
X121190476Y-150738095D01*
X121095238Y-150690476D01*
X121000000Y-150595238D01*
X120952381Y-150452380D01*
X120952381Y-150357142D01*
X121000000Y-150214285D01*
X121047619Y-150166666D01*
X121952381Y-149690476D02*
X121952381Y-149500000D01*
X121904762Y-149404761D01*
X121857143Y-149357142D01*
X121714286Y-149261904D01*
X121523810Y-149214285D01*
X121142857Y-149214285D01*
X121047619Y-149261904D01*
X121000000Y-149309523D01*
X120952381Y-149404761D01*
X120952381Y-149595238D01*
X121000000Y-149690476D01*
X121047619Y-149738095D01*
X121142857Y-149785714D01*
X121380952Y-149785714D01*
X121476190Y-149738095D01*
X121523810Y-149690476D01*
X121571429Y-149595238D01*
X121571429Y-149404761D01*
X121523810Y-149309523D01*
X121476190Y-149261904D01*
X121380952Y-149214285D01*
X114357143Y-149642857D02*
X114404762Y-149690476D01*
X114452381Y-149833333D01*
X114452381Y-149928571D01*
X114404762Y-150071429D01*
X114309524Y-150166667D01*
X114214286Y-150214286D01*
X114023810Y-150261905D01*
X113880952Y-150261905D01*
X113690476Y-150214286D01*
X113595238Y-150166667D01*
X113500000Y-150071429D01*
X113452381Y-149928571D01*
X113452381Y-149833333D01*
X113500000Y-149690476D01*
X113547619Y-149642857D01*
X114452381Y-148690476D02*
X114452381Y-149261905D01*
X114452381Y-148976191D02*
X113452381Y-148976191D01*
X113595238Y-149071429D01*
X113690476Y-149166667D01*
X113738095Y-149261905D01*
X113452381Y-148071429D02*
X113452381Y-147976190D01*
X113500000Y-147880952D01*
X113547619Y-147833333D01*
X113642857Y-147785714D01*
X113833333Y-147738095D01*
X114071429Y-147738095D01*
X114261905Y-147785714D01*
X114357143Y-147833333D01*
X114404762Y-147880952D01*
X114452381Y-147976190D01*
X114452381Y-148071429D01*
X114404762Y-148166667D01*
X114357143Y-148214286D01*
X114261905Y-148261905D01*
X114071429Y-148309524D01*
X113833333Y-148309524D01*
X113642857Y-148261905D01*
X113547619Y-148214286D01*
X113500000Y-148166667D01*
X113452381Y-148071429D01*
X126992143Y-133862143D02*
X126944524Y-133909762D01*
X126801667Y-133957381D01*
X126706429Y-133957381D01*
X126563571Y-133909762D01*
X126468333Y-133814524D01*
X126420714Y-133719286D01*
X126373095Y-133528810D01*
X126373095Y-133385952D01*
X126420714Y-133195476D01*
X126468333Y-133100238D01*
X126563571Y-133005000D01*
X126706429Y-132957381D01*
X126801667Y-132957381D01*
X126944524Y-133005000D01*
X126992143Y-133052619D01*
X127944524Y-133957381D02*
X127373095Y-133957381D01*
X127658809Y-133957381D02*
X127658809Y-132957381D01*
X127563571Y-133100238D01*
X127468333Y-133195476D01*
X127373095Y-133243095D01*
X128896905Y-133957381D02*
X128325476Y-133957381D01*
X128611190Y-133957381D02*
X128611190Y-132957381D01*
X128515952Y-133100238D01*
X128420714Y-133195476D01*
X128325476Y-133243095D01*
X111357143Y-178857143D02*
X111309524Y-178904762D01*
X111166667Y-178952381D01*
X111071429Y-178952381D01*
X110928571Y-178904762D01*
X110833333Y-178809524D01*
X110785714Y-178714286D01*
X110738095Y-178523810D01*
X110738095Y-178380952D01*
X110785714Y-178190476D01*
X110833333Y-178095238D01*
X110928571Y-178000000D01*
X111071429Y-177952381D01*
X111166667Y-177952381D01*
X111309524Y-178000000D01*
X111357143Y-178047619D01*
X112309524Y-178952381D02*
X111738095Y-178952381D01*
X112023809Y-178952381D02*
X112023809Y-177952381D01*
X111928571Y-178095238D01*
X111833333Y-178190476D01*
X111738095Y-178238095D01*
X112690476Y-178047619D02*
X112738095Y-178000000D01*
X112833333Y-177952381D01*
X113071429Y-177952381D01*
X113166667Y-178000000D01*
X113214286Y-178047619D01*
X113261905Y-178142857D01*
X113261905Y-178238095D01*
X113214286Y-178380952D01*
X112642857Y-178952381D01*
X113261905Y-178952381D01*
X143357143Y-155857143D02*
X143309524Y-155904762D01*
X143166667Y-155952381D01*
X143071429Y-155952381D01*
X142928571Y-155904762D01*
X142833333Y-155809524D01*
X142785714Y-155714286D01*
X142738095Y-155523810D01*
X142738095Y-155380952D01*
X142785714Y-155190476D01*
X142833333Y-155095238D01*
X142928571Y-155000000D01*
X143071429Y-154952381D01*
X143166667Y-154952381D01*
X143309524Y-155000000D01*
X143357143Y-155047619D01*
X144309524Y-155952381D02*
X143738095Y-155952381D01*
X144023809Y-155952381D02*
X144023809Y-154952381D01*
X143928571Y-155095238D01*
X143833333Y-155190476D01*
X143738095Y-155238095D01*
X144642857Y-154952381D02*
X145261905Y-154952381D01*
X144928571Y-155333333D01*
X145071429Y-155333333D01*
X145166667Y-155380952D01*
X145214286Y-155428571D01*
X145261905Y-155523810D01*
X145261905Y-155761905D01*
X145214286Y-155857143D01*
X145166667Y-155904762D01*
X145071429Y-155952381D01*
X144785714Y-155952381D01*
X144690476Y-155904762D01*
X144642857Y-155857143D01*
X140857143Y-178357143D02*
X140809524Y-178404762D01*
X140666667Y-178452381D01*
X140571429Y-178452381D01*
X140428571Y-178404762D01*
X140333333Y-178309524D01*
X140285714Y-178214286D01*
X140238095Y-178023810D01*
X140238095Y-177880952D01*
X140285714Y-177690476D01*
X140333333Y-177595238D01*
X140428571Y-177500000D01*
X140571429Y-177452381D01*
X140666667Y-177452381D01*
X140809524Y-177500000D01*
X140857143Y-177547619D01*
X141809524Y-178452381D02*
X141238095Y-178452381D01*
X141523809Y-178452381D02*
X141523809Y-177452381D01*
X141428571Y-177595238D01*
X141333333Y-177690476D01*
X141238095Y-177738095D01*
X142666667Y-177785714D02*
X142666667Y-178452381D01*
X142428571Y-177404762D02*
X142190476Y-178119048D01*
X142809524Y-178119048D01*
X150487143Y-144657143D02*
X150439524Y-144704762D01*
X150296667Y-144752381D01*
X150201429Y-144752381D01*
X150058571Y-144704762D01*
X149963333Y-144609524D01*
X149915714Y-144514286D01*
X149868095Y-144323810D01*
X149868095Y-144180952D01*
X149915714Y-143990476D01*
X149963333Y-143895238D01*
X150058571Y-143800000D01*
X150201429Y-143752381D01*
X150296667Y-143752381D01*
X150439524Y-143800000D01*
X150487143Y-143847619D01*
X151439524Y-144752381D02*
X150868095Y-144752381D01*
X151153809Y-144752381D02*
X151153809Y-143752381D01*
X151058571Y-143895238D01*
X150963333Y-143990476D01*
X150868095Y-144038095D01*
X152296667Y-143752381D02*
X152106190Y-143752381D01*
X152010952Y-143800000D01*
X151963333Y-143847619D01*
X151868095Y-143990476D01*
X151820476Y-144180952D01*
X151820476Y-144561905D01*
X151868095Y-144657143D01*
X151915714Y-144704762D01*
X152010952Y-144752381D01*
X152201429Y-144752381D01*
X152296667Y-144704762D01*
X152344286Y-144657143D01*
X152391905Y-144561905D01*
X152391905Y-144323810D01*
X152344286Y-144228571D01*
X152296667Y-144180952D01*
X152201429Y-144133333D01*
X152010952Y-144133333D01*
X151915714Y-144180952D01*
X151868095Y-144228571D01*
X151820476Y-144323810D01*
X114857143Y-178857143D02*
X114809524Y-178904762D01*
X114666667Y-178952381D01*
X114571429Y-178952381D01*
X114428571Y-178904762D01*
X114333333Y-178809524D01*
X114285714Y-178714286D01*
X114238095Y-178523810D01*
X114238095Y-178380952D01*
X114285714Y-178190476D01*
X114333333Y-178095238D01*
X114428571Y-178000000D01*
X114571429Y-177952381D01*
X114666667Y-177952381D01*
X114809524Y-178000000D01*
X114857143Y-178047619D01*
X115809524Y-178952381D02*
X115238095Y-178952381D01*
X115523809Y-178952381D02*
X115523809Y-177952381D01*
X115428571Y-178095238D01*
X115333333Y-178190476D01*
X115238095Y-178238095D01*
X116142857Y-177952381D02*
X116809524Y-177952381D01*
X116380952Y-178952381D01*
X106857143Y-130142857D02*
X106904762Y-130190476D01*
X106952381Y-130333333D01*
X106952381Y-130428571D01*
X106904762Y-130571429D01*
X106809524Y-130666667D01*
X106714286Y-130714286D01*
X106523810Y-130761905D01*
X106380952Y-130761905D01*
X106190476Y-130714286D01*
X106095238Y-130666667D01*
X106000000Y-130571429D01*
X105952381Y-130428571D01*
X105952381Y-130333333D01*
X106000000Y-130190476D01*
X106047619Y-130142857D01*
X106952381Y-129190476D02*
X106952381Y-129761905D01*
X106952381Y-129476191D02*
X105952381Y-129476191D01*
X106095238Y-129571429D01*
X106190476Y-129666667D01*
X106238095Y-129761905D01*
X106380952Y-128619048D02*
X106333333Y-128714286D01*
X106285714Y-128761905D01*
X106190476Y-128809524D01*
X106142857Y-128809524D01*
X106047619Y-128761905D01*
X106000000Y-128714286D01*
X105952381Y-128619048D01*
X105952381Y-128428571D01*
X106000000Y-128333333D01*
X106047619Y-128285714D01*
X106142857Y-128238095D01*
X106190476Y-128238095D01*
X106285714Y-128285714D01*
X106333333Y-128333333D01*
X106380952Y-128428571D01*
X106380952Y-128619048D01*
X106428571Y-128714286D01*
X106476190Y-128761905D01*
X106571429Y-128809524D01*
X106761905Y-128809524D01*
X106857143Y-128761905D01*
X106904762Y-128714286D01*
X106952381Y-128619048D01*
X106952381Y-128428571D01*
X106904762Y-128333333D01*
X106857143Y-128285714D01*
X106761905Y-128238095D01*
X106571429Y-128238095D01*
X106476190Y-128285714D01*
X106428571Y-128333333D01*
X106380952Y-128428571D01*
X102357143Y-178142857D02*
X102404762Y-178190476D01*
X102452381Y-178333333D01*
X102452381Y-178428571D01*
X102404762Y-178571429D01*
X102309524Y-178666667D01*
X102214286Y-178714286D01*
X102023810Y-178761905D01*
X101880952Y-178761905D01*
X101690476Y-178714286D01*
X101595238Y-178666667D01*
X101500000Y-178571429D01*
X101452381Y-178428571D01*
X101452381Y-178333333D01*
X101500000Y-178190476D01*
X101547619Y-178142857D01*
X102452381Y-177190476D02*
X102452381Y-177761905D01*
X102452381Y-177476191D02*
X101452381Y-177476191D01*
X101595238Y-177571429D01*
X101690476Y-177666667D01*
X101738095Y-177761905D01*
X102452381Y-176714286D02*
X102452381Y-176523810D01*
X102404762Y-176428571D01*
X102357143Y-176380952D01*
X102214286Y-176285714D01*
X102023810Y-176238095D01*
X101642857Y-176238095D01*
X101547619Y-176285714D01*
X101500000Y-176333333D01*
X101452381Y-176428571D01*
X101452381Y-176619048D01*
X101500000Y-176714286D01*
X101547619Y-176761905D01*
X101642857Y-176809524D01*
X101880952Y-176809524D01*
X101976190Y-176761905D01*
X102023810Y-176714286D01*
X102071429Y-176619048D01*
X102071429Y-176428571D01*
X102023810Y-176333333D01*
X101976190Y-176285714D01*
X101880952Y-176238095D01*
X116857143Y-136642857D02*
X116904762Y-136690476D01*
X116952381Y-136833333D01*
X116952381Y-136928571D01*
X116904762Y-137071429D01*
X116809524Y-137166667D01*
X116714286Y-137214286D01*
X116523810Y-137261905D01*
X116380952Y-137261905D01*
X116190476Y-137214286D01*
X116095238Y-137166667D01*
X116000000Y-137071429D01*
X115952381Y-136928571D01*
X115952381Y-136833333D01*
X116000000Y-136690476D01*
X116047619Y-136642857D01*
X116047619Y-136261905D02*
X116000000Y-136214286D01*
X115952381Y-136119048D01*
X115952381Y-135880952D01*
X116000000Y-135785714D01*
X116047619Y-135738095D01*
X116142857Y-135690476D01*
X116238095Y-135690476D01*
X116380952Y-135738095D01*
X116952381Y-136309524D01*
X116952381Y-135690476D01*
X115952381Y-135071429D02*
X115952381Y-134976190D01*
X116000000Y-134880952D01*
X116047619Y-134833333D01*
X116142857Y-134785714D01*
X116333333Y-134738095D01*
X116571429Y-134738095D01*
X116761905Y-134785714D01*
X116857143Y-134833333D01*
X116904762Y-134880952D01*
X116952381Y-134976190D01*
X116952381Y-135071429D01*
X116904762Y-135166667D01*
X116857143Y-135214286D01*
X116761905Y-135261905D01*
X116571429Y-135309524D01*
X116333333Y-135309524D01*
X116142857Y-135261905D01*
X116047619Y-135214286D01*
X116000000Y-135166667D01*
X115952381Y-135071429D01*
X117452381Y-105738095D02*
X116452381Y-105738095D01*
X116452381Y-105500000D01*
X116500000Y-105357142D01*
X116595238Y-105261904D01*
X116690476Y-105214285D01*
X116880952Y-105166666D01*
X117023810Y-105166666D01*
X117214286Y-105214285D01*
X117309524Y-105261904D01*
X117404762Y-105357142D01*
X117452381Y-105500000D01*
X117452381Y-105738095D01*
X117452381Y-104214285D02*
X117452381Y-104785714D01*
X117452381Y-104500000D02*
X116452381Y-104500000D01*
X116595238Y-104595238D01*
X116690476Y-104690476D01*
X116738095Y-104785714D01*
X132682381Y-159488095D02*
X131682381Y-159488095D01*
X131682381Y-159250000D01*
X131730000Y-159107142D01*
X131825238Y-159011904D01*
X131920476Y-158964285D01*
X132110952Y-158916666D01*
X132253810Y-158916666D01*
X132444286Y-158964285D01*
X132539524Y-159011904D01*
X132634762Y-159107142D01*
X132682381Y-159250000D01*
X132682381Y-159488095D01*
X131777619Y-158535714D02*
X131730000Y-158488095D01*
X131682381Y-158392857D01*
X131682381Y-158154761D01*
X131730000Y-158059523D01*
X131777619Y-158011904D01*
X131872857Y-157964285D01*
X131968095Y-157964285D01*
X132110952Y-158011904D01*
X132682381Y-158583333D01*
X132682381Y-157964285D01*
X131452381Y-109238095D02*
X130452381Y-109238095D01*
X130452381Y-109000000D01*
X130500000Y-108857142D01*
X130595238Y-108761904D01*
X130690476Y-108714285D01*
X130880952Y-108666666D01*
X131023810Y-108666666D01*
X131214286Y-108714285D01*
X131309524Y-108761904D01*
X131404762Y-108857142D01*
X131452381Y-109000000D01*
X131452381Y-109238095D01*
X130452381Y-108333333D02*
X130452381Y-107714285D01*
X130833333Y-108047619D01*
X130833333Y-107904761D01*
X130880952Y-107809523D01*
X130928571Y-107761904D01*
X131023810Y-107714285D01*
X131261905Y-107714285D01*
X131357143Y-107761904D01*
X131404762Y-107809523D01*
X131452381Y-107904761D01*
X131452381Y-108190476D01*
X131404762Y-108285714D01*
X131357143Y-108333333D01*
X102131905Y-136132381D02*
X102131905Y-135132381D01*
X102512858Y-135132381D01*
X102608096Y-135180000D01*
X102655715Y-135227619D01*
X102703334Y-135322857D01*
X102703334Y-135465714D01*
X102655715Y-135560952D01*
X102608096Y-135608571D01*
X102512858Y-135656190D01*
X102131905Y-135656190D01*
X103655715Y-136132381D02*
X103084286Y-136132381D01*
X103370000Y-136132381D02*
X103370000Y-135132381D01*
X103274762Y-135275238D01*
X103179524Y-135370476D01*
X103084286Y-135418095D01*
X118761905Y-115952381D02*
X118761905Y-114952381D01*
X119142858Y-114952381D01*
X119238096Y-115000000D01*
X119285715Y-115047619D01*
X119333334Y-115142857D01*
X119333334Y-115285714D01*
X119285715Y-115380952D01*
X119238096Y-115428571D01*
X119142858Y-115476190D01*
X118761905Y-115476190D01*
X119714286Y-115047619D02*
X119761905Y-115000000D01*
X119857143Y-114952381D01*
X120095239Y-114952381D01*
X120190477Y-115000000D01*
X120238096Y-115047619D01*
X120285715Y-115142857D01*
X120285715Y-115238095D01*
X120238096Y-115380952D01*
X119666667Y-115952381D01*
X120285715Y-115952381D01*
X109882381Y-97258095D02*
X108882381Y-97258095D01*
X108882381Y-96877142D01*
X108930000Y-96781904D01*
X108977619Y-96734285D01*
X109072857Y-96686666D01*
X109215714Y-96686666D01*
X109310952Y-96734285D01*
X109358571Y-96781904D01*
X109406190Y-96877142D01*
X109406190Y-97258095D01*
X108882381Y-96353333D02*
X108882381Y-95734285D01*
X109263333Y-96067619D01*
X109263333Y-95924761D01*
X109310952Y-95829523D01*
X109358571Y-95781904D01*
X109453810Y-95734285D01*
X109691905Y-95734285D01*
X109787143Y-95781904D01*
X109834762Y-95829523D01*
X109882381Y-95924761D01*
X109882381Y-96210476D01*
X109834762Y-96305714D01*
X109787143Y-96353333D01*
X128174762Y-172247619D02*
X128079524Y-172200000D01*
X127984286Y-172104762D01*
X127841429Y-171961905D01*
X127746190Y-171914286D01*
X127650952Y-171914286D01*
X127698571Y-172152381D02*
X127603333Y-172104762D01*
X127508095Y-172009524D01*
X127460476Y-171819048D01*
X127460476Y-171485714D01*
X127508095Y-171295238D01*
X127603333Y-171200000D01*
X127698571Y-171152381D01*
X127889048Y-171152381D01*
X127984286Y-171200000D01*
X128079524Y-171295238D01*
X128127143Y-171485714D01*
X128127143Y-171819048D01*
X128079524Y-172009524D01*
X127984286Y-172104762D01*
X127889048Y-172152381D01*
X127698571Y-172152381D01*
X129079524Y-172152381D02*
X128508095Y-172152381D01*
X128793809Y-172152381D02*
X128793809Y-171152381D01*
X128698571Y-171295238D01*
X128603333Y-171390476D01*
X128508095Y-171438095D01*
X133404762Y-99547619D02*
X133309524Y-99500000D01*
X133214286Y-99404762D01*
X133071429Y-99261905D01*
X132976190Y-99214286D01*
X132880952Y-99214286D01*
X132928571Y-99452381D02*
X132833333Y-99404762D01*
X132738095Y-99309524D01*
X132690476Y-99119048D01*
X132690476Y-98785714D01*
X132738095Y-98595238D01*
X132833333Y-98500000D01*
X132928571Y-98452381D01*
X133119048Y-98452381D01*
X133214286Y-98500000D01*
X133309524Y-98595238D01*
X133357143Y-98785714D01*
X133357143Y-99119048D01*
X133309524Y-99309524D01*
X133214286Y-99404762D01*
X133119048Y-99452381D01*
X132928571Y-99452381D01*
X133738095Y-98547619D02*
X133785714Y-98500000D01*
X133880952Y-98452381D01*
X134119048Y-98452381D01*
X134214286Y-98500000D01*
X134261905Y-98547619D01*
X134309524Y-98642857D01*
X134309524Y-98738095D01*
X134261905Y-98880952D01*
X133690476Y-99452381D01*
X134309524Y-99452381D01*
X146333334Y-182452381D02*
X146000000Y-181976190D01*
X145761905Y-182452381D02*
X145761905Y-181452381D01*
X146142858Y-181452381D01*
X146238096Y-181500000D01*
X146285715Y-181547619D01*
X146333334Y-181642857D01*
X146333334Y-181785714D01*
X146285715Y-181880952D01*
X146238096Y-181928571D01*
X146142858Y-181976190D01*
X145761905Y-181976190D01*
X147285715Y-182452381D02*
X146714286Y-182452381D01*
X147000000Y-182452381D02*
X147000000Y-181452381D01*
X146904762Y-181595238D01*
X146809524Y-181690476D01*
X146714286Y-181738095D01*
X145833334Y-186452381D02*
X145500000Y-185976190D01*
X145261905Y-186452381D02*
X145261905Y-185452381D01*
X145642858Y-185452381D01*
X145738096Y-185500000D01*
X145785715Y-185547619D01*
X145833334Y-185642857D01*
X145833334Y-185785714D01*
X145785715Y-185880952D01*
X145738096Y-185928571D01*
X145642858Y-185976190D01*
X145261905Y-185976190D01*
X146214286Y-185547619D02*
X146261905Y-185500000D01*
X146357143Y-185452381D01*
X146595239Y-185452381D01*
X146690477Y-185500000D01*
X146738096Y-185547619D01*
X146785715Y-185642857D01*
X146785715Y-185738095D01*
X146738096Y-185880952D01*
X146166667Y-186452381D01*
X146785715Y-186452381D01*
X142833334Y-117452381D02*
X142500000Y-116976190D01*
X142261905Y-117452381D02*
X142261905Y-116452381D01*
X142642858Y-116452381D01*
X142738096Y-116500000D01*
X142785715Y-116547619D01*
X142833334Y-116642857D01*
X142833334Y-116785714D01*
X142785715Y-116880952D01*
X142738096Y-116928571D01*
X142642858Y-116976190D01*
X142261905Y-116976190D01*
X143166667Y-116452381D02*
X143785715Y-116452381D01*
X143452381Y-116833333D01*
X143595239Y-116833333D01*
X143690477Y-116880952D01*
X143738096Y-116928571D01*
X143785715Y-117023810D01*
X143785715Y-117261905D01*
X143738096Y-117357143D01*
X143690477Y-117404762D01*
X143595239Y-117452381D01*
X143309524Y-117452381D01*
X143214286Y-117404762D01*
X143166667Y-117357143D01*
X128952381Y-138166666D02*
X128476190Y-138500000D01*
X128952381Y-138738095D02*
X127952381Y-138738095D01*
X127952381Y-138357142D01*
X128000000Y-138261904D01*
X128047619Y-138214285D01*
X128142857Y-138166666D01*
X128285714Y-138166666D01*
X128380952Y-138214285D01*
X128428571Y-138261904D01*
X128476190Y-138357142D01*
X128476190Y-138738095D01*
X128285714Y-137309523D02*
X128952381Y-137309523D01*
X127904762Y-137547619D02*
X128619048Y-137785714D01*
X128619048Y-137166666D01*
X130833334Y-140452381D02*
X130500000Y-139976190D01*
X130261905Y-140452381D02*
X130261905Y-139452381D01*
X130642858Y-139452381D01*
X130738096Y-139500000D01*
X130785715Y-139547619D01*
X130833334Y-139642857D01*
X130833334Y-139785714D01*
X130785715Y-139880952D01*
X130738096Y-139928571D01*
X130642858Y-139976190D01*
X130261905Y-139976190D01*
X131738096Y-139452381D02*
X131261905Y-139452381D01*
X131214286Y-139928571D01*
X131261905Y-139880952D01*
X131357143Y-139833333D01*
X131595239Y-139833333D01*
X131690477Y-139880952D01*
X131738096Y-139928571D01*
X131785715Y-140023810D01*
X131785715Y-140261905D01*
X131738096Y-140357143D01*
X131690477Y-140404762D01*
X131595239Y-140452381D01*
X131357143Y-140452381D01*
X131261905Y-140404762D01*
X131214286Y-140357143D01*
X141333334Y-186452381D02*
X141000000Y-185976190D01*
X140761905Y-186452381D02*
X140761905Y-185452381D01*
X141142858Y-185452381D01*
X141238096Y-185500000D01*
X141285715Y-185547619D01*
X141333334Y-185642857D01*
X141333334Y-185785714D01*
X141285715Y-185880952D01*
X141238096Y-185928571D01*
X141142858Y-185976190D01*
X140761905Y-185976190D01*
X142190477Y-185452381D02*
X142000000Y-185452381D01*
X141904762Y-185500000D01*
X141857143Y-185547619D01*
X141761905Y-185690476D01*
X141714286Y-185880952D01*
X141714286Y-186261905D01*
X141761905Y-186357143D01*
X141809524Y-186404762D01*
X141904762Y-186452381D01*
X142095239Y-186452381D01*
X142190477Y-186404762D01*
X142238096Y-186357143D01*
X142285715Y-186261905D01*
X142285715Y-186023810D01*
X142238096Y-185928571D01*
X142190477Y-185880952D01*
X142095239Y-185833333D01*
X141904762Y-185833333D01*
X141809524Y-185880952D01*
X141761905Y-185928571D01*
X141714286Y-186023810D01*
X138263334Y-182902381D02*
X137930000Y-182426190D01*
X137691905Y-182902381D02*
X137691905Y-181902381D01*
X138072858Y-181902381D01*
X138168096Y-181950000D01*
X138215715Y-181997619D01*
X138263334Y-182092857D01*
X138263334Y-182235714D01*
X138215715Y-182330952D01*
X138168096Y-182378571D01*
X138072858Y-182426190D01*
X137691905Y-182426190D01*
X138596667Y-181902381D02*
X139263334Y-181902381D01*
X138834762Y-182902381D01*
X139533334Y-148612381D02*
X139200000Y-148136190D01*
X138961905Y-148612381D02*
X138961905Y-147612381D01*
X139342858Y-147612381D01*
X139438096Y-147660000D01*
X139485715Y-147707619D01*
X139533334Y-147802857D01*
X139533334Y-147945714D01*
X139485715Y-148040952D01*
X139438096Y-148088571D01*
X139342858Y-148136190D01*
X138961905Y-148136190D01*
X140104762Y-148040952D02*
X140009524Y-147993333D01*
X139961905Y-147945714D01*
X139914286Y-147850476D01*
X139914286Y-147802857D01*
X139961905Y-147707619D01*
X140009524Y-147660000D01*
X140104762Y-147612381D01*
X140295239Y-147612381D01*
X140390477Y-147660000D01*
X140438096Y-147707619D01*
X140485715Y-147802857D01*
X140485715Y-147850476D01*
X140438096Y-147945714D01*
X140390477Y-147993333D01*
X140295239Y-148040952D01*
X140104762Y-148040952D01*
X140009524Y-148088571D01*
X139961905Y-148136190D01*
X139914286Y-148231429D01*
X139914286Y-148421905D01*
X139961905Y-148517143D01*
X140009524Y-148564762D01*
X140104762Y-148612381D01*
X140295239Y-148612381D01*
X140390477Y-148564762D01*
X140438096Y-148517143D01*
X140485715Y-148421905D01*
X140485715Y-148231429D01*
X140438096Y-148136190D01*
X140390477Y-148088571D01*
X140295239Y-148040952D01*
X147333334Y-142452381D02*
X147000000Y-141976190D01*
X146761905Y-142452381D02*
X146761905Y-141452381D01*
X147142858Y-141452381D01*
X147238096Y-141500000D01*
X147285715Y-141547619D01*
X147333334Y-141642857D01*
X147333334Y-141785714D01*
X147285715Y-141880952D01*
X147238096Y-141928571D01*
X147142858Y-141976190D01*
X146761905Y-141976190D01*
X147809524Y-142452381D02*
X148000000Y-142452381D01*
X148095239Y-142404762D01*
X148142858Y-142357143D01*
X148238096Y-142214286D01*
X148285715Y-142023810D01*
X148285715Y-141642857D01*
X148238096Y-141547619D01*
X148190477Y-141500000D01*
X148095239Y-141452381D01*
X147904762Y-141452381D01*
X147809524Y-141500000D01*
X147761905Y-141547619D01*
X147714286Y-141642857D01*
X147714286Y-141880952D01*
X147761905Y-141976190D01*
X147809524Y-142023810D01*
X147904762Y-142071429D01*
X148095239Y-142071429D01*
X148190477Y-142023810D01*
X148238096Y-141976190D01*
X148285715Y-141880952D01*
X145407143Y-144802381D02*
X145073809Y-144326190D01*
X144835714Y-144802381D02*
X144835714Y-143802381D01*
X145216667Y-143802381D01*
X145311905Y-143850000D01*
X145359524Y-143897619D01*
X145407143Y-143992857D01*
X145407143Y-144135714D01*
X145359524Y-144230952D01*
X145311905Y-144278571D01*
X145216667Y-144326190D01*
X144835714Y-144326190D01*
X146359524Y-144802381D02*
X145788095Y-144802381D01*
X146073809Y-144802381D02*
X146073809Y-143802381D01*
X145978571Y-143945238D01*
X145883333Y-144040476D01*
X145788095Y-144088095D01*
X146978571Y-143802381D02*
X147073810Y-143802381D01*
X147169048Y-143850000D01*
X147216667Y-143897619D01*
X147264286Y-143992857D01*
X147311905Y-144183333D01*
X147311905Y-144421429D01*
X147264286Y-144611905D01*
X147216667Y-144707143D01*
X147169048Y-144754762D01*
X147073810Y-144802381D01*
X146978571Y-144802381D01*
X146883333Y-144754762D01*
X146835714Y-144707143D01*
X146788095Y-144611905D01*
X146740476Y-144421429D01*
X146740476Y-144183333D01*
X146788095Y-143992857D01*
X146835714Y-143897619D01*
X146883333Y-143850000D01*
X146978571Y-143802381D01*
X118357143Y-184952381D02*
X118023809Y-184476190D01*
X117785714Y-184952381D02*
X117785714Y-183952381D01*
X118166667Y-183952381D01*
X118261905Y-184000000D01*
X118309524Y-184047619D01*
X118357143Y-184142857D01*
X118357143Y-184285714D01*
X118309524Y-184380952D01*
X118261905Y-184428571D01*
X118166667Y-184476190D01*
X117785714Y-184476190D01*
X119309524Y-184952381D02*
X118738095Y-184952381D01*
X119023809Y-184952381D02*
X119023809Y-183952381D01*
X118928571Y-184095238D01*
X118833333Y-184190476D01*
X118738095Y-184238095D01*
X120261905Y-184952381D02*
X119690476Y-184952381D01*
X119976190Y-184952381D02*
X119976190Y-183952381D01*
X119880952Y-184095238D01*
X119785714Y-184190476D01*
X119690476Y-184238095D01*
X117857143Y-186952381D02*
X117523809Y-186476190D01*
X117285714Y-186952381D02*
X117285714Y-185952381D01*
X117666667Y-185952381D01*
X117761905Y-186000000D01*
X117809524Y-186047619D01*
X117857143Y-186142857D01*
X117857143Y-186285714D01*
X117809524Y-186380952D01*
X117761905Y-186428571D01*
X117666667Y-186476190D01*
X117285714Y-186476190D01*
X118809524Y-186952381D02*
X118238095Y-186952381D01*
X118523809Y-186952381D02*
X118523809Y-185952381D01*
X118428571Y-186095238D01*
X118333333Y-186190476D01*
X118238095Y-186238095D01*
X119190476Y-186047619D02*
X119238095Y-186000000D01*
X119333333Y-185952381D01*
X119571429Y-185952381D01*
X119666667Y-186000000D01*
X119714286Y-186047619D01*
X119761905Y-186142857D01*
X119761905Y-186238095D01*
X119714286Y-186380952D01*
X119142857Y-186952381D01*
X119761905Y-186952381D01*
X123952381Y-140142857D02*
X123476190Y-140476191D01*
X123952381Y-140714286D02*
X122952381Y-140714286D01*
X122952381Y-140333333D01*
X123000000Y-140238095D01*
X123047619Y-140190476D01*
X123142857Y-140142857D01*
X123285714Y-140142857D01*
X123380952Y-140190476D01*
X123428571Y-140238095D01*
X123476190Y-140333333D01*
X123476190Y-140714286D01*
X123952381Y-139190476D02*
X123952381Y-139761905D01*
X123952381Y-139476191D02*
X122952381Y-139476191D01*
X123095238Y-139571429D01*
X123190476Y-139666667D01*
X123238095Y-139761905D01*
X123285714Y-138333333D02*
X123952381Y-138333333D01*
X122904762Y-138571429D02*
X123619048Y-138809524D01*
X123619048Y-138190476D01*
X116452381Y-144152857D02*
X115976190Y-144486191D01*
X116452381Y-144724286D02*
X115452381Y-144724286D01*
X115452381Y-144343333D01*
X115500000Y-144248095D01*
X115547619Y-144200476D01*
X115642857Y-144152857D01*
X115785714Y-144152857D01*
X115880952Y-144200476D01*
X115928571Y-144248095D01*
X115976190Y-144343333D01*
X115976190Y-144724286D01*
X116452381Y-143200476D02*
X116452381Y-143771905D01*
X116452381Y-143486191D02*
X115452381Y-143486191D01*
X115595238Y-143581429D01*
X115690476Y-143676667D01*
X115738095Y-143771905D01*
X115452381Y-142295714D02*
X115452381Y-142771905D01*
X115928571Y-142819524D01*
X115880952Y-142771905D01*
X115833333Y-142676667D01*
X115833333Y-142438571D01*
X115880952Y-142343333D01*
X115928571Y-142295714D01*
X116023810Y-142248095D01*
X116261905Y-142248095D01*
X116357143Y-142295714D01*
X116404762Y-142343333D01*
X116452381Y-142438571D01*
X116452381Y-142676667D01*
X116404762Y-142771905D01*
X116357143Y-142819524D01*
X101857143Y-186452381D02*
X101523809Y-185976190D01*
X101285714Y-186452381D02*
X101285714Y-185452381D01*
X101666667Y-185452381D01*
X101761905Y-185500000D01*
X101809524Y-185547619D01*
X101857143Y-185642857D01*
X101857143Y-185785714D01*
X101809524Y-185880952D01*
X101761905Y-185928571D01*
X101666667Y-185976190D01*
X101285714Y-185976190D01*
X102809524Y-186452381D02*
X102238095Y-186452381D01*
X102523809Y-186452381D02*
X102523809Y-185452381D01*
X102428571Y-185595238D01*
X102333333Y-185690476D01*
X102238095Y-185738095D01*
X103666667Y-185452381D02*
X103476190Y-185452381D01*
X103380952Y-185500000D01*
X103333333Y-185547619D01*
X103238095Y-185690476D01*
X103190476Y-185880952D01*
X103190476Y-186261905D01*
X103238095Y-186357143D01*
X103285714Y-186404762D01*
X103380952Y-186452381D01*
X103571429Y-186452381D01*
X103666667Y-186404762D01*
X103714286Y-186357143D01*
X103761905Y-186261905D01*
X103761905Y-186023810D01*
X103714286Y-185928571D01*
X103666667Y-185880952D01*
X103571429Y-185833333D01*
X103380952Y-185833333D01*
X103285714Y-185880952D01*
X103238095Y-185928571D01*
X103190476Y-186023810D01*
X117952381Y-139142857D02*
X117476190Y-139476191D01*
X117952381Y-139714286D02*
X116952381Y-139714286D01*
X116952381Y-139333333D01*
X117000000Y-139238095D01*
X117047619Y-139190476D01*
X117142857Y-139142857D01*
X117285714Y-139142857D01*
X117380952Y-139190476D01*
X117428571Y-139238095D01*
X117476190Y-139333333D01*
X117476190Y-139714286D01*
X117952381Y-138190476D02*
X117952381Y-138761905D01*
X117952381Y-138476191D02*
X116952381Y-138476191D01*
X117095238Y-138571429D01*
X117190476Y-138666667D01*
X117238095Y-138761905D01*
X116952381Y-137857143D02*
X116952381Y-137190476D01*
X117952381Y-137619048D01*
X109847143Y-128292381D02*
X109513809Y-127816190D01*
X109275714Y-128292381D02*
X109275714Y-127292381D01*
X109656667Y-127292381D01*
X109751905Y-127340000D01*
X109799524Y-127387619D01*
X109847143Y-127482857D01*
X109847143Y-127625714D01*
X109799524Y-127720952D01*
X109751905Y-127768571D01*
X109656667Y-127816190D01*
X109275714Y-127816190D01*
X110799524Y-128292381D02*
X110228095Y-128292381D01*
X110513809Y-128292381D02*
X110513809Y-127292381D01*
X110418571Y-127435238D01*
X110323333Y-127530476D01*
X110228095Y-127578095D01*
X111275714Y-128292381D02*
X111466190Y-128292381D01*
X111561429Y-128244762D01*
X111609048Y-128197143D01*
X111704286Y-128054286D01*
X111751905Y-127863810D01*
X111751905Y-127482857D01*
X111704286Y-127387619D01*
X111656667Y-127340000D01*
X111561429Y-127292381D01*
X111370952Y-127292381D01*
X111275714Y-127340000D01*
X111228095Y-127387619D01*
X111180476Y-127482857D01*
X111180476Y-127720952D01*
X111228095Y-127816190D01*
X111275714Y-127863810D01*
X111370952Y-127911429D01*
X111561429Y-127911429D01*
X111656667Y-127863810D01*
X111704286Y-127816190D01*
X111751905Y-127720952D01*
X108357143Y-144452381D02*
X108023809Y-143976190D01*
X107785714Y-144452381D02*
X107785714Y-143452381D01*
X108166667Y-143452381D01*
X108261905Y-143500000D01*
X108309524Y-143547619D01*
X108357143Y-143642857D01*
X108357143Y-143785714D01*
X108309524Y-143880952D01*
X108261905Y-143928571D01*
X108166667Y-143976190D01*
X107785714Y-143976190D01*
X108738095Y-143547619D02*
X108785714Y-143500000D01*
X108880952Y-143452381D01*
X109119048Y-143452381D01*
X109214286Y-143500000D01*
X109261905Y-143547619D01*
X109309524Y-143642857D01*
X109309524Y-143738095D01*
X109261905Y-143880952D01*
X108690476Y-144452381D01*
X109309524Y-144452381D01*
X109928571Y-143452381D02*
X110023810Y-143452381D01*
X110119048Y-143500000D01*
X110166667Y-143547619D01*
X110214286Y-143642857D01*
X110261905Y-143833333D01*
X110261905Y-144071429D01*
X110214286Y-144261905D01*
X110166667Y-144357143D01*
X110119048Y-144404762D01*
X110023810Y-144452381D01*
X109928571Y-144452381D01*
X109833333Y-144404762D01*
X109785714Y-144357143D01*
X109738095Y-144261905D01*
X109690476Y-144071429D01*
X109690476Y-143833333D01*
X109738095Y-143642857D01*
X109785714Y-143547619D01*
X109833333Y-143500000D01*
X109928571Y-143452381D01*
X127627143Y-167662381D02*
X127293809Y-167186190D01*
X127055714Y-167662381D02*
X127055714Y-166662381D01*
X127436667Y-166662381D01*
X127531905Y-166710000D01*
X127579524Y-166757619D01*
X127627143Y-166852857D01*
X127627143Y-166995714D01*
X127579524Y-167090952D01*
X127531905Y-167138571D01*
X127436667Y-167186190D01*
X127055714Y-167186190D01*
X128008095Y-166757619D02*
X128055714Y-166710000D01*
X128150952Y-166662381D01*
X128389048Y-166662381D01*
X128484286Y-166710000D01*
X128531905Y-166757619D01*
X128579524Y-166852857D01*
X128579524Y-166948095D01*
X128531905Y-167090952D01*
X127960476Y-167662381D01*
X128579524Y-167662381D01*
X129531905Y-167662381D02*
X128960476Y-167662381D01*
X129246190Y-167662381D02*
X129246190Y-166662381D01*
X129150952Y-166805238D01*
X129055714Y-166900476D01*
X128960476Y-166948095D01*
X126857143Y-99452381D02*
X126523809Y-98976190D01*
X126285714Y-99452381D02*
X126285714Y-98452381D01*
X126666667Y-98452381D01*
X126761905Y-98500000D01*
X126809524Y-98547619D01*
X126857143Y-98642857D01*
X126857143Y-98785714D01*
X126809524Y-98880952D01*
X126761905Y-98928571D01*
X126666667Y-98976190D01*
X126285714Y-98976190D01*
X127238095Y-98547619D02*
X127285714Y-98500000D01*
X127380952Y-98452381D01*
X127619048Y-98452381D01*
X127714286Y-98500000D01*
X127761905Y-98547619D01*
X127809524Y-98642857D01*
X127809524Y-98738095D01*
X127761905Y-98880952D01*
X127190476Y-99452381D01*
X127809524Y-99452381D01*
X128190476Y-98547619D02*
X128238095Y-98500000D01*
X128333333Y-98452381D01*
X128571429Y-98452381D01*
X128666667Y-98500000D01*
X128714286Y-98547619D01*
X128761905Y-98642857D01*
X128761905Y-98738095D01*
X128714286Y-98880952D01*
X128142857Y-99452381D01*
X128761905Y-99452381D01*
X127627143Y-163852381D02*
X127293809Y-163376190D01*
X127055714Y-163852381D02*
X127055714Y-162852381D01*
X127436667Y-162852381D01*
X127531905Y-162900000D01*
X127579524Y-162947619D01*
X127627143Y-163042857D01*
X127627143Y-163185714D01*
X127579524Y-163280952D01*
X127531905Y-163328571D01*
X127436667Y-163376190D01*
X127055714Y-163376190D01*
X128008095Y-162947619D02*
X128055714Y-162900000D01*
X128150952Y-162852381D01*
X128389048Y-162852381D01*
X128484286Y-162900000D01*
X128531905Y-162947619D01*
X128579524Y-163042857D01*
X128579524Y-163138095D01*
X128531905Y-163280952D01*
X127960476Y-163852381D01*
X128579524Y-163852381D01*
X128912857Y-162852381D02*
X129531905Y-162852381D01*
X129198571Y-163233333D01*
X129341429Y-163233333D01*
X129436667Y-163280952D01*
X129484286Y-163328571D01*
X129531905Y-163423810D01*
X129531905Y-163661905D01*
X129484286Y-163757143D01*
X129436667Y-163804762D01*
X129341429Y-163852381D01*
X129055714Y-163852381D01*
X128960476Y-163804762D01*
X128912857Y-163757143D01*
X118357143Y-94952381D02*
X118023809Y-94476190D01*
X117785714Y-94952381D02*
X117785714Y-93952381D01*
X118166667Y-93952381D01*
X118261905Y-94000000D01*
X118309524Y-94047619D01*
X118357143Y-94142857D01*
X118357143Y-94285714D01*
X118309524Y-94380952D01*
X118261905Y-94428571D01*
X118166667Y-94476190D01*
X117785714Y-94476190D01*
X118738095Y-94047619D02*
X118785714Y-94000000D01*
X118880952Y-93952381D01*
X119119048Y-93952381D01*
X119214286Y-94000000D01*
X119261905Y-94047619D01*
X119309524Y-94142857D01*
X119309524Y-94238095D01*
X119261905Y-94380952D01*
X118690476Y-94952381D01*
X119309524Y-94952381D01*
X120166667Y-94285714D02*
X120166667Y-94952381D01*
X119928571Y-93904762D02*
X119690476Y-94619048D01*
X120309524Y-94619048D01*
X118404762Y-151452381D02*
X118071428Y-150976190D01*
X117833333Y-151452381D02*
X117833333Y-150452381D01*
X118214286Y-150452381D01*
X118309524Y-150500000D01*
X118357143Y-150547619D01*
X118404762Y-150642857D01*
X118404762Y-150785714D01*
X118357143Y-150880952D01*
X118309524Y-150928571D01*
X118214286Y-150976190D01*
X117833333Y-150976190D01*
X118690476Y-150452381D02*
X119023809Y-151452381D01*
X119357143Y-150452381D01*
X120214286Y-151452381D02*
X119642857Y-151452381D01*
X119928571Y-151452381D02*
X119928571Y-150452381D01*
X119833333Y-150595238D01*
X119738095Y-150690476D01*
X119642857Y-150738095D01*
X120904762Y-181333333D02*
X120952381Y-181190476D01*
X120952381Y-180952380D01*
X120904762Y-180857142D01*
X120857143Y-180809523D01*
X120761905Y-180761904D01*
X120666667Y-180761904D01*
X120571429Y-180809523D01*
X120523810Y-180857142D01*
X120476190Y-180952380D01*
X120428571Y-181142857D01*
X120380952Y-181238095D01*
X120333333Y-181285714D01*
X120238095Y-181333333D01*
X120142857Y-181333333D01*
X120047619Y-181285714D01*
X120000000Y-181238095D01*
X119952381Y-181142857D01*
X119952381Y-180904761D01*
X120000000Y-180761904D01*
X119952381Y-180428571D02*
X120952381Y-180190476D01*
X120238095Y-179999999D01*
X120952381Y-179809523D01*
X119952381Y-179571428D01*
X120952381Y-178666666D02*
X120952381Y-179238095D01*
X120952381Y-178952381D02*
X119952381Y-178952381D01*
X120095238Y-179047619D01*
X120190476Y-179142857D01*
X120238095Y-179238095D01*
X145666667Y-116024762D02*
X145809524Y-116072381D01*
X146047620Y-116072381D01*
X146142858Y-116024762D01*
X146190477Y-115977143D01*
X146238096Y-115881905D01*
X146238096Y-115786667D01*
X146190477Y-115691429D01*
X146142858Y-115643810D01*
X146047620Y-115596190D01*
X145857143Y-115548571D01*
X145761905Y-115500952D01*
X145714286Y-115453333D01*
X145666667Y-115358095D01*
X145666667Y-115262857D01*
X145714286Y-115167619D01*
X145761905Y-115120000D01*
X145857143Y-115072381D01*
X146095239Y-115072381D01*
X146238096Y-115120000D01*
X146571429Y-115072381D02*
X146809524Y-116072381D01*
X147000001Y-115358095D01*
X147190477Y-116072381D01*
X147428572Y-115072381D01*
X147761905Y-115167619D02*
X147809524Y-115120000D01*
X147904762Y-115072381D01*
X148142858Y-115072381D01*
X148238096Y-115120000D01*
X148285715Y-115167619D01*
X148333334Y-115262857D01*
X148333334Y-115358095D01*
X148285715Y-115500952D01*
X147714286Y-116072381D01*
X148333334Y-116072381D01*
X100666667Y-110904762D02*
X100809524Y-110952381D01*
X101047620Y-110952381D01*
X101142858Y-110904762D01*
X101190477Y-110857143D01*
X101238096Y-110761905D01*
X101238096Y-110666667D01*
X101190477Y-110571429D01*
X101142858Y-110523810D01*
X101047620Y-110476190D01*
X100857143Y-110428571D01*
X100761905Y-110380952D01*
X100714286Y-110333333D01*
X100666667Y-110238095D01*
X100666667Y-110142857D01*
X100714286Y-110047619D01*
X100761905Y-110000000D01*
X100857143Y-109952381D01*
X101095239Y-109952381D01*
X101238096Y-110000000D01*
X101571429Y-109952381D02*
X101809524Y-110952381D01*
X102000001Y-110238095D01*
X102190477Y-110952381D01*
X102428572Y-109952381D01*
X102714286Y-109952381D02*
X103333334Y-109952381D01*
X103000000Y-110333333D01*
X103142858Y-110333333D01*
X103238096Y-110380952D01*
X103285715Y-110428571D01*
X103333334Y-110523810D01*
X103333334Y-110761905D01*
X103285715Y-110857143D01*
X103238096Y-110904762D01*
X103142858Y-110952381D01*
X102857143Y-110952381D01*
X102761905Y-110904762D01*
X102714286Y-110857143D01*
X101738095Y-122452381D02*
X101738095Y-123261905D01*
X101785714Y-123357143D01*
X101833333Y-123404762D01*
X101928571Y-123452381D01*
X102119048Y-123452381D01*
X102214286Y-123404762D01*
X102261905Y-123357143D01*
X102309524Y-123261905D01*
X102309524Y-122452381D01*
X103309524Y-123452381D02*
X102738095Y-123452381D01*
X103023809Y-123452381D02*
X103023809Y-122452381D01*
X102928571Y-122595238D01*
X102833333Y-122690476D01*
X102738095Y-122738095D01*
X133952381Y-147761905D02*
X134761905Y-147761905D01*
X134857143Y-147714286D01*
X134904762Y-147666667D01*
X134952381Y-147571429D01*
X134952381Y-147380952D01*
X134904762Y-147285714D01*
X134857143Y-147238095D01*
X134761905Y-147190476D01*
X133952381Y-147190476D01*
X134047619Y-146761905D02*
X134000000Y-146714286D01*
X133952381Y-146619048D01*
X133952381Y-146380952D01*
X134000000Y-146285714D01*
X134047619Y-146238095D01*
X134142857Y-146190476D01*
X134238095Y-146190476D01*
X134380952Y-146238095D01*
X134952381Y-146809524D01*
X134952381Y-146190476D01*
X100952381Y-155261905D02*
X101761905Y-155261905D01*
X101857143Y-155214286D01*
X101904762Y-155166667D01*
X101952381Y-155071429D01*
X101952381Y-154880952D01*
X101904762Y-154785714D01*
X101857143Y-154738095D01*
X101761905Y-154690476D01*
X100952381Y-154690476D01*
X100952381Y-154309524D02*
X100952381Y-153690476D01*
X101333333Y-154023810D01*
X101333333Y-153880952D01*
X101380952Y-153785714D01*
X101428571Y-153738095D01*
X101523810Y-153690476D01*
X101761905Y-153690476D01*
X101857143Y-153738095D01*
X101904762Y-153785714D01*
X101952381Y-153880952D01*
X101952381Y-154166667D01*
X101904762Y-154261905D01*
X101857143Y-154309524D01*
X153452381Y-153761905D02*
X154261905Y-153761905D01*
X154357143Y-153714286D01*
X154404762Y-153666667D01*
X154452381Y-153571429D01*
X154452381Y-153380952D01*
X154404762Y-153285714D01*
X154357143Y-153238095D01*
X154261905Y-153190476D01*
X153452381Y-153190476D01*
X153785714Y-152285714D02*
X154452381Y-152285714D01*
X153404762Y-152523810D02*
X154119048Y-152761905D01*
X154119048Y-152142857D01*
X105738095Y-185452381D02*
X105738095Y-186261905D01*
X105785714Y-186357143D01*
X105833333Y-186404762D01*
X105928571Y-186452381D01*
X106119048Y-186452381D01*
X106214286Y-186404762D01*
X106261905Y-186357143D01*
X106309524Y-186261905D01*
X106309524Y-185452381D01*
X107261905Y-185452381D02*
X106785714Y-185452381D01*
X106738095Y-185928571D01*
X106785714Y-185880952D01*
X106880952Y-185833333D01*
X107119048Y-185833333D01*
X107214286Y-185880952D01*
X107261905Y-185928571D01*
X107309524Y-186023810D01*
X107309524Y-186261905D01*
X107261905Y-186357143D01*
X107214286Y-186404762D01*
X107119048Y-186452381D01*
X106880952Y-186452381D01*
X106785714Y-186404762D01*
X106738095Y-186357143D01*
X113238095Y-133452381D02*
X113238095Y-134261905D01*
X113285714Y-134357143D01*
X113333333Y-134404762D01*
X113428571Y-134452381D01*
X113619048Y-134452381D01*
X113714286Y-134404762D01*
X113761905Y-134357143D01*
X113809524Y-134261905D01*
X113809524Y-133452381D01*
X114714286Y-133452381D02*
X114523809Y-133452381D01*
X114428571Y-133500000D01*
X114380952Y-133547619D01*
X114285714Y-133690476D01*
X114238095Y-133880952D01*
X114238095Y-134261905D01*
X114285714Y-134357143D01*
X114333333Y-134404762D01*
X114428571Y-134452381D01*
X114619048Y-134452381D01*
X114714286Y-134404762D01*
X114761905Y-134357143D01*
X114809524Y-134261905D01*
X114809524Y-134023810D01*
X114761905Y-133928571D01*
X114714286Y-133880952D01*
X114619048Y-133833333D01*
X114428571Y-133833333D01*
X114333333Y-133880952D01*
X114285714Y-133928571D01*
X114238095Y-134023810D01*
X115452381Y-133261905D02*
X116261905Y-133261905D01*
X116357143Y-133214286D01*
X116404762Y-133166667D01*
X116452381Y-133071429D01*
X116452381Y-132880952D01*
X116404762Y-132785714D01*
X116357143Y-132738095D01*
X116261905Y-132690476D01*
X115452381Y-132690476D01*
X115452381Y-132309524D02*
X115452381Y-131642857D01*
X116452381Y-132071429D01*
M02*
