M48
;DRILL file {KiCad 4.0.1-stable} date 2017年08月20日日曜日 22:05:36
;FORMAT={-:-/ absolute / inch / decimal}
FMAT,2
INCH,TZ
T1C0.016
T2C0.024
T3C0.030
T4C0.031
T5C0.035
T6C0.039
T7C0.043
T8C0.045
T9C0.047
T10C0.059
T11C0.098
T12C0.110
%
G90
G05
M72
T1
X4.15Y-5.65
X4.2Y-7.25
X4.225Y-5.1
X4.35Y-5.325
X4.425Y-5.675
X4.4492Y-4.975
X4.475Y-7.4
X4.5Y-5.1
X4.525Y-4.85
X4.55Y-5.95
X4.6Y-6.15
X4.625Y-3.9
X4.65Y-4.45
X4.65Y-5.375
X4.65Y-5.55
X4.675Y-5.75
X4.7Y-5.325
X4.725Y-7.
X4.75Y-7.2
X4.75Y-7.4
X4.775Y-6.05
X4.8Y-3.925
X4.8Y-4.75
X4.8Y-4.85
X4.8Y-5.35
X4.8Y-6.2
X4.8Y-6.65
X4.8Y-7.325
X4.9Y-5.325
X4.925Y-3.925
X4.925Y-4.075
X4.925Y-4.5
X4.95Y-6.2
X5.Y-4.35
X5.1Y-4.075
X5.125Y-4.825
X5.15Y-5.475
X5.175Y-4.5
X5.2Y-4.725
X5.2Y-6.55
X5.25Y-4.95
X5.3Y-4.5
X5.375Y-5.25
X5.375Y-5.825
X5.4Y-4.025
X5.425Y-4.9
X5.45Y-6.8
X5.6Y-4.25
X5.6Y-4.975
X5.6Y-5.775
X5.6Y-5.825
X5.6Y-6.55
X5.6Y-7.4
X5.65Y-4.025
X5.75Y-5.025
X5.75Y-5.6
X6.Y-5.525
X6.Y-5.675
X6.05Y-5.925
T2
X5.Y-6.9
X5.05Y-3.8
X5.05Y-6.85
X5.1Y-3.75
X5.1Y-6.9
X5.15Y-3.8
T3
X4.15Y-5.45
X4.15Y-5.55
X4.15Y-5.75
X4.15Y-5.85
X4.15Y-5.95
T4
X4.1Y-7.1213
X4.1Y-7.2
X4.35Y-5.7713
X4.35Y-5.85
X4.35Y-6.
X4.35Y-6.0787
X4.9Y-5.7
X4.9Y-6.
X5.Y-5.7
X5.Y-6.
X5.1Y-5.7
X5.1Y-6.
X5.2Y-5.7
X5.2Y-6.
X5.425Y-4.45
X5.4713Y-5.65
X5.5037Y-4.45
X5.55Y-5.65
X5.95Y-7.1213
X5.95Y-7.2
T5
X5.05Y-4.15
X5.05Y-4.25
X5.05Y-6.2
X5.05Y-6.3
T6
X4.05Y-5.05
X4.05Y-5.15
X4.05Y-5.25
X4.4Y-3.8
X4.5Y-3.8
X4.6Y-4.55
X4.6Y-4.65
X4.6Y-4.75
X4.8925Y-4.6331
X5.05Y-4.6331
X5.2075Y-4.6331
T7
X4.6Y-4.
X4.6Y-4.3
T8
X4.1Y-4.75
X4.2Y-4.75
X4.3Y-4.75
T9
X4.675Y-5.65
X4.675Y-5.8469
X4.675Y-6.0437
T10
X4.2126Y-6.25
X4.2126Y-6.8996
X4.4626Y-6.25
X4.4626Y-6.8996
X4.7126Y-6.25
X4.7126Y-6.8996
X4.8925Y-7.1516
X4.8925Y-7.3484
X5.05Y-7.1516
X5.05Y-7.3484
X5.2075Y-7.1516
X5.2075Y-7.3484
X5.3661Y-4.7933
X5.3661Y-5.4429
X5.3661Y-6.25
X5.3661Y-6.8996
X5.6161Y-4.7933
X5.6161Y-5.4429
X5.6161Y-6.25
X5.6161Y-6.8996
X5.8661Y-4.7933
X5.8661Y-5.4429
X5.8661Y-6.25
X5.8661Y-6.8996
T11
X4.1571Y-4.0669
X4.1571Y-4.252
X4.1571Y-4.437
X4.3469Y-4.0669
X4.3469Y-4.252
X4.3469Y-4.437
X5.7874Y-4.0669
X5.7874Y-4.252
X5.7874Y-4.437
T12
X4.7862Y-4.2
X5.3138Y-4.2
T0
M30
