G04 #@! TF.FileFunction,Copper,L2,Bot,Signal*
%FSLAX46Y46*%
G04 Gerber Fmt 4.6, Leading zero omitted, Abs format (unit mm)*
G04 Created by KiCad (PCBNEW 4.0.1-stable) date 2017年08月20日日曜日 22:05:08*
%MOMM*%
G01*
G04 APERTURE LIST*
%ADD10C,0.100000*%
%ADD11C,2.500000*%
%ADD12R,1.600000X1.600000*%
%ADD13C,1.600000*%
%ADD14C,4.000000*%
%ADD15C,2.000000*%
%ADD16R,2.200000X2.200000*%
%ADD17O,2.200000X2.200000*%
%ADD18R,1.800000X1.800000*%
%ADD19C,1.800000*%
%ADD20R,1.700000X1.700000*%
%ADD21O,1.700000X1.700000*%
%ADD22C,1.000000*%
%ADD23R,1.000000X1.000000*%
%ADD24C,3.500000*%
%ADD25O,2.032000X2.540000*%
%ADD26O,1.600000X1.600000*%
%ADD27C,1.524000*%
%ADD28C,0.800000*%
%ADD29C,0.250000*%
%ADD30C,1.000000*%
%ADD31C,0.254000*%
G04 APERTURE END LIST*
D10*
D11*
X136300000Y-121750000D03*
X142650000Y-121750000D03*
X149000000Y-121750000D03*
X136300000Y-138250000D03*
X142650000Y-138250000D03*
X149000000Y-138250000D03*
D12*
X137795000Y-113030000D03*
D13*
X139795000Y-113030000D03*
D14*
X121570000Y-106680000D03*
D15*
X132270000Y-117680000D03*
X128270000Y-117680000D03*
X124270000Y-117680000D03*
D14*
X134970000Y-106680000D03*
D11*
X119700000Y-175250000D03*
X113350000Y-175250000D03*
X107000000Y-175250000D03*
X119700000Y-158750000D03*
X113350000Y-158750000D03*
X107000000Y-158750000D03*
X136300000Y-158750000D03*
X142650000Y-158750000D03*
X149000000Y-158750000D03*
X136300000Y-175250000D03*
X142650000Y-175250000D03*
X149000000Y-175250000D03*
D12*
X140970000Y-143510000D03*
D13*
X138970000Y-143510000D03*
D12*
X151130000Y-182880000D03*
D13*
X151130000Y-180880000D03*
D12*
X110490000Y-152400000D03*
D13*
X110490000Y-154400000D03*
D12*
X110490000Y-148590000D03*
D13*
X110490000Y-146590000D03*
D12*
X104140000Y-182880000D03*
D13*
X104140000Y-180880000D03*
D16*
X116840000Y-109220000D03*
D17*
X116840000Y-101600000D03*
D18*
X128270000Y-157480000D03*
D19*
X128270000Y-160020000D03*
D18*
X128270000Y-107950000D03*
D19*
X128270000Y-105410000D03*
D20*
X102870000Y-133350000D03*
D21*
X102870000Y-130810000D03*
X102870000Y-128270000D03*
D20*
X116840000Y-115570000D03*
D21*
X116840000Y-118110000D03*
X116840000Y-120650000D03*
D20*
X111760000Y-96520000D03*
D21*
X114300000Y-96520000D03*
D22*
X128270000Y-173990000D03*
X129540000Y-175260000D03*
D23*
X127000000Y-175260000D03*
D22*
X129540000Y-95250000D03*
X130810000Y-96520000D03*
D23*
X128270000Y-96520000D03*
D11*
X118745000Y-148510000D03*
X118745000Y-153510000D03*
X118745000Y-143510000D03*
X132270000Y-186650000D03*
X128270000Y-186650000D03*
X124270000Y-186650000D03*
X124270000Y-181650000D03*
X132270000Y-181650000D03*
X128270000Y-181650000D03*
D24*
X147000000Y-103300000D03*
X147000000Y-108000000D03*
X147000000Y-112700000D03*
X110410000Y-103300000D03*
X110410000Y-108000000D03*
X110410000Y-112700000D03*
X105590000Y-103300000D03*
X105590000Y-108000000D03*
X105590000Y-112700000D03*
D25*
X106680000Y-120650000D03*
X109220000Y-120650000D03*
X104140000Y-120650000D03*
D12*
X132080000Y-144780000D03*
D26*
X124460000Y-152400000D03*
X129540000Y-144780000D03*
X127000000Y-152400000D03*
X127000000Y-144780000D03*
X129540000Y-152400000D03*
X124460000Y-144780000D03*
X132080000Y-152400000D03*
D27*
X105410000Y-138430000D03*
X105410000Y-140970000D03*
X105410000Y-146050000D03*
X105410000Y-148590000D03*
X105410000Y-151130000D03*
D28*
X110490000Y-135255000D03*
X120015000Y-177800000D03*
X113665000Y-187960000D03*
X118110000Y-136525000D03*
X146050000Y-127635000D03*
X121285000Y-153670000D03*
X121920000Y-157480000D03*
X125730000Y-157480000D03*
X127000000Y-110490000D03*
X129540000Y-103505000D03*
X134620000Y-114300000D03*
X131445000Y-114300000D03*
X125095000Y-114300000D03*
X146050000Y-142240000D03*
X125095000Y-103505000D03*
X121920000Y-99695000D03*
X113010000Y-126365000D03*
X116840000Y-156210000D03*
X121920000Y-186055000D03*
X121920000Y-168910000D03*
X142240000Y-166370000D03*
X132080000Y-166370000D03*
X118110000Y-113030000D03*
X142240000Y-126365000D03*
X133350000Y-125730000D03*
X137795000Y-124460000D03*
X142240000Y-146685000D03*
X136525000Y-133350000D03*
X124460000Y-135255000D03*
X152400000Y-144145000D03*
X152400000Y-140335000D03*
X118745000Y-146050000D03*
X115570000Y-151130000D03*
X138430000Y-172720000D03*
X120650000Y-182880000D03*
X120650000Y-187960000D03*
X105410000Y-143510000D03*
X125095000Y-99695000D03*
X143510000Y-102235000D03*
X142240000Y-147955000D03*
X136525000Y-147955000D03*
X130810000Y-139065000D03*
X142240000Y-107950000D03*
X132080000Y-120015000D03*
X130175000Y-122555000D03*
X142240000Y-187960000D03*
X118110000Y-140970000D03*
X114300000Y-129540000D03*
X112395000Y-144145000D03*
X107315000Y-129540000D03*
X121920000Y-120650000D03*
X119380000Y-135255000D03*
X106680000Y-184150000D03*
X114935000Y-123190000D03*
X137160000Y-102235000D03*
X153670000Y-150495000D03*
X117475000Y-99060000D03*
X121920000Y-135890000D03*
X121920000Y-123190000D03*
D29*
X103505000Y-103300000D02*
X103075000Y-103300000D01*
X102870000Y-104140000D02*
X102870000Y-114300000D01*
X106680000Y-118110000D02*
X106680000Y-120650000D01*
X102870000Y-114300000D02*
X106680000Y-118110000D01*
X102870000Y-103505000D02*
X102870000Y-104140000D01*
X103075000Y-103300000D02*
X102870000Y-103505000D01*
X110490000Y-135255000D02*
X108585000Y-133350000D01*
X108585000Y-133350000D02*
X108585000Y-122555000D01*
X108585000Y-122555000D02*
X106680000Y-120650000D01*
X113665000Y-187960000D02*
X120015000Y-181610000D01*
X120015000Y-181610000D02*
X120015000Y-177800000D01*
X119380000Y-142240000D02*
X118110000Y-143510000D01*
X119380000Y-137795000D02*
X119380000Y-142240000D01*
X118110000Y-136525000D02*
X119380000Y-137795000D01*
X128270000Y-157480000D02*
X125730000Y-157480000D01*
X121920000Y-154305000D02*
X121285000Y-153670000D01*
X121920000Y-157480000D02*
X121920000Y-154305000D01*
X128270000Y-96520000D02*
X128270000Y-101600000D01*
X125095000Y-112395000D02*
X125095000Y-114300000D01*
X127000000Y-110490000D02*
X125095000Y-112395000D01*
X128270000Y-101600000D02*
X129540000Y-102870000D01*
X129540000Y-102870000D02*
X129540000Y-103505000D01*
X124270000Y-117680000D02*
X124270000Y-115125000D01*
X131445000Y-114300000D02*
X134620000Y-114300000D01*
X124270000Y-115125000D02*
X125095000Y-114300000D01*
X105590000Y-103300000D02*
X103505000Y-103300000D01*
X103505000Y-103300000D02*
X103300000Y-103300000D01*
X146050000Y-142240000D02*
X146050000Y-127635000D01*
X146050000Y-124460000D02*
X148760000Y-121750000D01*
X146050000Y-127635000D02*
X146050000Y-124460000D01*
X148760000Y-121750000D02*
X149000000Y-121750000D01*
D30*
X132270000Y-181650000D02*
X132120000Y-181650000D01*
X132120000Y-181650000D02*
X127000000Y-176530000D01*
X127000000Y-176530000D02*
X127000000Y-175260000D01*
X114300000Y-153035000D02*
X113665000Y-152400000D01*
X113665000Y-152400000D02*
X114300000Y-151765000D01*
X125095000Y-103505000D02*
X125095000Y-102870000D01*
X124460000Y-102235000D02*
X125095000Y-102870000D01*
X121920000Y-99695000D02*
X124460000Y-102235000D01*
X114300000Y-152400000D02*
X114300000Y-151765000D01*
X114300000Y-151765000D02*
X114300000Y-133350000D01*
X114300000Y-133350000D02*
X113030000Y-132080000D01*
X113030000Y-132080000D02*
X113010000Y-126365000D01*
X121920000Y-168910000D02*
X121920000Y-186055000D01*
X110490000Y-152400000D02*
X114300000Y-152400000D01*
X114300000Y-152400000D02*
X114300000Y-153035000D01*
X114300000Y-153035000D02*
X114300000Y-154940000D01*
X115570000Y-156210000D02*
X116840000Y-156210000D01*
X114300000Y-154940000D02*
X115570000Y-156210000D01*
X116840000Y-163830000D02*
X121920000Y-168910000D01*
X116840000Y-156210000D02*
X116840000Y-163830000D01*
X105410000Y-151130000D02*
X106680000Y-152400000D01*
X106680000Y-152400000D02*
X110490000Y-152400000D01*
X102870000Y-133350000D02*
X102870000Y-137160000D01*
X104140000Y-138430000D02*
X105410000Y-138430000D01*
X102870000Y-137160000D02*
X104140000Y-138430000D01*
D29*
X124460000Y-152400000D02*
X124460000Y-165100000D01*
X151130000Y-182880000D02*
X151130000Y-182880000D01*
X152400000Y-181610000D02*
X151130000Y-182880000D01*
X152400000Y-179070000D02*
X152400000Y-181610000D01*
X152400000Y-167640000D02*
X152400000Y-179070000D01*
X151130000Y-166370000D02*
X152400000Y-167640000D01*
X142240000Y-166370000D02*
X151130000Y-166370000D01*
X125730000Y-166370000D02*
X132080000Y-166370000D01*
X124460000Y-165100000D02*
X125730000Y-166370000D01*
X114300000Y-107315000D02*
X114300000Y-112395000D01*
X112825000Y-103300000D02*
X114300000Y-104775000D01*
X114300000Y-104775000D02*
X114300000Y-107315000D01*
X112825000Y-103300000D02*
X110410000Y-103300000D01*
X114935000Y-113030000D02*
X118110000Y-113030000D01*
X114300000Y-112395000D02*
X114935000Y-113030000D01*
X142650000Y-138250000D02*
X142650000Y-126775000D01*
X142650000Y-126775000D02*
X142240000Y-126365000D01*
X134620000Y-124460000D02*
X133350000Y-125730000D01*
X137795000Y-124460000D02*
X134620000Y-124460000D01*
X132080000Y-144780000D02*
X134620000Y-144780000D01*
X136525000Y-146685000D02*
X142240000Y-146685000D01*
X134620000Y-144780000D02*
X136525000Y-146685000D01*
D30*
X136525000Y-133350000D02*
X134620000Y-135255000D01*
X134620000Y-135255000D02*
X124460000Y-135255000D01*
X124460000Y-135255000D02*
X124460000Y-135255000D01*
X152400000Y-144145000D02*
X152400000Y-140335000D01*
X115570000Y-151130000D02*
X115570000Y-147320000D01*
X118745000Y-146050000D02*
X118745000Y-146050000D01*
X118745000Y-146050000D02*
X116840000Y-146050000D01*
X116840000Y-146050000D02*
X115570000Y-147320000D01*
X110490000Y-146590000D02*
X108490000Y-146590000D01*
X108490000Y-146590000D02*
X107950000Y-146050000D01*
X107950000Y-146050000D02*
X105410000Y-146050000D01*
D29*
X151130000Y-135890000D02*
X149860000Y-134620000D01*
X149860000Y-124460000D02*
X151130000Y-123190000D01*
X149860000Y-134620000D02*
X149860000Y-124460000D01*
X151130000Y-139065000D02*
X150495000Y-139700000D01*
X150495000Y-155575000D02*
X151130000Y-156210000D01*
X150495000Y-139700000D02*
X150495000Y-155575000D01*
X147000000Y-112700000D02*
X147000000Y-112710000D01*
X147000000Y-112710000D02*
X151130000Y-116840000D01*
X151130000Y-116840000D02*
X151130000Y-123190000D01*
X138430000Y-163830000D02*
X138430000Y-172720000D01*
X139700000Y-162560000D02*
X138430000Y-163830000D01*
X149860000Y-162560000D02*
X139700000Y-162560000D01*
X151130000Y-161290000D02*
X149860000Y-162560000D01*
X151130000Y-135890000D02*
X151130000Y-139065000D01*
X151130000Y-156210000D02*
X151130000Y-161290000D01*
X138970000Y-143510000D02*
X138970000Y-125190000D01*
X138970000Y-125190000D02*
X142410000Y-121750000D01*
X142410000Y-121750000D02*
X142650000Y-121750000D01*
X120650000Y-187960000D02*
X120650000Y-182880000D01*
X119700000Y-175250000D02*
X116850000Y-175250000D01*
X105410000Y-182880000D02*
X104140000Y-182880000D01*
X106680000Y-181610000D02*
X105410000Y-182880000D01*
X106680000Y-179070000D02*
X106680000Y-181610000D01*
X107950000Y-177800000D02*
X106680000Y-179070000D01*
X114300000Y-177800000D02*
X107950000Y-177800000D01*
X116850000Y-175250000D02*
X114300000Y-177800000D01*
X102870000Y-158115000D02*
X102870000Y-170815000D01*
X105410000Y-143510000D02*
X104140000Y-143510000D01*
X104140000Y-143510000D02*
X102870000Y-144780000D01*
X102870000Y-144780000D02*
X102870000Y-158115000D01*
X104140000Y-172085000D02*
X104140000Y-180880000D01*
X102870000Y-170815000D02*
X104140000Y-172085000D01*
X130810000Y-96520000D02*
X130810000Y-105410000D01*
X130810000Y-105410000D02*
X128270000Y-107950000D01*
X128270000Y-102870000D02*
X128270000Y-105410000D01*
X125095000Y-99695000D02*
X128270000Y-102870000D01*
D30*
X144780000Y-156210000D02*
X142650000Y-158340000D01*
X144780000Y-142240000D02*
X144780000Y-156210000D01*
X144780000Y-119380000D02*
X144780000Y-142240000D01*
X143510000Y-118110000D02*
X144780000Y-119380000D01*
X143510000Y-102235000D02*
X143510000Y-118110000D01*
X142650000Y-158340000D02*
X142650000Y-158750000D01*
X142650000Y-158340000D02*
X142650000Y-158750000D01*
D29*
X136525000Y-147955000D02*
X142240000Y-147955000D01*
X127254000Y-150876000D02*
X126746000Y-150876000D01*
X123825000Y-137160000D02*
X123190000Y-136525000D01*
X123190000Y-136525000D02*
X123190000Y-123190000D01*
X123190000Y-123190000D02*
X123190000Y-120650000D01*
X118110000Y-119380000D02*
X116840000Y-120650000D01*
X121920000Y-119380000D02*
X118110000Y-119380000D01*
X123190000Y-120650000D02*
X121920000Y-119380000D01*
X123825000Y-138430000D02*
X123825000Y-137160000D01*
X128270000Y-149860000D02*
X128270000Y-142875000D01*
X128270000Y-142875000D02*
X123825000Y-138430000D01*
X127000000Y-151130000D02*
X127254000Y-150876000D01*
X127254000Y-150876000D02*
X128270000Y-149860000D01*
X123190000Y-123190000D02*
X123190000Y-122555000D01*
X129540000Y-152400000D02*
X127000000Y-152400000D01*
X127000000Y-152400000D02*
X127000000Y-151130000D01*
X127000000Y-151130000D02*
X126746000Y-150876000D01*
X126746000Y-150876000D02*
X125730000Y-149860000D01*
X121920000Y-149860000D02*
X118270000Y-153510000D01*
X125730000Y-149860000D02*
X121920000Y-149860000D01*
X118270000Y-153510000D02*
X118110000Y-153510000D01*
X130810000Y-139065000D02*
X130810000Y-162560000D01*
X130810000Y-162560000D02*
X132080000Y-163830000D01*
X132080000Y-163830000D02*
X133350000Y-165100000D01*
X133350000Y-165100000D02*
X133350000Y-172720000D01*
X132080000Y-173990000D02*
X128270000Y-173990000D01*
X133350000Y-172720000D02*
X132080000Y-173990000D01*
X133350000Y-172720000D02*
X133350000Y-172720000D01*
X142240000Y-118110000D02*
X142240000Y-107950000D01*
X140970000Y-119380000D02*
X142240000Y-118110000D01*
X132715000Y-119380000D02*
X140970000Y-119380000D01*
X132080000Y-120015000D02*
X132715000Y-119380000D01*
X131445000Y-95250000D02*
X132080000Y-95885000D01*
X132080000Y-95885000D02*
X132080000Y-110490000D01*
X132080000Y-110490000D02*
X130175000Y-112395000D01*
X130175000Y-112395000D02*
X130175000Y-122555000D01*
X131445000Y-95250000D02*
X129540000Y-95250000D01*
X128270000Y-181650000D02*
X128310000Y-181650000D01*
X128310000Y-181650000D02*
X130810000Y-184150000D01*
X142240000Y-186690000D02*
X142240000Y-187960000D01*
X140970000Y-185420000D02*
X142240000Y-186690000D01*
X134620000Y-185420000D02*
X140970000Y-185420000D01*
X133350000Y-184150000D02*
X134620000Y-185420000D01*
X130810000Y-184150000D02*
X133350000Y-184150000D01*
X114300000Y-132080000D02*
X115570000Y-133350000D01*
X116840000Y-139700000D02*
X118110000Y-140970000D01*
X116840000Y-134620000D02*
X116840000Y-139700000D01*
X115570000Y-133350000D02*
X116840000Y-134620000D01*
X114300000Y-129540000D02*
X114300000Y-132080000D01*
X114300000Y-132080000D02*
X114300000Y-132080000D01*
X114300000Y-132080000D02*
X114300000Y-132080000D01*
X108585000Y-144145000D02*
X112395000Y-144145000D01*
X107315000Y-142875000D02*
X108585000Y-144145000D01*
X107315000Y-137160000D02*
X107315000Y-142875000D01*
X107315000Y-137160000D02*
X107315000Y-137160000D01*
X107315000Y-129540000D02*
X107315000Y-129540000D01*
X107315000Y-129540000D02*
X107315000Y-137160000D01*
X127000000Y-144780000D02*
X127000000Y-147320000D01*
X125810000Y-148510000D02*
X118110000Y-148510000D01*
X127000000Y-147320000D02*
X125810000Y-148510000D01*
X119380000Y-123190000D02*
X121920000Y-120650000D01*
X119380000Y-135255000D02*
X119380000Y-123190000D01*
X128270000Y-118110000D02*
X128270000Y-117680000D01*
X106680000Y-186690000D02*
X106680000Y-184150000D01*
X152400000Y-123190000D02*
X151130000Y-124460000D01*
X151130000Y-134620000D02*
X151765000Y-135255000D01*
X151130000Y-124460000D02*
X151130000Y-134620000D01*
X151765000Y-139700000D02*
X151130000Y-140335000D01*
X151130000Y-154940000D02*
X152400000Y-156210000D01*
X151130000Y-140335000D02*
X151130000Y-154940000D01*
X153670000Y-165100000D02*
X153670000Y-187960000D01*
X153670000Y-187960000D02*
X152400000Y-189230000D01*
X152400000Y-189230000D02*
X107950000Y-189230000D01*
X107950000Y-189230000D02*
X106680000Y-187960000D01*
X106680000Y-187960000D02*
X106680000Y-186690000D01*
X150290000Y-103300000D02*
X147000000Y-103300000D01*
X152400000Y-105410000D02*
X152400000Y-123190000D01*
X151765000Y-135255000D02*
X151765000Y-139700000D01*
X152400000Y-156210000D02*
X152400000Y-163830000D01*
X150290000Y-103300000D02*
X152400000Y-105410000D01*
X152400000Y-163830000D02*
X153670000Y-165100000D01*
X113665000Y-114935000D02*
X113665000Y-114300000D01*
X114935000Y-123190000D02*
X113665000Y-121920000D01*
X113665000Y-116205000D02*
X113665000Y-114935000D01*
X113665000Y-121920000D02*
X113665000Y-116205000D01*
X113665000Y-108585000D02*
X113030000Y-107950000D01*
X113030000Y-107950000D02*
X110460000Y-107950000D01*
X113665000Y-114300000D02*
X113665000Y-108585000D01*
X110460000Y-107950000D02*
X110410000Y-108000000D01*
X138430000Y-102235000D02*
X137160000Y-102235000D01*
X151130000Y-100965000D02*
X140970000Y-100965000D01*
X151765000Y-101600000D02*
X151130000Y-100965000D01*
X153670000Y-103505000D02*
X153670000Y-103505000D01*
X153670000Y-150495000D02*
X153670000Y-127635000D01*
X153670000Y-127635000D02*
X153670000Y-103505000D01*
X153670000Y-103505000D02*
X151765000Y-101600000D01*
X139700000Y-102235000D02*
X138430000Y-102235000D01*
X140970000Y-100965000D02*
X139700000Y-102235000D01*
X110160000Y-112700000D02*
X107950000Y-110490000D01*
X107950000Y-110490000D02*
X107950000Y-99695000D01*
X107950000Y-99695000D02*
X108585000Y-99060000D01*
X108585000Y-99060000D02*
X117475000Y-99060000D01*
X110410000Y-112700000D02*
X110160000Y-112700000D01*
X121920000Y-123190000D02*
X121920000Y-135890000D01*
D31*
G36*
X147569000Y-100000000D02*
X147601808Y-100164937D01*
X147695237Y-100304763D01*
X147835063Y-100398192D01*
X148000000Y-100431000D01*
X154569000Y-100431000D01*
X154569000Y-189569000D01*
X152776592Y-189569000D01*
X154027796Y-188317796D01*
X154137483Y-188153638D01*
X154176000Y-187960000D01*
X154176000Y-165100000D01*
X154137483Y-164906362D01*
X154027796Y-164742204D01*
X152906000Y-163620408D01*
X152906000Y-156210000D01*
X152867483Y-156016362D01*
X152757796Y-155852204D01*
X151636000Y-154730408D01*
X151636000Y-144556881D01*
X151777039Y-144767961D01*
X152062856Y-144958938D01*
X152400000Y-145026000D01*
X152737144Y-144958938D01*
X153022961Y-144767961D01*
X153164000Y-144556881D01*
X153164000Y-149896579D01*
X153008286Y-150052021D01*
X152889136Y-150338968D01*
X152888864Y-150649669D01*
X153007514Y-150936823D01*
X153227021Y-151156714D01*
X153513968Y-151275864D01*
X153824669Y-151276136D01*
X154111823Y-151157486D01*
X154331714Y-150937979D01*
X154450864Y-150651032D01*
X154451136Y-150340331D01*
X154332486Y-150053177D01*
X154176000Y-149896417D01*
X154176000Y-103505000D01*
X154137483Y-103311362D01*
X154027796Y-103147204D01*
X151487796Y-100607204D01*
X151323638Y-100497517D01*
X151130000Y-100459000D01*
X140970000Y-100459000D01*
X140776362Y-100497517D01*
X140612204Y-100607204D01*
X139490408Y-101729000D01*
X137758421Y-101729000D01*
X137602979Y-101573286D01*
X137316032Y-101454136D01*
X137005331Y-101453864D01*
X136718177Y-101572514D01*
X136498286Y-101792021D01*
X136379136Y-102078968D01*
X136378864Y-102389669D01*
X136497514Y-102676823D01*
X136717021Y-102896714D01*
X137003968Y-103015864D01*
X137314669Y-103016136D01*
X137601823Y-102897486D01*
X137758583Y-102741000D01*
X139700000Y-102741000D01*
X139893638Y-102702483D01*
X140057796Y-102592796D01*
X141179592Y-101471000D01*
X143098119Y-101471000D01*
X142887039Y-101612039D01*
X142696062Y-101897856D01*
X142629000Y-102235000D01*
X142629000Y-107265872D01*
X142396032Y-107169136D01*
X142085331Y-107168864D01*
X141798177Y-107287514D01*
X141578286Y-107507021D01*
X141459136Y-107793968D01*
X141458864Y-108104669D01*
X141577514Y-108391823D01*
X141734000Y-108548583D01*
X141734000Y-117900408D01*
X140760408Y-118874000D01*
X132996645Y-118874000D01*
X133051251Y-118851437D01*
X133440072Y-118463295D01*
X133650759Y-117955903D01*
X133651239Y-117406507D01*
X133441437Y-116898749D01*
X133053295Y-116509928D01*
X132545903Y-116299241D01*
X131996507Y-116298761D01*
X131488749Y-116508563D01*
X131099928Y-116896705D01*
X130889241Y-117404097D01*
X130888761Y-117953493D01*
X131098563Y-118461251D01*
X131486705Y-118850072D01*
X131994097Y-119060759D01*
X132318366Y-119061042D01*
X132145351Y-119234057D01*
X131925331Y-119233864D01*
X131638177Y-119352514D01*
X131418286Y-119572021D01*
X131299136Y-119858968D01*
X131298864Y-120169669D01*
X131417514Y-120456823D01*
X131637021Y-120676714D01*
X131923968Y-120795864D01*
X132234669Y-120796136D01*
X132521823Y-120677486D01*
X132741714Y-120457979D01*
X132860864Y-120171032D01*
X132861058Y-119949534D01*
X132924592Y-119886000D01*
X140970000Y-119886000D01*
X141163638Y-119847483D01*
X141327796Y-119737796D01*
X142597796Y-118467796D01*
X142676685Y-118349730D01*
X142696062Y-118447144D01*
X142887039Y-118732961D01*
X143899000Y-119744922D01*
X143899000Y-120692584D01*
X143575093Y-120368112D01*
X142975849Y-120119284D01*
X142326997Y-120118718D01*
X141727320Y-120366499D01*
X141268112Y-120824907D01*
X141019284Y-121424151D01*
X141018718Y-122073003D01*
X141121837Y-122322571D01*
X138612204Y-124832204D01*
X138502517Y-124996362D01*
X138464000Y-125190000D01*
X138464000Y-142441231D01*
X138301891Y-142508213D01*
X137969381Y-142840144D01*
X137789206Y-143274054D01*
X137788796Y-143743885D01*
X137968213Y-144178109D01*
X138300144Y-144510619D01*
X138734054Y-144690794D01*
X139203885Y-144691204D01*
X139638109Y-144511787D01*
X139790820Y-144359342D01*
X139808103Y-144451190D01*
X139891546Y-144580865D01*
X140018866Y-144667859D01*
X140170000Y-144698464D01*
X141770000Y-144698464D01*
X141911190Y-144671897D01*
X142040865Y-144588454D01*
X142127859Y-144461134D01*
X142158464Y-144310000D01*
X142158464Y-142710000D01*
X142131897Y-142568810D01*
X142048454Y-142439135D01*
X141921134Y-142352141D01*
X141770000Y-142321536D01*
X140170000Y-142321536D01*
X140028810Y-142348103D01*
X139899135Y-142431546D01*
X139812141Y-142558866D01*
X139791417Y-142661206D01*
X139639856Y-142509381D01*
X139476000Y-142441342D01*
X139476000Y-125399592D01*
X141738189Y-123137403D01*
X142324151Y-123380716D01*
X142973003Y-123381282D01*
X143572680Y-123133501D01*
X143899000Y-122807749D01*
X143899000Y-137192584D01*
X143575093Y-136868112D01*
X143156000Y-136694089D01*
X143156000Y-126775000D01*
X143117483Y-126581362D01*
X143020938Y-126436872D01*
X143021136Y-126210331D01*
X142902486Y-125923177D01*
X142682979Y-125703286D01*
X142396032Y-125584136D01*
X142085331Y-125583864D01*
X141798177Y-125702514D01*
X141578286Y-125922021D01*
X141459136Y-126208968D01*
X141458864Y-126519669D01*
X141577514Y-126806823D01*
X141797021Y-127026714D01*
X142083968Y-127145864D01*
X142144000Y-127145917D01*
X142144000Y-136694331D01*
X141727320Y-136866499D01*
X141268112Y-137324907D01*
X141019284Y-137924151D01*
X141018718Y-138573003D01*
X141266499Y-139172680D01*
X141724907Y-139631888D01*
X142324151Y-139880716D01*
X142973003Y-139881282D01*
X143572680Y-139633501D01*
X143899000Y-139307749D01*
X143899000Y-155845078D01*
X142625100Y-157118978D01*
X142326997Y-157118718D01*
X141727320Y-157366499D01*
X141268112Y-157824907D01*
X141019284Y-158424151D01*
X141018718Y-159073003D01*
X141266499Y-159672680D01*
X141724907Y-160131888D01*
X142324151Y-160380716D01*
X142973003Y-160381282D01*
X143572680Y-160133501D01*
X143622948Y-160083320D01*
X147846285Y-160083320D01*
X147975533Y-160376123D01*
X148675806Y-160644388D01*
X149425435Y-160624250D01*
X150024467Y-160376123D01*
X150153715Y-160083320D01*
X149000000Y-158929605D01*
X147846285Y-160083320D01*
X143622948Y-160083320D01*
X144031888Y-159675093D01*
X144280716Y-159075849D01*
X144281282Y-158426997D01*
X144280790Y-158425806D01*
X147105612Y-158425806D01*
X147125750Y-159175435D01*
X147373877Y-159774467D01*
X147666680Y-159903715D01*
X148820395Y-158750000D01*
X147666680Y-157596285D01*
X147373877Y-157725533D01*
X147105612Y-158425806D01*
X144280790Y-158425806D01*
X144143174Y-158092748D01*
X144819242Y-157416680D01*
X147846285Y-157416680D01*
X149000000Y-158570395D01*
X150153715Y-157416680D01*
X150024467Y-157123877D01*
X149324194Y-156855612D01*
X148574565Y-156875750D01*
X147975533Y-157123877D01*
X147846285Y-157416680D01*
X144819242Y-157416680D01*
X145402961Y-156832961D01*
X145593938Y-156547144D01*
X145661000Y-156210000D01*
X145661000Y-123083320D01*
X147846285Y-123083320D01*
X147975533Y-123376123D01*
X148675806Y-123644388D01*
X149425435Y-123624250D01*
X150024467Y-123376123D01*
X150153715Y-123083320D01*
X149000000Y-121929605D01*
X147846285Y-123083320D01*
X145661000Y-123083320D01*
X145661000Y-121425806D01*
X147105612Y-121425806D01*
X147125750Y-122175435D01*
X147373877Y-122774467D01*
X147666680Y-122903715D01*
X148820395Y-121750000D01*
X147666680Y-120596285D01*
X147373877Y-120725533D01*
X147105612Y-121425806D01*
X145661000Y-121425806D01*
X145661000Y-120416680D01*
X147846285Y-120416680D01*
X149000000Y-121570395D01*
X150153715Y-120416680D01*
X150024467Y-120123877D01*
X149324194Y-119855612D01*
X148574565Y-119875750D01*
X147975533Y-120123877D01*
X147846285Y-120416680D01*
X145661000Y-120416680D01*
X145661000Y-119380000D01*
X145593938Y-119042856D01*
X145402961Y-118757039D01*
X144391000Y-117745078D01*
X144391000Y-108422022D01*
X144868631Y-108422022D01*
X145192373Y-109205538D01*
X145791309Y-109805521D01*
X146574258Y-110130630D01*
X147422022Y-110131369D01*
X148205538Y-109807627D01*
X148805521Y-109208691D01*
X149130630Y-108425742D01*
X149131369Y-107577978D01*
X148807627Y-106794462D01*
X148208691Y-106194479D01*
X147425742Y-105869370D01*
X146577978Y-105868631D01*
X145794462Y-106192373D01*
X145194479Y-106791309D01*
X144869370Y-107574258D01*
X144868631Y-108422022D01*
X144391000Y-108422022D01*
X144391000Y-102235000D01*
X144323938Y-101897856D01*
X144132961Y-101612039D01*
X143921881Y-101471000D01*
X145846189Y-101471000D01*
X145794462Y-101492373D01*
X145194479Y-102091309D01*
X144869370Y-102874258D01*
X144868631Y-103722022D01*
X145192373Y-104505538D01*
X145791309Y-105105521D01*
X146574258Y-105430630D01*
X147422022Y-105431369D01*
X148205538Y-105107627D01*
X148805521Y-104508691D01*
X149097304Y-103806000D01*
X150080408Y-103806000D01*
X151894000Y-105619592D01*
X151894000Y-122980408D01*
X151623980Y-123250428D01*
X151636000Y-123190000D01*
X151636000Y-116840000D01*
X151597483Y-116646362D01*
X151487796Y-116482204D01*
X148837432Y-113831840D01*
X149130630Y-113125742D01*
X149131369Y-112277978D01*
X148807627Y-111494462D01*
X148208691Y-110894479D01*
X147425742Y-110569370D01*
X146577978Y-110568631D01*
X145794462Y-110892373D01*
X145194479Y-111491309D01*
X144869370Y-112274258D01*
X144868631Y-113122022D01*
X145192373Y-113905538D01*
X145791309Y-114505521D01*
X146574258Y-114830630D01*
X147422022Y-114831369D01*
X148118145Y-114543737D01*
X150624000Y-117049592D01*
X150624000Y-120724596D01*
X150333320Y-120596285D01*
X149179605Y-121750000D01*
X150333320Y-122903715D01*
X150624000Y-122775404D01*
X150624000Y-122980408D01*
X149502204Y-124102204D01*
X149392517Y-124266362D01*
X149354000Y-124460000D01*
X149354000Y-134620000D01*
X149392517Y-134813638D01*
X149502204Y-134977796D01*
X150624000Y-136099592D01*
X150624000Y-137909373D01*
X150383501Y-137327320D01*
X149925093Y-136868112D01*
X149325849Y-136619284D01*
X148676997Y-136618718D01*
X148077320Y-136866499D01*
X147618112Y-137324907D01*
X147369284Y-137924151D01*
X147368718Y-138573003D01*
X147616499Y-139172680D01*
X148074907Y-139631888D01*
X148674151Y-139880716D01*
X149323003Y-139881282D01*
X149922680Y-139633501D01*
X150021936Y-139534418D01*
X149989000Y-139700000D01*
X149989000Y-155575000D01*
X150027517Y-155768638D01*
X150137204Y-155932796D01*
X150624000Y-156419592D01*
X150624000Y-157724596D01*
X150333320Y-157596285D01*
X149179605Y-158750000D01*
X150333320Y-159903715D01*
X150624000Y-159775404D01*
X150624000Y-161080408D01*
X149650408Y-162054000D01*
X139700000Y-162054000D01*
X139506362Y-162092517D01*
X139342204Y-162202204D01*
X138072204Y-163472204D01*
X137962517Y-163636362D01*
X137924000Y-163830000D01*
X137924000Y-172121579D01*
X137768286Y-172277021D01*
X137649136Y-172563968D01*
X137648864Y-172874669D01*
X137767514Y-173161823D01*
X137987021Y-173381714D01*
X138273968Y-173500864D01*
X138584669Y-173501136D01*
X138871823Y-173382486D01*
X139091714Y-173162979D01*
X139210864Y-172876032D01*
X139211136Y-172565331D01*
X139092486Y-172278177D01*
X138936000Y-172121417D01*
X138936000Y-166524669D01*
X141458864Y-166524669D01*
X141577514Y-166811823D01*
X141797021Y-167031714D01*
X142083968Y-167150864D01*
X142394669Y-167151136D01*
X142681823Y-167032486D01*
X142838583Y-166876000D01*
X150920408Y-166876000D01*
X151894000Y-167849592D01*
X151894000Y-179973689D01*
X151799856Y-179879381D01*
X151365946Y-179699206D01*
X150896115Y-179698796D01*
X150461891Y-179878213D01*
X150129381Y-180210144D01*
X149949206Y-180644054D01*
X149948796Y-181113885D01*
X150128213Y-181548109D01*
X150280658Y-181700820D01*
X150188810Y-181718103D01*
X150059135Y-181801546D01*
X149972141Y-181928866D01*
X149941536Y-182080000D01*
X149941536Y-183680000D01*
X149968103Y-183821190D01*
X150051546Y-183950865D01*
X150178866Y-184037859D01*
X150330000Y-184068464D01*
X151930000Y-184068464D01*
X152071190Y-184041897D01*
X152200865Y-183958454D01*
X152287859Y-183831134D01*
X152318464Y-183680000D01*
X152318464Y-182407128D01*
X152757796Y-181967796D01*
X152867483Y-181803638D01*
X152906000Y-181610000D01*
X152906000Y-167640000D01*
X152867483Y-167446362D01*
X152757796Y-167282204D01*
X151487796Y-166012204D01*
X151323638Y-165902517D01*
X151130000Y-165864000D01*
X142838421Y-165864000D01*
X142682979Y-165708286D01*
X142396032Y-165589136D01*
X142085331Y-165588864D01*
X141798177Y-165707514D01*
X141578286Y-165927021D01*
X141459136Y-166213968D01*
X141458864Y-166524669D01*
X138936000Y-166524669D01*
X138936000Y-164039592D01*
X139909592Y-163066000D01*
X149860000Y-163066000D01*
X150053638Y-163027483D01*
X150217796Y-162917796D01*
X151487796Y-161647796D01*
X151597483Y-161483638D01*
X151636000Y-161290000D01*
X151636000Y-156210000D01*
X151623980Y-156149572D01*
X151894000Y-156419592D01*
X151894000Y-163830000D01*
X151932517Y-164023638D01*
X152042204Y-164187796D01*
X153164000Y-165309592D01*
X153164000Y-187750408D01*
X152190408Y-188724000D01*
X142436141Y-188724000D01*
X142681823Y-188622486D01*
X142901714Y-188402979D01*
X143020864Y-188116032D01*
X143021136Y-187805331D01*
X142902486Y-187518177D01*
X142746000Y-187361417D01*
X142746000Y-186690000D01*
X142707483Y-186496362D01*
X142597796Y-186332204D01*
X141327796Y-185062204D01*
X141163638Y-184952517D01*
X140970000Y-184914000D01*
X134829592Y-184914000D01*
X133707796Y-183792204D01*
X133543638Y-183682517D01*
X133350000Y-183644000D01*
X131019592Y-183644000D01*
X130358912Y-182983320D01*
X131116285Y-182983320D01*
X131245533Y-183276123D01*
X131945806Y-183544388D01*
X132695435Y-183524250D01*
X133294467Y-183276123D01*
X133423715Y-182983320D01*
X132270000Y-181829605D01*
X131116285Y-182983320D01*
X130358912Y-182983320D01*
X129739556Y-182363964D01*
X129900716Y-181975849D01*
X129901282Y-181326997D01*
X129900790Y-181325806D01*
X130375612Y-181325806D01*
X130395750Y-182075435D01*
X130643877Y-182674467D01*
X130936680Y-182803715D01*
X132090395Y-181650000D01*
X132449605Y-181650000D01*
X133603320Y-182803715D01*
X133896123Y-182674467D01*
X134164388Y-181974194D01*
X134144250Y-181224565D01*
X133896123Y-180625533D01*
X133603320Y-180496285D01*
X132449605Y-181650000D01*
X132090395Y-181650000D01*
X130936680Y-180496285D01*
X130643877Y-180625533D01*
X130375612Y-181325806D01*
X129900790Y-181325806D01*
X129653501Y-180727320D01*
X129243577Y-180316680D01*
X131116285Y-180316680D01*
X132270000Y-181470395D01*
X133423715Y-180316680D01*
X133294467Y-180023877D01*
X132594194Y-179755612D01*
X131844565Y-179775750D01*
X131245533Y-180023877D01*
X131116285Y-180316680D01*
X129243577Y-180316680D01*
X129195093Y-180268112D01*
X128595849Y-180019284D01*
X127946997Y-180018718D01*
X127347320Y-180266499D01*
X126888112Y-180724907D01*
X126639284Y-181324151D01*
X126638718Y-181973003D01*
X126886499Y-182572680D01*
X127344907Y-183031888D01*
X127944151Y-183280716D01*
X128593003Y-183281282D01*
X129040704Y-183096296D01*
X130452204Y-184507796D01*
X130616362Y-184617483D01*
X130810000Y-184656000D01*
X133140408Y-184656000D01*
X134262204Y-185777796D01*
X134426362Y-185887483D01*
X134620000Y-185926000D01*
X140760408Y-185926000D01*
X141734000Y-186899592D01*
X141734000Y-187361579D01*
X141578286Y-187517021D01*
X141459136Y-187803968D01*
X141458864Y-188114669D01*
X141577514Y-188401823D01*
X141797021Y-188621714D01*
X142043355Y-188724000D01*
X120846141Y-188724000D01*
X121091823Y-188622486D01*
X121311714Y-188402979D01*
X121430864Y-188116032D01*
X121431136Y-187805331D01*
X121312486Y-187518177D01*
X121156000Y-187361417D01*
X121156000Y-186466881D01*
X121297039Y-186677961D01*
X121582856Y-186868938D01*
X121920000Y-186936000D01*
X122257144Y-186868938D01*
X122542961Y-186677961D01*
X122639101Y-186534078D01*
X122638718Y-186973003D01*
X122886499Y-187572680D01*
X123344907Y-188031888D01*
X123944151Y-188280716D01*
X124593003Y-188281282D01*
X125192680Y-188033501D01*
X125651888Y-187575093D01*
X125900716Y-186975849D01*
X125900718Y-186973003D01*
X126638718Y-186973003D01*
X126886499Y-187572680D01*
X127344907Y-188031888D01*
X127944151Y-188280716D01*
X128593003Y-188281282D01*
X129192680Y-188033501D01*
X129651888Y-187575093D01*
X129900716Y-186975849D01*
X129900718Y-186973003D01*
X130638718Y-186973003D01*
X130886499Y-187572680D01*
X131344907Y-188031888D01*
X131944151Y-188280716D01*
X132593003Y-188281282D01*
X133192680Y-188033501D01*
X133651888Y-187575093D01*
X133900716Y-186975849D01*
X133901282Y-186326997D01*
X133653501Y-185727320D01*
X133195093Y-185268112D01*
X132595849Y-185019284D01*
X131946997Y-185018718D01*
X131347320Y-185266499D01*
X130888112Y-185724907D01*
X130639284Y-186324151D01*
X130638718Y-186973003D01*
X129900718Y-186973003D01*
X129901282Y-186326997D01*
X129653501Y-185727320D01*
X129195093Y-185268112D01*
X128595849Y-185019284D01*
X127946997Y-185018718D01*
X127347320Y-185266499D01*
X126888112Y-185724907D01*
X126639284Y-186324151D01*
X126638718Y-186973003D01*
X125900718Y-186973003D01*
X125901282Y-186326997D01*
X125653501Y-185727320D01*
X125195093Y-185268112D01*
X124595849Y-185019284D01*
X123946997Y-185018718D01*
X123347320Y-185266499D01*
X122888112Y-185724907D01*
X122801000Y-185934696D01*
X122801000Y-182365756D01*
X122886499Y-182572680D01*
X123344907Y-183031888D01*
X123944151Y-183280716D01*
X124593003Y-183281282D01*
X125192680Y-183033501D01*
X125651888Y-182575093D01*
X125900716Y-181975849D01*
X125901282Y-181326997D01*
X125653501Y-180727320D01*
X125195093Y-180268112D01*
X124595849Y-180019284D01*
X123946997Y-180018718D01*
X123347320Y-180266499D01*
X122888112Y-180724907D01*
X122801000Y-180934696D01*
X122801000Y-175545750D01*
X125865000Y-175545750D01*
X125865000Y-175886309D01*
X125961673Y-176119698D01*
X126140301Y-176298327D01*
X126373690Y-176395000D01*
X126714250Y-176395000D01*
X126873000Y-176236250D01*
X126873000Y-175387000D01*
X127127000Y-175387000D01*
X127127000Y-176236250D01*
X127285750Y-176395000D01*
X127626310Y-176395000D01*
X127859699Y-176298327D01*
X128038327Y-176119698D01*
X128135000Y-175886309D01*
X128135000Y-175545750D01*
X127976250Y-175387000D01*
X127127000Y-175387000D01*
X126873000Y-175387000D01*
X126023750Y-175387000D01*
X125865000Y-175545750D01*
X122801000Y-175545750D01*
X122801000Y-174633691D01*
X125865000Y-174633691D01*
X125865000Y-174974250D01*
X126023750Y-175133000D01*
X126873000Y-175133000D01*
X126873000Y-174283750D01*
X126714250Y-174125000D01*
X126373690Y-174125000D01*
X126140301Y-174221673D01*
X125961673Y-174400302D01*
X125865000Y-174633691D01*
X122801000Y-174633691D01*
X122801000Y-168910000D01*
X122733938Y-168572856D01*
X122542961Y-168287039D01*
X117721000Y-163465078D01*
X117721000Y-159073003D01*
X118068718Y-159073003D01*
X118316499Y-159672680D01*
X118774907Y-160131888D01*
X119374151Y-160380716D01*
X120023003Y-160381282D01*
X120622680Y-160133501D01*
X121081888Y-159675093D01*
X121330716Y-159075849D01*
X121331282Y-158426997D01*
X121083501Y-157827320D01*
X120625093Y-157368112D01*
X120025849Y-157119284D01*
X119376997Y-157118718D01*
X118777320Y-157366499D01*
X118318112Y-157824907D01*
X118069284Y-158424151D01*
X118068718Y-159073003D01*
X117721000Y-159073003D01*
X117721000Y-156210000D01*
X117653938Y-155872856D01*
X117462961Y-155587039D01*
X117177144Y-155396062D01*
X116840000Y-155329000D01*
X115934922Y-155329000D01*
X115181000Y-154575078D01*
X115181000Y-151909289D01*
X115232856Y-151943938D01*
X115570000Y-152011000D01*
X115907144Y-151943938D01*
X116192961Y-151752961D01*
X116383938Y-151467144D01*
X116451000Y-151130000D01*
X116451000Y-147684922D01*
X117204922Y-146931000D01*
X118295465Y-146931000D01*
X117822320Y-147126499D01*
X117363112Y-147584907D01*
X117114284Y-148184151D01*
X117113718Y-148833003D01*
X117361499Y-149432680D01*
X117819907Y-149891888D01*
X118419151Y-150140716D01*
X119068003Y-150141282D01*
X119667680Y-149893501D01*
X120126888Y-149435093D01*
X120300911Y-149016000D01*
X125810000Y-149016000D01*
X126003638Y-148977483D01*
X126167796Y-148867796D01*
X127357796Y-147677796D01*
X127467483Y-147513638D01*
X127506000Y-147320000D01*
X127506000Y-145858123D01*
X127764000Y-145685733D01*
X127764000Y-149650408D01*
X127044408Y-150370000D01*
X126955592Y-150370000D01*
X126087796Y-149502204D01*
X125923638Y-149392517D01*
X125730000Y-149354000D01*
X121920000Y-149354000D01*
X121726362Y-149392517D01*
X121662643Y-149435093D01*
X121562204Y-149502204D01*
X119151595Y-151912813D01*
X119070849Y-151879284D01*
X118421997Y-151878718D01*
X117822320Y-152126499D01*
X117363112Y-152584907D01*
X117114284Y-153184151D01*
X117113718Y-153833003D01*
X117361499Y-154432680D01*
X117819907Y-154891888D01*
X118419151Y-155140716D01*
X119068003Y-155141282D01*
X119667680Y-154893501D01*
X120126888Y-154435093D01*
X120375716Y-153835849D01*
X120376282Y-153186997D01*
X120128501Y-152587320D01*
X120018483Y-152477109D01*
X122129592Y-150366000D01*
X125520408Y-150366000D01*
X126483381Y-151328973D01*
X126164907Y-151541770D01*
X125908898Y-151924914D01*
X125819000Y-152376863D01*
X125819000Y-152423137D01*
X125908898Y-152875086D01*
X126164907Y-153258230D01*
X126548051Y-153514239D01*
X127000000Y-153604137D01*
X127451949Y-153514239D01*
X127835093Y-153258230D01*
X128070446Y-152906000D01*
X128469554Y-152906000D01*
X128704907Y-153258230D01*
X129088051Y-153514239D01*
X129540000Y-153604137D01*
X129991949Y-153514239D01*
X130304000Y-153305733D01*
X130304000Y-162560000D01*
X130342517Y-162753638D01*
X130452204Y-162917796D01*
X132844000Y-165309592D01*
X132844000Y-166173859D01*
X132742486Y-165928177D01*
X132522979Y-165708286D01*
X132236032Y-165589136D01*
X131925331Y-165588864D01*
X131638177Y-165707514D01*
X131481417Y-165864000D01*
X125939592Y-165864000D01*
X124966000Y-164890408D01*
X124966000Y-157765750D01*
X126735000Y-157765750D01*
X126735000Y-158506309D01*
X126831673Y-158739698D01*
X127010301Y-158918327D01*
X127243690Y-159015000D01*
X127463566Y-159015000D01*
X127184655Y-159293425D01*
X126989223Y-159764076D01*
X126988778Y-160273689D01*
X127183388Y-160744680D01*
X127543425Y-161105345D01*
X128014076Y-161300777D01*
X128523689Y-161301222D01*
X128994680Y-161106612D01*
X129355345Y-160746575D01*
X129550777Y-160275924D01*
X129551222Y-159766311D01*
X129356612Y-159295320D01*
X129076780Y-159015000D01*
X129296310Y-159015000D01*
X129529699Y-158918327D01*
X129708327Y-158739698D01*
X129805000Y-158506309D01*
X129805000Y-157765750D01*
X129646250Y-157607000D01*
X128397000Y-157607000D01*
X128397000Y-157627000D01*
X128143000Y-157627000D01*
X128143000Y-157607000D01*
X126893750Y-157607000D01*
X126735000Y-157765750D01*
X124966000Y-157765750D01*
X124966000Y-156453691D01*
X126735000Y-156453691D01*
X126735000Y-157194250D01*
X126893750Y-157353000D01*
X128143000Y-157353000D01*
X128143000Y-156103750D01*
X128397000Y-156103750D01*
X128397000Y-157353000D01*
X129646250Y-157353000D01*
X129805000Y-157194250D01*
X129805000Y-156453691D01*
X129708327Y-156220302D01*
X129529699Y-156041673D01*
X129296310Y-155945000D01*
X128555750Y-155945000D01*
X128397000Y-156103750D01*
X128143000Y-156103750D01*
X127984250Y-155945000D01*
X127243690Y-155945000D01*
X127010301Y-156041673D01*
X126831673Y-156220302D01*
X126735000Y-156453691D01*
X124966000Y-156453691D01*
X124966000Y-153478123D01*
X125295093Y-153258230D01*
X125551102Y-152875086D01*
X125641000Y-152423137D01*
X125641000Y-152376863D01*
X125551102Y-151924914D01*
X125295093Y-151541770D01*
X124911949Y-151285761D01*
X124460000Y-151195863D01*
X124008051Y-151285761D01*
X123624907Y-151541770D01*
X123368898Y-151924914D01*
X123279000Y-152376863D01*
X123279000Y-152423137D01*
X123368898Y-152875086D01*
X123624907Y-153258230D01*
X123954000Y-153478123D01*
X123954000Y-165100000D01*
X123992517Y-165293638D01*
X124102204Y-165457796D01*
X125372204Y-166727796D01*
X125536362Y-166837483D01*
X125730000Y-166876000D01*
X131481579Y-166876000D01*
X131637021Y-167031714D01*
X131923968Y-167150864D01*
X132234669Y-167151136D01*
X132521823Y-167032486D01*
X132741714Y-166812979D01*
X132844000Y-166566645D01*
X132844000Y-172510408D01*
X131870408Y-173484000D01*
X129009719Y-173484000D01*
X128769698Y-173243560D01*
X128446011Y-173109153D01*
X128095527Y-173108847D01*
X127771605Y-173242689D01*
X127523560Y-173490302D01*
X127389153Y-173813989D01*
X127388881Y-174125000D01*
X127285750Y-174125000D01*
X127127000Y-174283750D01*
X127127000Y-175133000D01*
X127976250Y-175133000D01*
X128135000Y-174974250D01*
X128135000Y-174870883D01*
X128444473Y-174871153D01*
X128768395Y-174737311D01*
X129010127Y-174496000D01*
X129081995Y-174496000D01*
X129041605Y-174512689D01*
X128793560Y-174760302D01*
X128659153Y-175083989D01*
X128658847Y-175434473D01*
X128792689Y-175758395D01*
X129040302Y-176006440D01*
X129363989Y-176140847D01*
X129714473Y-176141153D01*
X130038395Y-176007311D01*
X130286440Y-175759698D01*
X130363962Y-175573003D01*
X134668718Y-175573003D01*
X134916499Y-176172680D01*
X135374907Y-176631888D01*
X135974151Y-176880716D01*
X136623003Y-176881282D01*
X137222680Y-176633501D01*
X137681888Y-176175093D01*
X137930716Y-175575849D01*
X137930718Y-175573003D01*
X141018718Y-175573003D01*
X141266499Y-176172680D01*
X141724907Y-176631888D01*
X142324151Y-176880716D01*
X142973003Y-176881282D01*
X143572680Y-176633501D01*
X144031888Y-176175093D01*
X144280716Y-175575849D01*
X144280718Y-175573003D01*
X147368718Y-175573003D01*
X147616499Y-176172680D01*
X148074907Y-176631888D01*
X148674151Y-176880716D01*
X149323003Y-176881282D01*
X149922680Y-176633501D01*
X150381888Y-176175093D01*
X150630716Y-175575849D01*
X150631282Y-174926997D01*
X150383501Y-174327320D01*
X149925093Y-173868112D01*
X149325849Y-173619284D01*
X148676997Y-173618718D01*
X148077320Y-173866499D01*
X147618112Y-174324907D01*
X147369284Y-174924151D01*
X147368718Y-175573003D01*
X144280718Y-175573003D01*
X144281282Y-174926997D01*
X144033501Y-174327320D01*
X143575093Y-173868112D01*
X142975849Y-173619284D01*
X142326997Y-173618718D01*
X141727320Y-173866499D01*
X141268112Y-174324907D01*
X141019284Y-174924151D01*
X141018718Y-175573003D01*
X137930718Y-175573003D01*
X137931282Y-174926997D01*
X137683501Y-174327320D01*
X137225093Y-173868112D01*
X136625849Y-173619284D01*
X135976997Y-173618718D01*
X135377320Y-173866499D01*
X134918112Y-174324907D01*
X134669284Y-174924151D01*
X134668718Y-175573003D01*
X130363962Y-175573003D01*
X130420847Y-175436011D01*
X130421153Y-175085527D01*
X130287311Y-174761605D01*
X130039698Y-174513560D01*
X129997409Y-174496000D01*
X132080000Y-174496000D01*
X132273638Y-174457483D01*
X132437796Y-174347796D01*
X133707796Y-173077796D01*
X133817483Y-172913638D01*
X133856000Y-172720000D01*
X133856000Y-165100000D01*
X133817483Y-164906362D01*
X133707796Y-164742204D01*
X131316000Y-162350408D01*
X131316000Y-159073003D01*
X134668718Y-159073003D01*
X134916499Y-159672680D01*
X135374907Y-160131888D01*
X135974151Y-160380716D01*
X136623003Y-160381282D01*
X137222680Y-160133501D01*
X137681888Y-159675093D01*
X137930716Y-159075849D01*
X137931282Y-158426997D01*
X137683501Y-157827320D01*
X137225093Y-157368112D01*
X136625849Y-157119284D01*
X135976997Y-157118718D01*
X135377320Y-157366499D01*
X134918112Y-157824907D01*
X134669284Y-158424151D01*
X134668718Y-159073003D01*
X131316000Y-159073003D01*
X131316000Y-153305733D01*
X131628051Y-153514239D01*
X132080000Y-153604137D01*
X132531949Y-153514239D01*
X132915093Y-153258230D01*
X133171102Y-152875086D01*
X133261000Y-152423137D01*
X133261000Y-152376863D01*
X133171102Y-151924914D01*
X132915093Y-151541770D01*
X132531949Y-151285761D01*
X132080000Y-151195863D01*
X131628051Y-151285761D01*
X131316000Y-151494267D01*
X131316000Y-145968464D01*
X132880000Y-145968464D01*
X133021190Y-145941897D01*
X133150865Y-145858454D01*
X133237859Y-145731134D01*
X133268464Y-145580000D01*
X133268464Y-145286000D01*
X134410408Y-145286000D01*
X136167204Y-147042796D01*
X136331362Y-147152483D01*
X136439154Y-147173924D01*
X136370331Y-147173864D01*
X136083177Y-147292514D01*
X135863286Y-147512021D01*
X135744136Y-147798968D01*
X135743864Y-148109669D01*
X135862514Y-148396823D01*
X136082021Y-148616714D01*
X136368968Y-148735864D01*
X136679669Y-148736136D01*
X136966823Y-148617486D01*
X137123583Y-148461000D01*
X141641579Y-148461000D01*
X141797021Y-148616714D01*
X142083968Y-148735864D01*
X142394669Y-148736136D01*
X142681823Y-148617486D01*
X142901714Y-148397979D01*
X143020864Y-148111032D01*
X143021136Y-147800331D01*
X142902486Y-147513177D01*
X142709502Y-147319855D01*
X142901714Y-147127979D01*
X143020864Y-146841032D01*
X143021136Y-146530331D01*
X142902486Y-146243177D01*
X142682979Y-146023286D01*
X142396032Y-145904136D01*
X142085331Y-145903864D01*
X141798177Y-146022514D01*
X141641417Y-146179000D01*
X136734592Y-146179000D01*
X134977796Y-144422204D01*
X134813638Y-144312517D01*
X134620000Y-144274000D01*
X133268464Y-144274000D01*
X133268464Y-143980000D01*
X133241897Y-143838810D01*
X133158454Y-143709135D01*
X133031134Y-143622141D01*
X132880000Y-143591536D01*
X131316000Y-143591536D01*
X131316000Y-139663421D01*
X131471714Y-139507979D01*
X131590864Y-139221032D01*
X131591136Y-138910331D01*
X131472486Y-138623177D01*
X131422400Y-138573003D01*
X134668718Y-138573003D01*
X134916499Y-139172680D01*
X135374907Y-139631888D01*
X135974151Y-139880716D01*
X136623003Y-139881282D01*
X137222680Y-139633501D01*
X137681888Y-139175093D01*
X137930716Y-138575849D01*
X137931282Y-137926997D01*
X137683501Y-137327320D01*
X137225093Y-136868112D01*
X136625849Y-136619284D01*
X135976997Y-136618718D01*
X135377320Y-136866499D01*
X134918112Y-137324907D01*
X134669284Y-137924151D01*
X134668718Y-138573003D01*
X131422400Y-138573003D01*
X131252979Y-138403286D01*
X130966032Y-138284136D01*
X130655331Y-138283864D01*
X130368177Y-138402514D01*
X130148286Y-138622021D01*
X130029136Y-138908968D01*
X130028864Y-139219669D01*
X130147514Y-139506823D01*
X130304000Y-139663583D01*
X130304000Y-143874267D01*
X129991949Y-143665761D01*
X129540000Y-143575863D01*
X129088051Y-143665761D01*
X128776000Y-143874267D01*
X128776000Y-142875000D01*
X128737483Y-142681362D01*
X128627796Y-142517204D01*
X124331000Y-138220408D01*
X124331000Y-137160000D01*
X124292483Y-136966362D01*
X124182796Y-136802204D01*
X123696000Y-136315408D01*
X123696000Y-135666881D01*
X123837039Y-135877961D01*
X124122856Y-136068938D01*
X124460000Y-136136000D01*
X134620000Y-136136000D01*
X134957144Y-136068938D01*
X135242961Y-135877961D01*
X137147961Y-133972961D01*
X137338938Y-133687144D01*
X137406000Y-133350000D01*
X137338938Y-133012856D01*
X137147961Y-132727039D01*
X136862144Y-132536062D01*
X136525000Y-132469000D01*
X136187856Y-132536062D01*
X135902039Y-132727039D01*
X134255078Y-134374000D01*
X124460000Y-134374000D01*
X124122856Y-134441062D01*
X123837039Y-134632039D01*
X123696000Y-134843119D01*
X123696000Y-125884669D01*
X132568864Y-125884669D01*
X132687514Y-126171823D01*
X132907021Y-126391714D01*
X133193968Y-126510864D01*
X133504669Y-126511136D01*
X133791823Y-126392486D01*
X134011714Y-126172979D01*
X134130864Y-125886032D01*
X134131058Y-125664534D01*
X134829592Y-124966000D01*
X137196579Y-124966000D01*
X137352021Y-125121714D01*
X137638968Y-125240864D01*
X137949669Y-125241136D01*
X138236823Y-125122486D01*
X138456714Y-124902979D01*
X138575864Y-124616032D01*
X138576136Y-124305331D01*
X138457486Y-124018177D01*
X138237979Y-123798286D01*
X137951032Y-123679136D01*
X137640331Y-123678864D01*
X137353177Y-123797514D01*
X137196417Y-123954000D01*
X134620000Y-123954000D01*
X134426362Y-123992517D01*
X134262204Y-124102204D01*
X133415351Y-124949057D01*
X133195331Y-124948864D01*
X132908177Y-125067514D01*
X132688286Y-125287021D01*
X132569136Y-125573968D01*
X132568864Y-125884669D01*
X123696000Y-125884669D01*
X123696000Y-120650000D01*
X123657483Y-120456362D01*
X123547796Y-120292204D01*
X122277796Y-119022204D01*
X122113638Y-118912517D01*
X121920000Y-118874000D01*
X118110000Y-118874000D01*
X117916362Y-118912517D01*
X117752204Y-119022204D01*
X117273898Y-119500510D01*
X116864117Y-119419000D01*
X116815883Y-119419000D01*
X116344800Y-119512704D01*
X115945435Y-119779552D01*
X115678587Y-120178917D01*
X115584883Y-120650000D01*
X115678587Y-121121083D01*
X115945435Y-121520448D01*
X116344800Y-121787296D01*
X116815883Y-121881000D01*
X116864117Y-121881000D01*
X117335200Y-121787296D01*
X117734565Y-121520448D01*
X118001413Y-121121083D01*
X118095117Y-120650000D01*
X118005604Y-120199988D01*
X118319592Y-119886000D01*
X121710408Y-119886000D01*
X121714341Y-119889933D01*
X121478177Y-119987514D01*
X121258286Y-120207021D01*
X121139136Y-120493968D01*
X121138942Y-120715466D01*
X119022204Y-122832204D01*
X118912517Y-122996362D01*
X118874000Y-123190000D01*
X118874000Y-134656579D01*
X118718286Y-134812021D01*
X118599136Y-135098968D01*
X118598864Y-135409669D01*
X118717514Y-135696823D01*
X118937021Y-135916714D01*
X119223968Y-136035864D01*
X119534669Y-136036136D01*
X119821823Y-135917486D01*
X120041714Y-135697979D01*
X120160864Y-135411032D01*
X120161136Y-135100331D01*
X120042486Y-134813177D01*
X119886000Y-134656417D01*
X119886000Y-123399592D01*
X121854649Y-121430943D01*
X122074669Y-121431136D01*
X122361823Y-121312486D01*
X122581714Y-121092979D01*
X122680201Y-120855793D01*
X122684000Y-120859592D01*
X122684000Y-122993859D01*
X122582486Y-122748177D01*
X122362979Y-122528286D01*
X122076032Y-122409136D01*
X121765331Y-122408864D01*
X121478177Y-122527514D01*
X121258286Y-122747021D01*
X121139136Y-123033968D01*
X121138864Y-123344669D01*
X121257514Y-123631823D01*
X121414000Y-123788583D01*
X121414000Y-135291579D01*
X121258286Y-135447021D01*
X121139136Y-135733968D01*
X121138864Y-136044669D01*
X121257514Y-136331823D01*
X121477021Y-136551714D01*
X121763968Y-136670864D01*
X122074669Y-136671136D01*
X122361823Y-136552486D01*
X122581714Y-136332979D01*
X122684000Y-136086645D01*
X122684000Y-136525000D01*
X122722517Y-136718638D01*
X122832204Y-136882796D01*
X123319000Y-137369592D01*
X123319000Y-138430000D01*
X123357517Y-138623638D01*
X123467204Y-138787796D01*
X127764000Y-143084592D01*
X127764000Y-143874267D01*
X127451949Y-143665761D01*
X127000000Y-143575863D01*
X126548051Y-143665761D01*
X126164907Y-143921770D01*
X125908898Y-144304914D01*
X125819000Y-144756863D01*
X125819000Y-144803137D01*
X125908898Y-145255086D01*
X126164907Y-145638230D01*
X126494000Y-145858123D01*
X126494000Y-147110408D01*
X125600408Y-148004000D01*
X120300669Y-148004000D01*
X120128501Y-147587320D01*
X119670093Y-147128112D01*
X119070849Y-146879284D01*
X119005282Y-146879227D01*
X119082144Y-146863938D01*
X119367961Y-146672961D01*
X119558938Y-146387144D01*
X119626000Y-146050000D01*
X119558938Y-145712856D01*
X119367961Y-145427039D01*
X119252839Y-145350117D01*
X119769467Y-145136123D01*
X119898715Y-144843320D01*
X119812258Y-144756863D01*
X123279000Y-144756863D01*
X123279000Y-144803137D01*
X123368898Y-145255086D01*
X123624907Y-145638230D01*
X124008051Y-145894239D01*
X124460000Y-145984137D01*
X124911949Y-145894239D01*
X125295093Y-145638230D01*
X125551102Y-145255086D01*
X125641000Y-144803137D01*
X125641000Y-144756863D01*
X125551102Y-144304914D01*
X125295093Y-143921770D01*
X124911949Y-143665761D01*
X124460000Y-143575863D01*
X124008051Y-143665761D01*
X123624907Y-143921770D01*
X123368898Y-144304914D01*
X123279000Y-144756863D01*
X119812258Y-144756863D01*
X118745000Y-143689605D01*
X117591285Y-144843320D01*
X117720533Y-145136123D01*
X117806354Y-145169000D01*
X116840000Y-145169000D01*
X116502856Y-145236062D01*
X116217039Y-145427039D01*
X115181000Y-146463078D01*
X115181000Y-143185806D01*
X116850612Y-143185806D01*
X116870750Y-143935435D01*
X117118877Y-144534467D01*
X117411680Y-144663715D01*
X118565395Y-143510000D01*
X118924605Y-143510000D01*
X120078320Y-144663715D01*
X120371123Y-144534467D01*
X120639388Y-143834194D01*
X120619250Y-143084565D01*
X120371123Y-142485533D01*
X120078320Y-142356285D01*
X118924605Y-143510000D01*
X118565395Y-143510000D01*
X117411680Y-142356285D01*
X117118877Y-142485533D01*
X116850612Y-143185806D01*
X115181000Y-143185806D01*
X115181000Y-133676592D01*
X116334000Y-134829592D01*
X116334000Y-139700000D01*
X116372517Y-139893638D01*
X116482204Y-140057796D01*
X117329057Y-140904649D01*
X117328864Y-141124669D01*
X117447514Y-141411823D01*
X117667021Y-141631714D01*
X117953968Y-141750864D01*
X118041470Y-141750941D01*
X117720533Y-141883877D01*
X117591285Y-142176680D01*
X118745000Y-143330395D01*
X119898715Y-142176680D01*
X119769467Y-141883877D01*
X119069194Y-141615612D01*
X118554886Y-141629428D01*
X118771714Y-141412979D01*
X118890864Y-141126032D01*
X118891136Y-140815331D01*
X118772486Y-140528177D01*
X118552979Y-140308286D01*
X118266032Y-140189136D01*
X118044534Y-140188942D01*
X117346000Y-139490408D01*
X117346000Y-134620000D01*
X117307483Y-134426362D01*
X117197796Y-134262204D01*
X114806000Y-131870408D01*
X114806000Y-130138421D01*
X114961714Y-129982979D01*
X115080864Y-129696032D01*
X115081136Y-129385331D01*
X114962486Y-129098177D01*
X114742979Y-128878286D01*
X114456032Y-128759136D01*
X114145331Y-128758864D01*
X113899738Y-128860341D01*
X113890995Y-126361917D01*
X113822753Y-126025010D01*
X113630777Y-125739863D01*
X113344294Y-125549887D01*
X113006917Y-125484005D01*
X112670010Y-125552247D01*
X112384863Y-125744223D01*
X112194887Y-126030706D01*
X112129005Y-126368083D01*
X112149005Y-132083083D01*
X112182830Y-132250074D01*
X112216062Y-132417144D01*
X112216935Y-132418451D01*
X112217247Y-132419990D01*
X112312346Y-132561243D01*
X112407039Y-132702961D01*
X113419000Y-133714922D01*
X113419000Y-151400078D01*
X113300078Y-151519000D01*
X111663223Y-151519000D01*
X111651897Y-151458810D01*
X111568454Y-151329135D01*
X111441134Y-151242141D01*
X111290000Y-151211536D01*
X109690000Y-151211536D01*
X109548810Y-151238103D01*
X109419135Y-151321546D01*
X109332141Y-151448866D01*
X109317939Y-151519000D01*
X107044922Y-151519000D01*
X106553090Y-151027168D01*
X106553198Y-150903641D01*
X106379554Y-150483388D01*
X106058303Y-150161577D01*
X105638354Y-149987199D01*
X105444340Y-149987030D01*
X105757368Y-149971362D01*
X106141143Y-149812397D01*
X106210608Y-149570213D01*
X105410000Y-148769605D01*
X104609392Y-149570213D01*
X104678857Y-149812397D01*
X105176258Y-149989852D01*
X104763388Y-150160446D01*
X104441577Y-150481697D01*
X104267199Y-150901646D01*
X104266802Y-151356359D01*
X104440446Y-151776612D01*
X104761697Y-152098423D01*
X105181646Y-152272801D01*
X105306988Y-152272910D01*
X106057039Y-153022961D01*
X106342856Y-153213938D01*
X106680000Y-153281000D01*
X109316777Y-153281000D01*
X109328103Y-153341190D01*
X109388819Y-153435545D01*
X109367378Y-153456986D01*
X109482253Y-153571861D01*
X109236136Y-153645995D01*
X109043035Y-154183223D01*
X109070222Y-154753454D01*
X109236136Y-155154005D01*
X109482255Y-155228139D01*
X110310395Y-154400000D01*
X110296252Y-154385858D01*
X110475858Y-154206252D01*
X110490000Y-154220395D01*
X110504142Y-154206252D01*
X110683748Y-154385858D01*
X110669605Y-154400000D01*
X111497745Y-155228139D01*
X111743864Y-155154005D01*
X111936965Y-154616777D01*
X111909778Y-154046546D01*
X111743864Y-153645995D01*
X111497747Y-153571861D01*
X111612622Y-153456986D01*
X111590588Y-153434952D01*
X111647859Y-153351134D01*
X111662061Y-153281000D01*
X113300078Y-153281000D01*
X113419000Y-153399922D01*
X113419000Y-154940000D01*
X113486062Y-155277144D01*
X113677039Y-155562961D01*
X114947039Y-156832961D01*
X115232856Y-157023938D01*
X115570000Y-157091000D01*
X115959000Y-157091000D01*
X115959000Y-163830000D01*
X116026062Y-164167144D01*
X116217039Y-164452961D01*
X121039000Y-169274922D01*
X121039000Y-174282741D01*
X120625093Y-173868112D01*
X120025849Y-173619284D01*
X119376997Y-173618718D01*
X118777320Y-173866499D01*
X118318112Y-174324907D01*
X118144089Y-174744000D01*
X116850000Y-174744000D01*
X116656362Y-174782517D01*
X116593433Y-174824565D01*
X116492204Y-174892204D01*
X114090408Y-177294000D01*
X107950000Y-177294000D01*
X107756362Y-177332517D01*
X107592204Y-177442204D01*
X106322204Y-178712204D01*
X106212517Y-178876362D01*
X106174000Y-179070000D01*
X106174000Y-181400408D01*
X105328464Y-182245944D01*
X105328464Y-182080000D01*
X105301897Y-181938810D01*
X105218454Y-181809135D01*
X105091134Y-181722141D01*
X104988794Y-181701417D01*
X105140619Y-181549856D01*
X105320794Y-181115946D01*
X105321204Y-180646115D01*
X105141787Y-180211891D01*
X104809856Y-179879381D01*
X104646000Y-179811342D01*
X104646000Y-176583320D01*
X105846285Y-176583320D01*
X105975533Y-176876123D01*
X106675806Y-177144388D01*
X107425435Y-177124250D01*
X108024467Y-176876123D01*
X108153715Y-176583320D01*
X107000000Y-175429605D01*
X105846285Y-176583320D01*
X104646000Y-176583320D01*
X104646000Y-174925806D01*
X105105612Y-174925806D01*
X105125750Y-175675435D01*
X105373877Y-176274467D01*
X105666680Y-176403715D01*
X106820395Y-175250000D01*
X107179605Y-175250000D01*
X108333320Y-176403715D01*
X108626123Y-176274467D01*
X108894388Y-175574194D01*
X108894357Y-175573003D01*
X111718718Y-175573003D01*
X111966499Y-176172680D01*
X112424907Y-176631888D01*
X113024151Y-176880716D01*
X113673003Y-176881282D01*
X114272680Y-176633501D01*
X114731888Y-176175093D01*
X114980716Y-175575849D01*
X114981282Y-174926997D01*
X114733501Y-174327320D01*
X114275093Y-173868112D01*
X113675849Y-173619284D01*
X113026997Y-173618718D01*
X112427320Y-173866499D01*
X111968112Y-174324907D01*
X111719284Y-174924151D01*
X111718718Y-175573003D01*
X108894357Y-175573003D01*
X108874250Y-174824565D01*
X108626123Y-174225533D01*
X108333320Y-174096285D01*
X107179605Y-175250000D01*
X106820395Y-175250000D01*
X105666680Y-174096285D01*
X105373877Y-174225533D01*
X105105612Y-174925806D01*
X104646000Y-174925806D01*
X104646000Y-173916680D01*
X105846285Y-173916680D01*
X107000000Y-175070395D01*
X108153715Y-173916680D01*
X108024467Y-173623877D01*
X107324194Y-173355612D01*
X106574565Y-173375750D01*
X105975533Y-173623877D01*
X105846285Y-173916680D01*
X104646000Y-173916680D01*
X104646000Y-172085000D01*
X104607483Y-171891362D01*
X104497796Y-171727204D01*
X103376000Y-170605408D01*
X103376000Y-159073003D01*
X105368718Y-159073003D01*
X105616499Y-159672680D01*
X106074907Y-160131888D01*
X106674151Y-160380716D01*
X107323003Y-160381282D01*
X107922680Y-160133501D01*
X108381888Y-159675093D01*
X108630716Y-159075849D01*
X108630718Y-159073003D01*
X111718718Y-159073003D01*
X111966499Y-159672680D01*
X112424907Y-160131888D01*
X113024151Y-160380716D01*
X113673003Y-160381282D01*
X114272680Y-160133501D01*
X114731888Y-159675093D01*
X114980716Y-159075849D01*
X114981282Y-158426997D01*
X114733501Y-157827320D01*
X114275093Y-157368112D01*
X113675849Y-157119284D01*
X113026997Y-157118718D01*
X112427320Y-157366499D01*
X111968112Y-157824907D01*
X111719284Y-158424151D01*
X111718718Y-159073003D01*
X108630718Y-159073003D01*
X108631282Y-158426997D01*
X108383501Y-157827320D01*
X107925093Y-157368112D01*
X107325849Y-157119284D01*
X106676997Y-157118718D01*
X106077320Y-157366499D01*
X105618112Y-157824907D01*
X105369284Y-158424151D01*
X105368718Y-159073003D01*
X103376000Y-159073003D01*
X103376000Y-155407745D01*
X109661861Y-155407745D01*
X109735995Y-155653864D01*
X110273223Y-155846965D01*
X110843454Y-155819778D01*
X111244005Y-155653864D01*
X111318139Y-155407745D01*
X110490000Y-154579605D01*
X109661861Y-155407745D01*
X103376000Y-155407745D01*
X103376000Y-148382302D01*
X104000856Y-148382302D01*
X104028638Y-148937368D01*
X104187603Y-149321143D01*
X104429787Y-149390608D01*
X105230395Y-148590000D01*
X105589605Y-148590000D01*
X106390213Y-149390608D01*
X106632397Y-149321143D01*
X106791297Y-148875750D01*
X109055000Y-148875750D01*
X109055000Y-149516309D01*
X109151673Y-149749698D01*
X109330301Y-149928327D01*
X109563690Y-150025000D01*
X110204250Y-150025000D01*
X110363000Y-149866250D01*
X110363000Y-148717000D01*
X110617000Y-148717000D01*
X110617000Y-149866250D01*
X110775750Y-150025000D01*
X111416310Y-150025000D01*
X111649699Y-149928327D01*
X111828327Y-149749698D01*
X111925000Y-149516309D01*
X111925000Y-148875750D01*
X111766250Y-148717000D01*
X110617000Y-148717000D01*
X110363000Y-148717000D01*
X109213750Y-148717000D01*
X109055000Y-148875750D01*
X106791297Y-148875750D01*
X106819144Y-148797698D01*
X106791362Y-148242632D01*
X106632397Y-147858857D01*
X106390213Y-147789392D01*
X105589605Y-148590000D01*
X105230395Y-148590000D01*
X104429787Y-147789392D01*
X104187603Y-147858857D01*
X104000856Y-148382302D01*
X103376000Y-148382302D01*
X103376000Y-146276359D01*
X104266802Y-146276359D01*
X104440446Y-146696612D01*
X104761697Y-147018423D01*
X105181646Y-147192801D01*
X105375660Y-147192970D01*
X105062632Y-147208638D01*
X104678857Y-147367603D01*
X104609392Y-147609787D01*
X105410000Y-148410395D01*
X106210608Y-147609787D01*
X106141143Y-147367603D01*
X105643742Y-147190148D01*
X106056612Y-147019554D01*
X106145320Y-146931000D01*
X107585078Y-146931000D01*
X107867039Y-147212961D01*
X108152856Y-147403938D01*
X108490000Y-147471000D01*
X109134815Y-147471000D01*
X109055000Y-147663691D01*
X109055000Y-148304250D01*
X109213750Y-148463000D01*
X110363000Y-148463000D01*
X110363000Y-148443000D01*
X110617000Y-148443000D01*
X110617000Y-148463000D01*
X111766250Y-148463000D01*
X111925000Y-148304250D01*
X111925000Y-147663691D01*
X111828327Y-147430302D01*
X111649699Y-147251673D01*
X111516864Y-147196651D01*
X111670794Y-146825946D01*
X111671204Y-146356115D01*
X111491787Y-145921891D01*
X111159856Y-145589381D01*
X110725946Y-145409206D01*
X110256115Y-145408796D01*
X109821891Y-145588213D01*
X109700893Y-145709000D01*
X108854922Y-145709000D01*
X108572961Y-145427039D01*
X108287144Y-145236062D01*
X107950000Y-145169000D01*
X106145574Y-145169000D01*
X106058303Y-145081577D01*
X105638354Y-144907199D01*
X105183641Y-144906802D01*
X104763388Y-145080446D01*
X104441577Y-145401697D01*
X104267199Y-145821646D01*
X104266802Y-146276359D01*
X103376000Y-146276359D01*
X103376000Y-144989592D01*
X104349592Y-144016000D01*
X104811579Y-144016000D01*
X104967021Y-144171714D01*
X105253968Y-144290864D01*
X105564669Y-144291136D01*
X105851823Y-144172486D01*
X106071714Y-143952979D01*
X106190864Y-143666032D01*
X106191136Y-143355331D01*
X106072486Y-143068177D01*
X105852979Y-142848286D01*
X105566032Y-142729136D01*
X105255331Y-142728864D01*
X104968177Y-142847514D01*
X104811417Y-143004000D01*
X104140000Y-143004000D01*
X103946362Y-143042517D01*
X103782204Y-143152204D01*
X102512204Y-144422204D01*
X102402517Y-144586362D01*
X102364000Y-144780000D01*
X102364000Y-170815000D01*
X102402517Y-171008638D01*
X102512204Y-171172796D01*
X103634000Y-172294592D01*
X103634000Y-179811231D01*
X103471891Y-179878213D01*
X103139381Y-180210144D01*
X102959206Y-180644054D01*
X102958796Y-181113885D01*
X103138213Y-181548109D01*
X103290658Y-181700820D01*
X103198810Y-181718103D01*
X103069135Y-181801546D01*
X102982141Y-181928866D01*
X102951536Y-182080000D01*
X102951536Y-183680000D01*
X102978103Y-183821190D01*
X103061546Y-183950865D01*
X103188866Y-184037859D01*
X103340000Y-184068464D01*
X104940000Y-184068464D01*
X105081190Y-184041897D01*
X105210865Y-183958454D01*
X105297859Y-183831134D01*
X105328464Y-183680000D01*
X105328464Y-183386000D01*
X105410000Y-183386000D01*
X105603638Y-183347483D01*
X105767796Y-183237796D01*
X107037796Y-181967796D01*
X107147483Y-181803638D01*
X107186000Y-181610000D01*
X107186000Y-179279592D01*
X108159592Y-178306000D01*
X114300000Y-178306000D01*
X114493638Y-178267483D01*
X114657796Y-178157796D01*
X117059592Y-175756000D01*
X118144331Y-175756000D01*
X118316499Y-176172680D01*
X118774907Y-176631888D01*
X119374151Y-176880716D01*
X120023003Y-176881282D01*
X120622680Y-176633501D01*
X121039000Y-176217906D01*
X121039000Y-182195872D01*
X120806032Y-182099136D01*
X120495331Y-182098864D01*
X120208177Y-182217514D01*
X119988286Y-182437021D01*
X119869136Y-182723968D01*
X119868864Y-183034669D01*
X119987514Y-183321823D01*
X120144000Y-183478583D01*
X120144000Y-187361579D01*
X119988286Y-187517021D01*
X119869136Y-187803968D01*
X119868864Y-188114669D01*
X119987514Y-188401823D01*
X120207021Y-188621714D01*
X120453355Y-188724000D01*
X108159592Y-188724000D01*
X107186000Y-187750408D01*
X107186000Y-184748421D01*
X107341714Y-184592979D01*
X107460864Y-184306032D01*
X107461136Y-183995331D01*
X107342486Y-183708177D01*
X107122979Y-183488286D01*
X106836032Y-183369136D01*
X106525331Y-183368864D01*
X106238177Y-183487514D01*
X106018286Y-183707021D01*
X105899136Y-183993968D01*
X105898864Y-184304669D01*
X106017514Y-184591823D01*
X106174000Y-184748583D01*
X106174000Y-187960000D01*
X106212517Y-188153638D01*
X106322204Y-188317796D01*
X107573408Y-189569000D01*
X100431000Y-189569000D01*
X100431000Y-141950213D01*
X104609392Y-141950213D01*
X104678857Y-142192397D01*
X105202302Y-142379144D01*
X105757368Y-142351362D01*
X106141143Y-142192397D01*
X106210608Y-141950213D01*
X105410000Y-141149605D01*
X104609392Y-141950213D01*
X100431000Y-141950213D01*
X100431000Y-140762302D01*
X104000856Y-140762302D01*
X104028638Y-141317368D01*
X104187603Y-141701143D01*
X104429787Y-141770608D01*
X105230395Y-140970000D01*
X105589605Y-140970000D01*
X106390213Y-141770608D01*
X106632397Y-141701143D01*
X106809000Y-141206131D01*
X106809000Y-142875000D01*
X106847517Y-143068638D01*
X106957204Y-143232796D01*
X108227204Y-144502796D01*
X108391362Y-144612483D01*
X108585000Y-144651000D01*
X111796579Y-144651000D01*
X111952021Y-144806714D01*
X112238968Y-144925864D01*
X112549669Y-144926136D01*
X112836823Y-144807486D01*
X113056714Y-144587979D01*
X113175864Y-144301032D01*
X113176136Y-143990331D01*
X113057486Y-143703177D01*
X112837979Y-143483286D01*
X112551032Y-143364136D01*
X112240331Y-143363864D01*
X111953177Y-143482514D01*
X111796417Y-143639000D01*
X108794592Y-143639000D01*
X107821000Y-142665408D01*
X107821000Y-130138421D01*
X107976714Y-129982979D01*
X108095864Y-129696032D01*
X108096136Y-129385331D01*
X107977486Y-129098177D01*
X107757979Y-128878286D01*
X107471032Y-128759136D01*
X107160331Y-128758864D01*
X106873177Y-128877514D01*
X106653286Y-129097021D01*
X106534136Y-129383968D01*
X106533864Y-129694669D01*
X106652514Y-129981823D01*
X106809000Y-130138583D01*
X106809000Y-140975028D01*
X106791362Y-140622632D01*
X106632397Y-140238857D01*
X106390213Y-140169392D01*
X105589605Y-140970000D01*
X105230395Y-140970000D01*
X104429787Y-140169392D01*
X104187603Y-140238857D01*
X104000856Y-140762302D01*
X100431000Y-140762302D01*
X100431000Y-132500000D01*
X101631536Y-132500000D01*
X101631536Y-134200000D01*
X101658103Y-134341190D01*
X101741546Y-134470865D01*
X101868866Y-134557859D01*
X101989000Y-134582186D01*
X101989000Y-137160000D01*
X102056062Y-137497144D01*
X102247039Y-137782961D01*
X103517039Y-139052961D01*
X103802856Y-139243938D01*
X104140000Y-139311000D01*
X104674426Y-139311000D01*
X104761697Y-139398423D01*
X105181646Y-139572801D01*
X105375660Y-139572970D01*
X105062632Y-139588638D01*
X104678857Y-139747603D01*
X104609392Y-139989787D01*
X105410000Y-140790395D01*
X106210608Y-139989787D01*
X106141143Y-139747603D01*
X105643742Y-139570148D01*
X106056612Y-139399554D01*
X106378423Y-139078303D01*
X106552801Y-138658354D01*
X106553198Y-138203641D01*
X106379554Y-137783388D01*
X106058303Y-137461577D01*
X105638354Y-137287199D01*
X105183641Y-137286802D01*
X104763388Y-137460446D01*
X104674680Y-137549000D01*
X104504922Y-137549000D01*
X103751000Y-136795078D01*
X103751000Y-134582631D01*
X103861190Y-134561897D01*
X103990865Y-134478454D01*
X104077859Y-134351134D01*
X104108464Y-134200000D01*
X104108464Y-132500000D01*
X104081897Y-132358810D01*
X103998454Y-132229135D01*
X103871134Y-132142141D01*
X103720000Y-132111536D01*
X102020000Y-132111536D01*
X101878810Y-132138103D01*
X101749135Y-132221546D01*
X101662141Y-132348866D01*
X101631536Y-132500000D01*
X100431000Y-132500000D01*
X100431000Y-130810000D01*
X101614883Y-130810000D01*
X101708587Y-131281083D01*
X101975435Y-131680448D01*
X102374800Y-131947296D01*
X102845883Y-132041000D01*
X102894117Y-132041000D01*
X103365200Y-131947296D01*
X103764565Y-131680448D01*
X104031413Y-131281083D01*
X104125117Y-130810000D01*
X104031413Y-130338917D01*
X103764565Y-129939552D01*
X103365200Y-129672704D01*
X102894117Y-129579000D01*
X102845883Y-129579000D01*
X102374800Y-129672704D01*
X101975435Y-129939552D01*
X101708587Y-130338917D01*
X101614883Y-130810000D01*
X100431000Y-130810000D01*
X100431000Y-128270000D01*
X101614883Y-128270000D01*
X101708587Y-128741083D01*
X101975435Y-129140448D01*
X102374800Y-129407296D01*
X102845883Y-129501000D01*
X102894117Y-129501000D01*
X103365200Y-129407296D01*
X103764565Y-129140448D01*
X104031413Y-128741083D01*
X104125117Y-128270000D01*
X104031413Y-127798917D01*
X103764565Y-127399552D01*
X103365200Y-127132704D01*
X102894117Y-127039000D01*
X102845883Y-127039000D01*
X102374800Y-127132704D01*
X101975435Y-127399552D01*
X101708587Y-127798917D01*
X101614883Y-128270000D01*
X100431000Y-128270000D01*
X100431000Y-120363655D01*
X102743000Y-120363655D01*
X102743000Y-120936345D01*
X102849340Y-121470954D01*
X103152172Y-121924173D01*
X103605391Y-122227005D01*
X104140000Y-122333345D01*
X104674609Y-122227005D01*
X105127828Y-121924173D01*
X105260363Y-121725821D01*
X105602370Y-122161236D01*
X106165523Y-122477926D01*
X106297056Y-122509975D01*
X106553000Y-122390836D01*
X106553000Y-120777000D01*
X106533000Y-120777000D01*
X106533000Y-120523000D01*
X106553000Y-120523000D01*
X106553000Y-118909164D01*
X106807000Y-118909164D01*
X106807000Y-120523000D01*
X106827000Y-120523000D01*
X106827000Y-120777000D01*
X106807000Y-120777000D01*
X106807000Y-122390836D01*
X107062944Y-122509975D01*
X107194477Y-122477926D01*
X107757630Y-122161236D01*
X108099637Y-121725821D01*
X108232172Y-121924173D01*
X108685391Y-122227005D01*
X109220000Y-122333345D01*
X109754609Y-122227005D01*
X110207828Y-121924173D01*
X110510660Y-121470954D01*
X110617000Y-120936345D01*
X110617000Y-120363655D01*
X110510660Y-119829046D01*
X110207828Y-119375827D01*
X109754609Y-119072995D01*
X109220000Y-118966655D01*
X108685391Y-119072995D01*
X108232172Y-119375827D01*
X108099637Y-119574179D01*
X107757630Y-119138764D01*
X107194477Y-118822074D01*
X107062944Y-118790025D01*
X106807000Y-118909164D01*
X106553000Y-118909164D01*
X106297056Y-118790025D01*
X106165523Y-118822074D01*
X105602370Y-119138764D01*
X105260363Y-119574179D01*
X105127828Y-119375827D01*
X104674609Y-119072995D01*
X104140000Y-118966655D01*
X103605391Y-119072995D01*
X103152172Y-119375827D01*
X102849340Y-119829046D01*
X102743000Y-120363655D01*
X100431000Y-120363655D01*
X100431000Y-113122022D01*
X103458631Y-113122022D01*
X103782373Y-113905538D01*
X104381309Y-114505521D01*
X105164258Y-114830630D01*
X106012022Y-114831369D01*
X106795538Y-114507627D01*
X107395521Y-113908691D01*
X107720630Y-113125742D01*
X107721369Y-112277978D01*
X107397627Y-111494462D01*
X106798691Y-110894479D01*
X106015742Y-110569370D01*
X105167978Y-110568631D01*
X104384462Y-110892373D01*
X103784479Y-111491309D01*
X103459370Y-112274258D01*
X103458631Y-113122022D01*
X100431000Y-113122022D01*
X100431000Y-108422022D01*
X103458631Y-108422022D01*
X103782373Y-109205538D01*
X104381309Y-109805521D01*
X105164258Y-110130630D01*
X106012022Y-110131369D01*
X106795538Y-109807627D01*
X107395521Y-109208691D01*
X107444000Y-109091941D01*
X107444000Y-110490000D01*
X107482517Y-110683638D01*
X107592204Y-110847796D01*
X108496283Y-111751875D01*
X108279370Y-112274258D01*
X108278631Y-113122022D01*
X108602373Y-113905538D01*
X109201309Y-114505521D01*
X109984258Y-114830630D01*
X110832022Y-114831369D01*
X111615538Y-114507627D01*
X112215521Y-113908691D01*
X112540630Y-113125742D01*
X112541369Y-112277978D01*
X112217627Y-111494462D01*
X111618691Y-110894479D01*
X110835742Y-110569370D01*
X109987978Y-110568631D01*
X109204462Y-110892373D01*
X109136154Y-110960562D01*
X108456000Y-110280408D01*
X108456000Y-108851288D01*
X108602373Y-109205538D01*
X109201309Y-109805521D01*
X109984258Y-110130630D01*
X110832022Y-110131369D01*
X111615538Y-109807627D01*
X112215521Y-109208691D01*
X112528066Y-108456000D01*
X112820408Y-108456000D01*
X113159000Y-108794592D01*
X113159000Y-121920000D01*
X113197517Y-122113638D01*
X113307204Y-122277796D01*
X114154057Y-123124649D01*
X114153864Y-123344669D01*
X114272514Y-123631823D01*
X114492021Y-123851714D01*
X114778968Y-123970864D01*
X115089669Y-123971136D01*
X115376823Y-123852486D01*
X115596714Y-123632979D01*
X115715864Y-123346032D01*
X115716136Y-123035331D01*
X115597486Y-122748177D01*
X115377979Y-122528286D01*
X115091032Y-122409136D01*
X114869534Y-122408942D01*
X114171000Y-121710408D01*
X114171000Y-118110000D01*
X115584883Y-118110000D01*
X115678587Y-118581083D01*
X115945435Y-118980448D01*
X116344800Y-119247296D01*
X116815883Y-119341000D01*
X116864117Y-119341000D01*
X117335200Y-119247296D01*
X117734565Y-118980448D01*
X117833399Y-118832532D01*
X123297073Y-118832532D01*
X123395736Y-119099387D01*
X124005461Y-119325908D01*
X124655460Y-119301856D01*
X125144264Y-119099387D01*
X125242927Y-118832532D01*
X124270000Y-117859605D01*
X123297073Y-118832532D01*
X117833399Y-118832532D01*
X118001413Y-118581083D01*
X118095117Y-118110000D01*
X118001413Y-117638917D01*
X117852105Y-117415461D01*
X122624092Y-117415461D01*
X122648144Y-118065460D01*
X122850613Y-118554264D01*
X123117468Y-118652927D01*
X124090395Y-117680000D01*
X124449605Y-117680000D01*
X125422532Y-118652927D01*
X125689387Y-118554264D01*
X125912581Y-117953493D01*
X126888761Y-117953493D01*
X127098563Y-118461251D01*
X127486705Y-118850072D01*
X127994097Y-119060759D01*
X128543493Y-119061239D01*
X129051251Y-118851437D01*
X129440072Y-118463295D01*
X129650759Y-117955903D01*
X129651239Y-117406507D01*
X129441437Y-116898749D01*
X129053295Y-116509928D01*
X128545903Y-116299241D01*
X127996507Y-116298761D01*
X127488749Y-116508563D01*
X127099928Y-116896705D01*
X126889241Y-117404097D01*
X126888761Y-117953493D01*
X125912581Y-117953493D01*
X125915908Y-117944539D01*
X125891856Y-117294540D01*
X125689387Y-116805736D01*
X125422532Y-116707073D01*
X124449605Y-117680000D01*
X124090395Y-117680000D01*
X123117468Y-116707073D01*
X122850613Y-116805736D01*
X122624092Y-117415461D01*
X117852105Y-117415461D01*
X117734565Y-117239552D01*
X117335200Y-116972704D01*
X116864117Y-116879000D01*
X116815883Y-116879000D01*
X116344800Y-116972704D01*
X115945435Y-117239552D01*
X115678587Y-117638917D01*
X115584883Y-118110000D01*
X114171000Y-118110000D01*
X114171000Y-114720000D01*
X115601536Y-114720000D01*
X115601536Y-116420000D01*
X115628103Y-116561190D01*
X115711546Y-116690865D01*
X115838866Y-116777859D01*
X115990000Y-116808464D01*
X117690000Y-116808464D01*
X117831190Y-116781897D01*
X117960865Y-116698454D01*
X118047859Y-116571134D01*
X118056701Y-116527468D01*
X123297073Y-116527468D01*
X124270000Y-117500395D01*
X125242927Y-116527468D01*
X125144264Y-116260613D01*
X124534539Y-116034092D01*
X123884540Y-116058144D01*
X123395736Y-116260613D01*
X123297073Y-116527468D01*
X118056701Y-116527468D01*
X118078464Y-116420000D01*
X118078464Y-114720000D01*
X118051897Y-114578810D01*
X117968454Y-114449135D01*
X117841134Y-114362141D01*
X117690000Y-114331536D01*
X115990000Y-114331536D01*
X115848810Y-114358103D01*
X115719135Y-114441546D01*
X115632141Y-114568866D01*
X115601536Y-114720000D01*
X114171000Y-114720000D01*
X114171000Y-112981592D01*
X114577204Y-113387796D01*
X114741362Y-113497483D01*
X114935000Y-113536000D01*
X117511579Y-113536000D01*
X117667021Y-113691714D01*
X117953968Y-113810864D01*
X118264669Y-113811136D01*
X118551823Y-113692486D01*
X118771714Y-113472979D01*
X118890864Y-113186032D01*
X118891136Y-112875331D01*
X118772486Y-112588177D01*
X118552979Y-112368286D01*
X118266032Y-112249136D01*
X117955331Y-112248864D01*
X117668177Y-112367514D01*
X117511417Y-112524000D01*
X115144592Y-112524000D01*
X114806000Y-112185408D01*
X114806000Y-108120000D01*
X115351536Y-108120000D01*
X115351536Y-110320000D01*
X115378103Y-110461190D01*
X115461546Y-110590865D01*
X115588866Y-110677859D01*
X115740000Y-110708464D01*
X117940000Y-110708464D01*
X118081190Y-110681897D01*
X118210865Y-110598454D01*
X118297859Y-110471134D01*
X118328464Y-110320000D01*
X118328464Y-108120000D01*
X118301897Y-107978810D01*
X118218454Y-107849135D01*
X118091134Y-107762141D01*
X117940000Y-107731536D01*
X115740000Y-107731536D01*
X115598810Y-107758103D01*
X115469135Y-107841546D01*
X115382141Y-107968866D01*
X115351536Y-108120000D01*
X114806000Y-108120000D01*
X114806000Y-107151532D01*
X119188587Y-107151532D01*
X119550309Y-108026966D01*
X120219511Y-108697337D01*
X121094312Y-109060586D01*
X122041532Y-109061413D01*
X122916966Y-108699691D01*
X123587337Y-108030489D01*
X123950586Y-107155688D01*
X123951413Y-106208468D01*
X123589691Y-105333034D01*
X122920489Y-104662663D01*
X122045688Y-104299414D01*
X121098468Y-104298587D01*
X120223034Y-104660309D01*
X119552663Y-105329511D01*
X119189414Y-106204312D01*
X119188587Y-107151532D01*
X114806000Y-107151532D01*
X114806000Y-104775000D01*
X114767483Y-104581362D01*
X114657796Y-104417204D01*
X113182796Y-102942204D01*
X113018638Y-102832517D01*
X112825000Y-102794000D01*
X112506670Y-102794000D01*
X112217627Y-102094462D01*
X111695064Y-101570985D01*
X115359000Y-101570985D01*
X115359000Y-101629015D01*
X115471734Y-102195769D01*
X115792775Y-102676240D01*
X116273246Y-102997281D01*
X116840000Y-103110015D01*
X117406754Y-102997281D01*
X117887225Y-102676240D01*
X118208266Y-102195769D01*
X118321000Y-101629015D01*
X118321000Y-101570985D01*
X118208266Y-101004231D01*
X117887225Y-100523760D01*
X117406754Y-100202719D01*
X116840000Y-100089985D01*
X116273246Y-100202719D01*
X115792775Y-100523760D01*
X115471734Y-101004231D01*
X115359000Y-101570985D01*
X111695064Y-101570985D01*
X111618691Y-101494479D01*
X110835742Y-101169370D01*
X109987978Y-101168631D01*
X109204462Y-101492373D01*
X108604479Y-102091309D01*
X108456000Y-102448886D01*
X108456000Y-99904592D01*
X108794592Y-99566000D01*
X116876579Y-99566000D01*
X117032021Y-99721714D01*
X117318968Y-99840864D01*
X117629669Y-99841136D01*
X117916823Y-99722486D01*
X117944357Y-99695000D01*
X121039000Y-99695000D01*
X121106062Y-100032144D01*
X121297039Y-100317961D01*
X124214000Y-103234922D01*
X124214000Y-103505000D01*
X124281062Y-103842144D01*
X124472039Y-104127961D01*
X124757856Y-104318938D01*
X125095000Y-104386000D01*
X125432144Y-104318938D01*
X125717961Y-104127961D01*
X125908938Y-103842144D01*
X125976000Y-103505000D01*
X125976000Y-102870000D01*
X125908938Y-102532856D01*
X125717961Y-102247039D01*
X123320591Y-99849669D01*
X124313864Y-99849669D01*
X124432514Y-100136823D01*
X124652021Y-100356714D01*
X124938968Y-100475864D01*
X125160466Y-100476058D01*
X127764000Y-103079592D01*
X127764000Y-104233031D01*
X127545320Y-104323388D01*
X127184655Y-104683425D01*
X126989223Y-105154076D01*
X126988778Y-105663689D01*
X127183388Y-106134680D01*
X127543425Y-106495345D01*
X127943656Y-106661536D01*
X127370000Y-106661536D01*
X127228810Y-106688103D01*
X127099135Y-106771546D01*
X127012141Y-106898866D01*
X126981536Y-107050000D01*
X126981536Y-108850000D01*
X127008103Y-108991190D01*
X127091546Y-109120865D01*
X127218866Y-109207859D01*
X127370000Y-109238464D01*
X129170000Y-109238464D01*
X129311190Y-109211897D01*
X129440865Y-109128454D01*
X129527859Y-109001134D01*
X129558464Y-108850000D01*
X129558464Y-107377128D01*
X131167796Y-105767796D01*
X131277483Y-105603638D01*
X131316000Y-105410000D01*
X131316000Y-97259719D01*
X131556440Y-97019698D01*
X131574000Y-96977409D01*
X131574000Y-110280408D01*
X129817204Y-112037204D01*
X129707517Y-112201362D01*
X129669000Y-112395000D01*
X129669000Y-121956579D01*
X129513286Y-122112021D01*
X129394136Y-122398968D01*
X129393864Y-122709669D01*
X129512514Y-122996823D01*
X129732021Y-123216714D01*
X130018968Y-123335864D01*
X130329669Y-123336136D01*
X130616823Y-123217486D01*
X130836714Y-122997979D01*
X130955864Y-122711032D01*
X130956136Y-122400331D01*
X130837486Y-122113177D01*
X130797383Y-122073003D01*
X134668718Y-122073003D01*
X134916499Y-122672680D01*
X135374907Y-123131888D01*
X135974151Y-123380716D01*
X136623003Y-123381282D01*
X137222680Y-123133501D01*
X137681888Y-122675093D01*
X137930716Y-122075849D01*
X137931282Y-121426997D01*
X137683501Y-120827320D01*
X137225093Y-120368112D01*
X136625849Y-120119284D01*
X135976997Y-120118718D01*
X135377320Y-120366499D01*
X134918112Y-120824907D01*
X134669284Y-121424151D01*
X134668718Y-122073003D01*
X130797383Y-122073003D01*
X130681000Y-121956417D01*
X130681000Y-112604592D01*
X131055592Y-112230000D01*
X136606536Y-112230000D01*
X136606536Y-113830000D01*
X136633103Y-113971190D01*
X136716546Y-114100865D01*
X136843866Y-114187859D01*
X136995000Y-114218464D01*
X138595000Y-114218464D01*
X138736190Y-114191897D01*
X138865865Y-114108454D01*
X138952859Y-113981134D01*
X138973583Y-113878794D01*
X139125144Y-114030619D01*
X139559054Y-114210794D01*
X140028885Y-114211204D01*
X140463109Y-114031787D01*
X140795619Y-113699856D01*
X140975794Y-113265946D01*
X140976204Y-112796115D01*
X140796787Y-112361891D01*
X140464856Y-112029381D01*
X140030946Y-111849206D01*
X139561115Y-111848796D01*
X139126891Y-112028213D01*
X138974180Y-112180658D01*
X138956897Y-112088810D01*
X138873454Y-111959135D01*
X138746134Y-111872141D01*
X138595000Y-111841536D01*
X136995000Y-111841536D01*
X136853810Y-111868103D01*
X136724135Y-111951546D01*
X136637141Y-112078866D01*
X136606536Y-112230000D01*
X131055592Y-112230000D01*
X132437796Y-110847796D01*
X132547483Y-110683638D01*
X132586000Y-110490000D01*
X132586000Y-107151532D01*
X132588587Y-107151532D01*
X132950309Y-108026966D01*
X133619511Y-108697337D01*
X134494312Y-109060586D01*
X135441532Y-109061413D01*
X136316966Y-108699691D01*
X136987337Y-108030489D01*
X137350586Y-107155688D01*
X137351413Y-106208468D01*
X136989691Y-105333034D01*
X136320489Y-104662663D01*
X135445688Y-104299414D01*
X134498468Y-104298587D01*
X133623034Y-104660309D01*
X132952663Y-105329511D01*
X132589414Y-106204312D01*
X132588587Y-107151532D01*
X132586000Y-107151532D01*
X132586000Y-95885000D01*
X132547483Y-95691362D01*
X132437796Y-95527204D01*
X131802796Y-94892204D01*
X131638638Y-94782517D01*
X131445000Y-94744000D01*
X130279719Y-94744000D01*
X130039698Y-94503560D01*
X129716011Y-94369153D01*
X129365527Y-94368847D01*
X129041605Y-94502689D01*
X128793560Y-94750302D01*
X128659153Y-95073989D01*
X128658881Y-95385000D01*
X128555750Y-95385000D01*
X128397000Y-95543750D01*
X128397000Y-96393000D01*
X129246250Y-96393000D01*
X129405000Y-96234250D01*
X129405000Y-96130883D01*
X129714473Y-96131153D01*
X130038395Y-95997311D01*
X130280127Y-95756000D01*
X130351995Y-95756000D01*
X130311605Y-95772689D01*
X130063560Y-96020302D01*
X129929153Y-96343989D01*
X129928847Y-96694473D01*
X130062689Y-97018395D01*
X130304000Y-97260127D01*
X130304000Y-105200408D01*
X128842872Y-106661536D01*
X128595534Y-106661536D01*
X128994680Y-106496612D01*
X129355345Y-106136575D01*
X129550777Y-105665924D01*
X129551222Y-105156311D01*
X129356612Y-104685320D01*
X128996575Y-104324655D01*
X128776000Y-104233064D01*
X128776000Y-102870000D01*
X128737483Y-102676362D01*
X128627796Y-102512204D01*
X125875943Y-99760351D01*
X125876136Y-99540331D01*
X125757486Y-99253177D01*
X125537979Y-99033286D01*
X125251032Y-98914136D01*
X124940331Y-98913864D01*
X124653177Y-99032514D01*
X124433286Y-99252021D01*
X124314136Y-99538968D01*
X124313864Y-99849669D01*
X123320591Y-99849669D01*
X122542961Y-99072039D01*
X122257144Y-98881062D01*
X121920000Y-98814000D01*
X121582856Y-98881062D01*
X121297039Y-99072039D01*
X121106062Y-99357856D01*
X121039000Y-99695000D01*
X117944357Y-99695000D01*
X118136714Y-99502979D01*
X118255864Y-99216032D01*
X118256136Y-98905331D01*
X118137486Y-98618177D01*
X117917979Y-98398286D01*
X117631032Y-98279136D01*
X117320331Y-98278864D01*
X117033177Y-98397514D01*
X116876417Y-98554000D01*
X108585000Y-98554000D01*
X108391362Y-98592517D01*
X108227204Y-98702204D01*
X107592204Y-99337204D01*
X107482517Y-99501362D01*
X107444000Y-99695000D01*
X107444000Y-101873100D01*
X107284528Y-101785077D01*
X105769605Y-103300000D01*
X107284528Y-104814923D01*
X107444000Y-104726900D01*
X107444000Y-106906693D01*
X107397627Y-106794462D01*
X106798691Y-106194479D01*
X106015742Y-105869370D01*
X105167978Y-105868631D01*
X104384462Y-106192373D01*
X103784479Y-106791309D01*
X103459370Y-107574258D01*
X103458631Y-108422022D01*
X100431000Y-108422022D01*
X100431000Y-104994528D01*
X104075077Y-104994528D01*
X104265364Y-105339271D01*
X105146591Y-105690956D01*
X106095323Y-105678641D01*
X106914636Y-105339271D01*
X107104923Y-104994528D01*
X105590000Y-103479605D01*
X104075077Y-104994528D01*
X100431000Y-104994528D01*
X100431000Y-102856591D01*
X103199044Y-102856591D01*
X103211359Y-103805323D01*
X103550729Y-104624636D01*
X103895472Y-104814923D01*
X105410395Y-103300000D01*
X103895472Y-101785077D01*
X103550729Y-101975364D01*
X103199044Y-102856591D01*
X100431000Y-102856591D01*
X100431000Y-101605472D01*
X104075077Y-101605472D01*
X105590000Y-103120395D01*
X107104923Y-101605472D01*
X106914636Y-101260729D01*
X106033409Y-100909044D01*
X105084677Y-100921359D01*
X104265364Y-101260729D01*
X104075077Y-101605472D01*
X100431000Y-101605472D01*
X100431000Y-100431000D01*
X107000000Y-100431000D01*
X107164937Y-100398192D01*
X107304763Y-100304763D01*
X107398192Y-100164937D01*
X107431000Y-100000000D01*
X107431000Y-95670000D01*
X110521536Y-95670000D01*
X110521536Y-97370000D01*
X110548103Y-97511190D01*
X110631546Y-97640865D01*
X110758866Y-97727859D01*
X110910000Y-97758464D01*
X112610000Y-97758464D01*
X112751190Y-97731897D01*
X112880865Y-97648454D01*
X112967859Y-97521134D01*
X112998464Y-97370000D01*
X112998464Y-96495883D01*
X113069000Y-96495883D01*
X113069000Y-96544117D01*
X113162704Y-97015200D01*
X113429552Y-97414565D01*
X113828917Y-97681413D01*
X114300000Y-97775117D01*
X114771083Y-97681413D01*
X115170448Y-97414565D01*
X115437296Y-97015200D01*
X115478958Y-96805750D01*
X127135000Y-96805750D01*
X127135000Y-97146309D01*
X127231673Y-97379698D01*
X127410301Y-97558327D01*
X127643690Y-97655000D01*
X127984250Y-97655000D01*
X128143000Y-97496250D01*
X128143000Y-96647000D01*
X128397000Y-96647000D01*
X128397000Y-97496250D01*
X128555750Y-97655000D01*
X128896310Y-97655000D01*
X129129699Y-97558327D01*
X129308327Y-97379698D01*
X129405000Y-97146309D01*
X129405000Y-96805750D01*
X129246250Y-96647000D01*
X128397000Y-96647000D01*
X128143000Y-96647000D01*
X127293750Y-96647000D01*
X127135000Y-96805750D01*
X115478958Y-96805750D01*
X115531000Y-96544117D01*
X115531000Y-96495883D01*
X115437296Y-96024800D01*
X115349692Y-95893691D01*
X127135000Y-95893691D01*
X127135000Y-96234250D01*
X127293750Y-96393000D01*
X128143000Y-96393000D01*
X128143000Y-95543750D01*
X127984250Y-95385000D01*
X127643690Y-95385000D01*
X127410301Y-95481673D01*
X127231673Y-95660302D01*
X127135000Y-95893691D01*
X115349692Y-95893691D01*
X115170448Y-95625435D01*
X114771083Y-95358587D01*
X114300000Y-95264883D01*
X113828917Y-95358587D01*
X113429552Y-95625435D01*
X113162704Y-96024800D01*
X113069000Y-96495883D01*
X112998464Y-96495883D01*
X112998464Y-95670000D01*
X112971897Y-95528810D01*
X112888454Y-95399135D01*
X112761134Y-95312141D01*
X112610000Y-95281536D01*
X110910000Y-95281536D01*
X110768810Y-95308103D01*
X110639135Y-95391546D01*
X110552141Y-95518866D01*
X110521536Y-95670000D01*
X107431000Y-95670000D01*
X107431000Y-93431000D01*
X147569000Y-93431000D01*
X147569000Y-100000000D01*
X147569000Y-100000000D01*
G37*
X147569000Y-100000000D02*
X147601808Y-100164937D01*
X147695237Y-100304763D01*
X147835063Y-100398192D01*
X148000000Y-100431000D01*
X154569000Y-100431000D01*
X154569000Y-189569000D01*
X152776592Y-189569000D01*
X154027796Y-188317796D01*
X154137483Y-188153638D01*
X154176000Y-187960000D01*
X154176000Y-165100000D01*
X154137483Y-164906362D01*
X154027796Y-164742204D01*
X152906000Y-163620408D01*
X152906000Y-156210000D01*
X152867483Y-156016362D01*
X152757796Y-155852204D01*
X151636000Y-154730408D01*
X151636000Y-144556881D01*
X151777039Y-144767961D01*
X152062856Y-144958938D01*
X152400000Y-145026000D01*
X152737144Y-144958938D01*
X153022961Y-144767961D01*
X153164000Y-144556881D01*
X153164000Y-149896579D01*
X153008286Y-150052021D01*
X152889136Y-150338968D01*
X152888864Y-150649669D01*
X153007514Y-150936823D01*
X153227021Y-151156714D01*
X153513968Y-151275864D01*
X153824669Y-151276136D01*
X154111823Y-151157486D01*
X154331714Y-150937979D01*
X154450864Y-150651032D01*
X154451136Y-150340331D01*
X154332486Y-150053177D01*
X154176000Y-149896417D01*
X154176000Y-103505000D01*
X154137483Y-103311362D01*
X154027796Y-103147204D01*
X151487796Y-100607204D01*
X151323638Y-100497517D01*
X151130000Y-100459000D01*
X140970000Y-100459000D01*
X140776362Y-100497517D01*
X140612204Y-100607204D01*
X139490408Y-101729000D01*
X137758421Y-101729000D01*
X137602979Y-101573286D01*
X137316032Y-101454136D01*
X137005331Y-101453864D01*
X136718177Y-101572514D01*
X136498286Y-101792021D01*
X136379136Y-102078968D01*
X136378864Y-102389669D01*
X136497514Y-102676823D01*
X136717021Y-102896714D01*
X137003968Y-103015864D01*
X137314669Y-103016136D01*
X137601823Y-102897486D01*
X137758583Y-102741000D01*
X139700000Y-102741000D01*
X139893638Y-102702483D01*
X140057796Y-102592796D01*
X141179592Y-101471000D01*
X143098119Y-101471000D01*
X142887039Y-101612039D01*
X142696062Y-101897856D01*
X142629000Y-102235000D01*
X142629000Y-107265872D01*
X142396032Y-107169136D01*
X142085331Y-107168864D01*
X141798177Y-107287514D01*
X141578286Y-107507021D01*
X141459136Y-107793968D01*
X141458864Y-108104669D01*
X141577514Y-108391823D01*
X141734000Y-108548583D01*
X141734000Y-117900408D01*
X140760408Y-118874000D01*
X132996645Y-118874000D01*
X133051251Y-118851437D01*
X133440072Y-118463295D01*
X133650759Y-117955903D01*
X133651239Y-117406507D01*
X133441437Y-116898749D01*
X133053295Y-116509928D01*
X132545903Y-116299241D01*
X131996507Y-116298761D01*
X131488749Y-116508563D01*
X131099928Y-116896705D01*
X130889241Y-117404097D01*
X130888761Y-117953493D01*
X131098563Y-118461251D01*
X131486705Y-118850072D01*
X131994097Y-119060759D01*
X132318366Y-119061042D01*
X132145351Y-119234057D01*
X131925331Y-119233864D01*
X131638177Y-119352514D01*
X131418286Y-119572021D01*
X131299136Y-119858968D01*
X131298864Y-120169669D01*
X131417514Y-120456823D01*
X131637021Y-120676714D01*
X131923968Y-120795864D01*
X132234669Y-120796136D01*
X132521823Y-120677486D01*
X132741714Y-120457979D01*
X132860864Y-120171032D01*
X132861058Y-119949534D01*
X132924592Y-119886000D01*
X140970000Y-119886000D01*
X141163638Y-119847483D01*
X141327796Y-119737796D01*
X142597796Y-118467796D01*
X142676685Y-118349730D01*
X142696062Y-118447144D01*
X142887039Y-118732961D01*
X143899000Y-119744922D01*
X143899000Y-120692584D01*
X143575093Y-120368112D01*
X142975849Y-120119284D01*
X142326997Y-120118718D01*
X141727320Y-120366499D01*
X141268112Y-120824907D01*
X141019284Y-121424151D01*
X141018718Y-122073003D01*
X141121837Y-122322571D01*
X138612204Y-124832204D01*
X138502517Y-124996362D01*
X138464000Y-125190000D01*
X138464000Y-142441231D01*
X138301891Y-142508213D01*
X137969381Y-142840144D01*
X137789206Y-143274054D01*
X137788796Y-143743885D01*
X137968213Y-144178109D01*
X138300144Y-144510619D01*
X138734054Y-144690794D01*
X139203885Y-144691204D01*
X139638109Y-144511787D01*
X139790820Y-144359342D01*
X139808103Y-144451190D01*
X139891546Y-144580865D01*
X140018866Y-144667859D01*
X140170000Y-144698464D01*
X141770000Y-144698464D01*
X141911190Y-144671897D01*
X142040865Y-144588454D01*
X142127859Y-144461134D01*
X142158464Y-144310000D01*
X142158464Y-142710000D01*
X142131897Y-142568810D01*
X142048454Y-142439135D01*
X141921134Y-142352141D01*
X141770000Y-142321536D01*
X140170000Y-142321536D01*
X140028810Y-142348103D01*
X139899135Y-142431546D01*
X139812141Y-142558866D01*
X139791417Y-142661206D01*
X139639856Y-142509381D01*
X139476000Y-142441342D01*
X139476000Y-125399592D01*
X141738189Y-123137403D01*
X142324151Y-123380716D01*
X142973003Y-123381282D01*
X143572680Y-123133501D01*
X143899000Y-122807749D01*
X143899000Y-137192584D01*
X143575093Y-136868112D01*
X143156000Y-136694089D01*
X143156000Y-126775000D01*
X143117483Y-126581362D01*
X143020938Y-126436872D01*
X143021136Y-126210331D01*
X142902486Y-125923177D01*
X142682979Y-125703286D01*
X142396032Y-125584136D01*
X142085331Y-125583864D01*
X141798177Y-125702514D01*
X141578286Y-125922021D01*
X141459136Y-126208968D01*
X141458864Y-126519669D01*
X141577514Y-126806823D01*
X141797021Y-127026714D01*
X142083968Y-127145864D01*
X142144000Y-127145917D01*
X142144000Y-136694331D01*
X141727320Y-136866499D01*
X141268112Y-137324907D01*
X141019284Y-137924151D01*
X141018718Y-138573003D01*
X141266499Y-139172680D01*
X141724907Y-139631888D01*
X142324151Y-139880716D01*
X142973003Y-139881282D01*
X143572680Y-139633501D01*
X143899000Y-139307749D01*
X143899000Y-155845078D01*
X142625100Y-157118978D01*
X142326997Y-157118718D01*
X141727320Y-157366499D01*
X141268112Y-157824907D01*
X141019284Y-158424151D01*
X141018718Y-159073003D01*
X141266499Y-159672680D01*
X141724907Y-160131888D01*
X142324151Y-160380716D01*
X142973003Y-160381282D01*
X143572680Y-160133501D01*
X143622948Y-160083320D01*
X147846285Y-160083320D01*
X147975533Y-160376123D01*
X148675806Y-160644388D01*
X149425435Y-160624250D01*
X150024467Y-160376123D01*
X150153715Y-160083320D01*
X149000000Y-158929605D01*
X147846285Y-160083320D01*
X143622948Y-160083320D01*
X144031888Y-159675093D01*
X144280716Y-159075849D01*
X144281282Y-158426997D01*
X144280790Y-158425806D01*
X147105612Y-158425806D01*
X147125750Y-159175435D01*
X147373877Y-159774467D01*
X147666680Y-159903715D01*
X148820395Y-158750000D01*
X147666680Y-157596285D01*
X147373877Y-157725533D01*
X147105612Y-158425806D01*
X144280790Y-158425806D01*
X144143174Y-158092748D01*
X144819242Y-157416680D01*
X147846285Y-157416680D01*
X149000000Y-158570395D01*
X150153715Y-157416680D01*
X150024467Y-157123877D01*
X149324194Y-156855612D01*
X148574565Y-156875750D01*
X147975533Y-157123877D01*
X147846285Y-157416680D01*
X144819242Y-157416680D01*
X145402961Y-156832961D01*
X145593938Y-156547144D01*
X145661000Y-156210000D01*
X145661000Y-123083320D01*
X147846285Y-123083320D01*
X147975533Y-123376123D01*
X148675806Y-123644388D01*
X149425435Y-123624250D01*
X150024467Y-123376123D01*
X150153715Y-123083320D01*
X149000000Y-121929605D01*
X147846285Y-123083320D01*
X145661000Y-123083320D01*
X145661000Y-121425806D01*
X147105612Y-121425806D01*
X147125750Y-122175435D01*
X147373877Y-122774467D01*
X147666680Y-122903715D01*
X148820395Y-121750000D01*
X147666680Y-120596285D01*
X147373877Y-120725533D01*
X147105612Y-121425806D01*
X145661000Y-121425806D01*
X145661000Y-120416680D01*
X147846285Y-120416680D01*
X149000000Y-121570395D01*
X150153715Y-120416680D01*
X150024467Y-120123877D01*
X149324194Y-119855612D01*
X148574565Y-119875750D01*
X147975533Y-120123877D01*
X147846285Y-120416680D01*
X145661000Y-120416680D01*
X145661000Y-119380000D01*
X145593938Y-119042856D01*
X145402961Y-118757039D01*
X144391000Y-117745078D01*
X144391000Y-108422022D01*
X144868631Y-108422022D01*
X145192373Y-109205538D01*
X145791309Y-109805521D01*
X146574258Y-110130630D01*
X147422022Y-110131369D01*
X148205538Y-109807627D01*
X148805521Y-109208691D01*
X149130630Y-108425742D01*
X149131369Y-107577978D01*
X148807627Y-106794462D01*
X148208691Y-106194479D01*
X147425742Y-105869370D01*
X146577978Y-105868631D01*
X145794462Y-106192373D01*
X145194479Y-106791309D01*
X144869370Y-107574258D01*
X144868631Y-108422022D01*
X144391000Y-108422022D01*
X144391000Y-102235000D01*
X144323938Y-101897856D01*
X144132961Y-101612039D01*
X143921881Y-101471000D01*
X145846189Y-101471000D01*
X145794462Y-101492373D01*
X145194479Y-102091309D01*
X144869370Y-102874258D01*
X144868631Y-103722022D01*
X145192373Y-104505538D01*
X145791309Y-105105521D01*
X146574258Y-105430630D01*
X147422022Y-105431369D01*
X148205538Y-105107627D01*
X148805521Y-104508691D01*
X149097304Y-103806000D01*
X150080408Y-103806000D01*
X151894000Y-105619592D01*
X151894000Y-122980408D01*
X151623980Y-123250428D01*
X151636000Y-123190000D01*
X151636000Y-116840000D01*
X151597483Y-116646362D01*
X151487796Y-116482204D01*
X148837432Y-113831840D01*
X149130630Y-113125742D01*
X149131369Y-112277978D01*
X148807627Y-111494462D01*
X148208691Y-110894479D01*
X147425742Y-110569370D01*
X146577978Y-110568631D01*
X145794462Y-110892373D01*
X145194479Y-111491309D01*
X144869370Y-112274258D01*
X144868631Y-113122022D01*
X145192373Y-113905538D01*
X145791309Y-114505521D01*
X146574258Y-114830630D01*
X147422022Y-114831369D01*
X148118145Y-114543737D01*
X150624000Y-117049592D01*
X150624000Y-120724596D01*
X150333320Y-120596285D01*
X149179605Y-121750000D01*
X150333320Y-122903715D01*
X150624000Y-122775404D01*
X150624000Y-122980408D01*
X149502204Y-124102204D01*
X149392517Y-124266362D01*
X149354000Y-124460000D01*
X149354000Y-134620000D01*
X149392517Y-134813638D01*
X149502204Y-134977796D01*
X150624000Y-136099592D01*
X150624000Y-137909373D01*
X150383501Y-137327320D01*
X149925093Y-136868112D01*
X149325849Y-136619284D01*
X148676997Y-136618718D01*
X148077320Y-136866499D01*
X147618112Y-137324907D01*
X147369284Y-137924151D01*
X147368718Y-138573003D01*
X147616499Y-139172680D01*
X148074907Y-139631888D01*
X148674151Y-139880716D01*
X149323003Y-139881282D01*
X149922680Y-139633501D01*
X150021936Y-139534418D01*
X149989000Y-139700000D01*
X149989000Y-155575000D01*
X150027517Y-155768638D01*
X150137204Y-155932796D01*
X150624000Y-156419592D01*
X150624000Y-157724596D01*
X150333320Y-157596285D01*
X149179605Y-158750000D01*
X150333320Y-159903715D01*
X150624000Y-159775404D01*
X150624000Y-161080408D01*
X149650408Y-162054000D01*
X139700000Y-162054000D01*
X139506362Y-162092517D01*
X139342204Y-162202204D01*
X138072204Y-163472204D01*
X137962517Y-163636362D01*
X137924000Y-163830000D01*
X137924000Y-172121579D01*
X137768286Y-172277021D01*
X137649136Y-172563968D01*
X137648864Y-172874669D01*
X137767514Y-173161823D01*
X137987021Y-173381714D01*
X138273968Y-173500864D01*
X138584669Y-173501136D01*
X138871823Y-173382486D01*
X139091714Y-173162979D01*
X139210864Y-172876032D01*
X139211136Y-172565331D01*
X139092486Y-172278177D01*
X138936000Y-172121417D01*
X138936000Y-166524669D01*
X141458864Y-166524669D01*
X141577514Y-166811823D01*
X141797021Y-167031714D01*
X142083968Y-167150864D01*
X142394669Y-167151136D01*
X142681823Y-167032486D01*
X142838583Y-166876000D01*
X150920408Y-166876000D01*
X151894000Y-167849592D01*
X151894000Y-179973689D01*
X151799856Y-179879381D01*
X151365946Y-179699206D01*
X150896115Y-179698796D01*
X150461891Y-179878213D01*
X150129381Y-180210144D01*
X149949206Y-180644054D01*
X149948796Y-181113885D01*
X150128213Y-181548109D01*
X150280658Y-181700820D01*
X150188810Y-181718103D01*
X150059135Y-181801546D01*
X149972141Y-181928866D01*
X149941536Y-182080000D01*
X149941536Y-183680000D01*
X149968103Y-183821190D01*
X150051546Y-183950865D01*
X150178866Y-184037859D01*
X150330000Y-184068464D01*
X151930000Y-184068464D01*
X152071190Y-184041897D01*
X152200865Y-183958454D01*
X152287859Y-183831134D01*
X152318464Y-183680000D01*
X152318464Y-182407128D01*
X152757796Y-181967796D01*
X152867483Y-181803638D01*
X152906000Y-181610000D01*
X152906000Y-167640000D01*
X152867483Y-167446362D01*
X152757796Y-167282204D01*
X151487796Y-166012204D01*
X151323638Y-165902517D01*
X151130000Y-165864000D01*
X142838421Y-165864000D01*
X142682979Y-165708286D01*
X142396032Y-165589136D01*
X142085331Y-165588864D01*
X141798177Y-165707514D01*
X141578286Y-165927021D01*
X141459136Y-166213968D01*
X141458864Y-166524669D01*
X138936000Y-166524669D01*
X138936000Y-164039592D01*
X139909592Y-163066000D01*
X149860000Y-163066000D01*
X150053638Y-163027483D01*
X150217796Y-162917796D01*
X151487796Y-161647796D01*
X151597483Y-161483638D01*
X151636000Y-161290000D01*
X151636000Y-156210000D01*
X151623980Y-156149572D01*
X151894000Y-156419592D01*
X151894000Y-163830000D01*
X151932517Y-164023638D01*
X152042204Y-164187796D01*
X153164000Y-165309592D01*
X153164000Y-187750408D01*
X152190408Y-188724000D01*
X142436141Y-188724000D01*
X142681823Y-188622486D01*
X142901714Y-188402979D01*
X143020864Y-188116032D01*
X143021136Y-187805331D01*
X142902486Y-187518177D01*
X142746000Y-187361417D01*
X142746000Y-186690000D01*
X142707483Y-186496362D01*
X142597796Y-186332204D01*
X141327796Y-185062204D01*
X141163638Y-184952517D01*
X140970000Y-184914000D01*
X134829592Y-184914000D01*
X133707796Y-183792204D01*
X133543638Y-183682517D01*
X133350000Y-183644000D01*
X131019592Y-183644000D01*
X130358912Y-182983320D01*
X131116285Y-182983320D01*
X131245533Y-183276123D01*
X131945806Y-183544388D01*
X132695435Y-183524250D01*
X133294467Y-183276123D01*
X133423715Y-182983320D01*
X132270000Y-181829605D01*
X131116285Y-182983320D01*
X130358912Y-182983320D01*
X129739556Y-182363964D01*
X129900716Y-181975849D01*
X129901282Y-181326997D01*
X129900790Y-181325806D01*
X130375612Y-181325806D01*
X130395750Y-182075435D01*
X130643877Y-182674467D01*
X130936680Y-182803715D01*
X132090395Y-181650000D01*
X132449605Y-181650000D01*
X133603320Y-182803715D01*
X133896123Y-182674467D01*
X134164388Y-181974194D01*
X134144250Y-181224565D01*
X133896123Y-180625533D01*
X133603320Y-180496285D01*
X132449605Y-181650000D01*
X132090395Y-181650000D01*
X130936680Y-180496285D01*
X130643877Y-180625533D01*
X130375612Y-181325806D01*
X129900790Y-181325806D01*
X129653501Y-180727320D01*
X129243577Y-180316680D01*
X131116285Y-180316680D01*
X132270000Y-181470395D01*
X133423715Y-180316680D01*
X133294467Y-180023877D01*
X132594194Y-179755612D01*
X131844565Y-179775750D01*
X131245533Y-180023877D01*
X131116285Y-180316680D01*
X129243577Y-180316680D01*
X129195093Y-180268112D01*
X128595849Y-180019284D01*
X127946997Y-180018718D01*
X127347320Y-180266499D01*
X126888112Y-180724907D01*
X126639284Y-181324151D01*
X126638718Y-181973003D01*
X126886499Y-182572680D01*
X127344907Y-183031888D01*
X127944151Y-183280716D01*
X128593003Y-183281282D01*
X129040704Y-183096296D01*
X130452204Y-184507796D01*
X130616362Y-184617483D01*
X130810000Y-184656000D01*
X133140408Y-184656000D01*
X134262204Y-185777796D01*
X134426362Y-185887483D01*
X134620000Y-185926000D01*
X140760408Y-185926000D01*
X141734000Y-186899592D01*
X141734000Y-187361579D01*
X141578286Y-187517021D01*
X141459136Y-187803968D01*
X141458864Y-188114669D01*
X141577514Y-188401823D01*
X141797021Y-188621714D01*
X142043355Y-188724000D01*
X120846141Y-188724000D01*
X121091823Y-188622486D01*
X121311714Y-188402979D01*
X121430864Y-188116032D01*
X121431136Y-187805331D01*
X121312486Y-187518177D01*
X121156000Y-187361417D01*
X121156000Y-186466881D01*
X121297039Y-186677961D01*
X121582856Y-186868938D01*
X121920000Y-186936000D01*
X122257144Y-186868938D01*
X122542961Y-186677961D01*
X122639101Y-186534078D01*
X122638718Y-186973003D01*
X122886499Y-187572680D01*
X123344907Y-188031888D01*
X123944151Y-188280716D01*
X124593003Y-188281282D01*
X125192680Y-188033501D01*
X125651888Y-187575093D01*
X125900716Y-186975849D01*
X125900718Y-186973003D01*
X126638718Y-186973003D01*
X126886499Y-187572680D01*
X127344907Y-188031888D01*
X127944151Y-188280716D01*
X128593003Y-188281282D01*
X129192680Y-188033501D01*
X129651888Y-187575093D01*
X129900716Y-186975849D01*
X129900718Y-186973003D01*
X130638718Y-186973003D01*
X130886499Y-187572680D01*
X131344907Y-188031888D01*
X131944151Y-188280716D01*
X132593003Y-188281282D01*
X133192680Y-188033501D01*
X133651888Y-187575093D01*
X133900716Y-186975849D01*
X133901282Y-186326997D01*
X133653501Y-185727320D01*
X133195093Y-185268112D01*
X132595849Y-185019284D01*
X131946997Y-185018718D01*
X131347320Y-185266499D01*
X130888112Y-185724907D01*
X130639284Y-186324151D01*
X130638718Y-186973003D01*
X129900718Y-186973003D01*
X129901282Y-186326997D01*
X129653501Y-185727320D01*
X129195093Y-185268112D01*
X128595849Y-185019284D01*
X127946997Y-185018718D01*
X127347320Y-185266499D01*
X126888112Y-185724907D01*
X126639284Y-186324151D01*
X126638718Y-186973003D01*
X125900718Y-186973003D01*
X125901282Y-186326997D01*
X125653501Y-185727320D01*
X125195093Y-185268112D01*
X124595849Y-185019284D01*
X123946997Y-185018718D01*
X123347320Y-185266499D01*
X122888112Y-185724907D01*
X122801000Y-185934696D01*
X122801000Y-182365756D01*
X122886499Y-182572680D01*
X123344907Y-183031888D01*
X123944151Y-183280716D01*
X124593003Y-183281282D01*
X125192680Y-183033501D01*
X125651888Y-182575093D01*
X125900716Y-181975849D01*
X125901282Y-181326997D01*
X125653501Y-180727320D01*
X125195093Y-180268112D01*
X124595849Y-180019284D01*
X123946997Y-180018718D01*
X123347320Y-180266499D01*
X122888112Y-180724907D01*
X122801000Y-180934696D01*
X122801000Y-175545750D01*
X125865000Y-175545750D01*
X125865000Y-175886309D01*
X125961673Y-176119698D01*
X126140301Y-176298327D01*
X126373690Y-176395000D01*
X126714250Y-176395000D01*
X126873000Y-176236250D01*
X126873000Y-175387000D01*
X127127000Y-175387000D01*
X127127000Y-176236250D01*
X127285750Y-176395000D01*
X127626310Y-176395000D01*
X127859699Y-176298327D01*
X128038327Y-176119698D01*
X128135000Y-175886309D01*
X128135000Y-175545750D01*
X127976250Y-175387000D01*
X127127000Y-175387000D01*
X126873000Y-175387000D01*
X126023750Y-175387000D01*
X125865000Y-175545750D01*
X122801000Y-175545750D01*
X122801000Y-174633691D01*
X125865000Y-174633691D01*
X125865000Y-174974250D01*
X126023750Y-175133000D01*
X126873000Y-175133000D01*
X126873000Y-174283750D01*
X126714250Y-174125000D01*
X126373690Y-174125000D01*
X126140301Y-174221673D01*
X125961673Y-174400302D01*
X125865000Y-174633691D01*
X122801000Y-174633691D01*
X122801000Y-168910000D01*
X122733938Y-168572856D01*
X122542961Y-168287039D01*
X117721000Y-163465078D01*
X117721000Y-159073003D01*
X118068718Y-159073003D01*
X118316499Y-159672680D01*
X118774907Y-160131888D01*
X119374151Y-160380716D01*
X120023003Y-160381282D01*
X120622680Y-160133501D01*
X121081888Y-159675093D01*
X121330716Y-159075849D01*
X121331282Y-158426997D01*
X121083501Y-157827320D01*
X120625093Y-157368112D01*
X120025849Y-157119284D01*
X119376997Y-157118718D01*
X118777320Y-157366499D01*
X118318112Y-157824907D01*
X118069284Y-158424151D01*
X118068718Y-159073003D01*
X117721000Y-159073003D01*
X117721000Y-156210000D01*
X117653938Y-155872856D01*
X117462961Y-155587039D01*
X117177144Y-155396062D01*
X116840000Y-155329000D01*
X115934922Y-155329000D01*
X115181000Y-154575078D01*
X115181000Y-151909289D01*
X115232856Y-151943938D01*
X115570000Y-152011000D01*
X115907144Y-151943938D01*
X116192961Y-151752961D01*
X116383938Y-151467144D01*
X116451000Y-151130000D01*
X116451000Y-147684922D01*
X117204922Y-146931000D01*
X118295465Y-146931000D01*
X117822320Y-147126499D01*
X117363112Y-147584907D01*
X117114284Y-148184151D01*
X117113718Y-148833003D01*
X117361499Y-149432680D01*
X117819907Y-149891888D01*
X118419151Y-150140716D01*
X119068003Y-150141282D01*
X119667680Y-149893501D01*
X120126888Y-149435093D01*
X120300911Y-149016000D01*
X125810000Y-149016000D01*
X126003638Y-148977483D01*
X126167796Y-148867796D01*
X127357796Y-147677796D01*
X127467483Y-147513638D01*
X127506000Y-147320000D01*
X127506000Y-145858123D01*
X127764000Y-145685733D01*
X127764000Y-149650408D01*
X127044408Y-150370000D01*
X126955592Y-150370000D01*
X126087796Y-149502204D01*
X125923638Y-149392517D01*
X125730000Y-149354000D01*
X121920000Y-149354000D01*
X121726362Y-149392517D01*
X121662643Y-149435093D01*
X121562204Y-149502204D01*
X119151595Y-151912813D01*
X119070849Y-151879284D01*
X118421997Y-151878718D01*
X117822320Y-152126499D01*
X117363112Y-152584907D01*
X117114284Y-153184151D01*
X117113718Y-153833003D01*
X117361499Y-154432680D01*
X117819907Y-154891888D01*
X118419151Y-155140716D01*
X119068003Y-155141282D01*
X119667680Y-154893501D01*
X120126888Y-154435093D01*
X120375716Y-153835849D01*
X120376282Y-153186997D01*
X120128501Y-152587320D01*
X120018483Y-152477109D01*
X122129592Y-150366000D01*
X125520408Y-150366000D01*
X126483381Y-151328973D01*
X126164907Y-151541770D01*
X125908898Y-151924914D01*
X125819000Y-152376863D01*
X125819000Y-152423137D01*
X125908898Y-152875086D01*
X126164907Y-153258230D01*
X126548051Y-153514239D01*
X127000000Y-153604137D01*
X127451949Y-153514239D01*
X127835093Y-153258230D01*
X128070446Y-152906000D01*
X128469554Y-152906000D01*
X128704907Y-153258230D01*
X129088051Y-153514239D01*
X129540000Y-153604137D01*
X129991949Y-153514239D01*
X130304000Y-153305733D01*
X130304000Y-162560000D01*
X130342517Y-162753638D01*
X130452204Y-162917796D01*
X132844000Y-165309592D01*
X132844000Y-166173859D01*
X132742486Y-165928177D01*
X132522979Y-165708286D01*
X132236032Y-165589136D01*
X131925331Y-165588864D01*
X131638177Y-165707514D01*
X131481417Y-165864000D01*
X125939592Y-165864000D01*
X124966000Y-164890408D01*
X124966000Y-157765750D01*
X126735000Y-157765750D01*
X126735000Y-158506309D01*
X126831673Y-158739698D01*
X127010301Y-158918327D01*
X127243690Y-159015000D01*
X127463566Y-159015000D01*
X127184655Y-159293425D01*
X126989223Y-159764076D01*
X126988778Y-160273689D01*
X127183388Y-160744680D01*
X127543425Y-161105345D01*
X128014076Y-161300777D01*
X128523689Y-161301222D01*
X128994680Y-161106612D01*
X129355345Y-160746575D01*
X129550777Y-160275924D01*
X129551222Y-159766311D01*
X129356612Y-159295320D01*
X129076780Y-159015000D01*
X129296310Y-159015000D01*
X129529699Y-158918327D01*
X129708327Y-158739698D01*
X129805000Y-158506309D01*
X129805000Y-157765750D01*
X129646250Y-157607000D01*
X128397000Y-157607000D01*
X128397000Y-157627000D01*
X128143000Y-157627000D01*
X128143000Y-157607000D01*
X126893750Y-157607000D01*
X126735000Y-157765750D01*
X124966000Y-157765750D01*
X124966000Y-156453691D01*
X126735000Y-156453691D01*
X126735000Y-157194250D01*
X126893750Y-157353000D01*
X128143000Y-157353000D01*
X128143000Y-156103750D01*
X128397000Y-156103750D01*
X128397000Y-157353000D01*
X129646250Y-157353000D01*
X129805000Y-157194250D01*
X129805000Y-156453691D01*
X129708327Y-156220302D01*
X129529699Y-156041673D01*
X129296310Y-155945000D01*
X128555750Y-155945000D01*
X128397000Y-156103750D01*
X128143000Y-156103750D01*
X127984250Y-155945000D01*
X127243690Y-155945000D01*
X127010301Y-156041673D01*
X126831673Y-156220302D01*
X126735000Y-156453691D01*
X124966000Y-156453691D01*
X124966000Y-153478123D01*
X125295093Y-153258230D01*
X125551102Y-152875086D01*
X125641000Y-152423137D01*
X125641000Y-152376863D01*
X125551102Y-151924914D01*
X125295093Y-151541770D01*
X124911949Y-151285761D01*
X124460000Y-151195863D01*
X124008051Y-151285761D01*
X123624907Y-151541770D01*
X123368898Y-151924914D01*
X123279000Y-152376863D01*
X123279000Y-152423137D01*
X123368898Y-152875086D01*
X123624907Y-153258230D01*
X123954000Y-153478123D01*
X123954000Y-165100000D01*
X123992517Y-165293638D01*
X124102204Y-165457796D01*
X125372204Y-166727796D01*
X125536362Y-166837483D01*
X125730000Y-166876000D01*
X131481579Y-166876000D01*
X131637021Y-167031714D01*
X131923968Y-167150864D01*
X132234669Y-167151136D01*
X132521823Y-167032486D01*
X132741714Y-166812979D01*
X132844000Y-166566645D01*
X132844000Y-172510408D01*
X131870408Y-173484000D01*
X129009719Y-173484000D01*
X128769698Y-173243560D01*
X128446011Y-173109153D01*
X128095527Y-173108847D01*
X127771605Y-173242689D01*
X127523560Y-173490302D01*
X127389153Y-173813989D01*
X127388881Y-174125000D01*
X127285750Y-174125000D01*
X127127000Y-174283750D01*
X127127000Y-175133000D01*
X127976250Y-175133000D01*
X128135000Y-174974250D01*
X128135000Y-174870883D01*
X128444473Y-174871153D01*
X128768395Y-174737311D01*
X129010127Y-174496000D01*
X129081995Y-174496000D01*
X129041605Y-174512689D01*
X128793560Y-174760302D01*
X128659153Y-175083989D01*
X128658847Y-175434473D01*
X128792689Y-175758395D01*
X129040302Y-176006440D01*
X129363989Y-176140847D01*
X129714473Y-176141153D01*
X130038395Y-176007311D01*
X130286440Y-175759698D01*
X130363962Y-175573003D01*
X134668718Y-175573003D01*
X134916499Y-176172680D01*
X135374907Y-176631888D01*
X135974151Y-176880716D01*
X136623003Y-176881282D01*
X137222680Y-176633501D01*
X137681888Y-176175093D01*
X137930716Y-175575849D01*
X137930718Y-175573003D01*
X141018718Y-175573003D01*
X141266499Y-176172680D01*
X141724907Y-176631888D01*
X142324151Y-176880716D01*
X142973003Y-176881282D01*
X143572680Y-176633501D01*
X144031888Y-176175093D01*
X144280716Y-175575849D01*
X144280718Y-175573003D01*
X147368718Y-175573003D01*
X147616499Y-176172680D01*
X148074907Y-176631888D01*
X148674151Y-176880716D01*
X149323003Y-176881282D01*
X149922680Y-176633501D01*
X150381888Y-176175093D01*
X150630716Y-175575849D01*
X150631282Y-174926997D01*
X150383501Y-174327320D01*
X149925093Y-173868112D01*
X149325849Y-173619284D01*
X148676997Y-173618718D01*
X148077320Y-173866499D01*
X147618112Y-174324907D01*
X147369284Y-174924151D01*
X147368718Y-175573003D01*
X144280718Y-175573003D01*
X144281282Y-174926997D01*
X144033501Y-174327320D01*
X143575093Y-173868112D01*
X142975849Y-173619284D01*
X142326997Y-173618718D01*
X141727320Y-173866499D01*
X141268112Y-174324907D01*
X141019284Y-174924151D01*
X141018718Y-175573003D01*
X137930718Y-175573003D01*
X137931282Y-174926997D01*
X137683501Y-174327320D01*
X137225093Y-173868112D01*
X136625849Y-173619284D01*
X135976997Y-173618718D01*
X135377320Y-173866499D01*
X134918112Y-174324907D01*
X134669284Y-174924151D01*
X134668718Y-175573003D01*
X130363962Y-175573003D01*
X130420847Y-175436011D01*
X130421153Y-175085527D01*
X130287311Y-174761605D01*
X130039698Y-174513560D01*
X129997409Y-174496000D01*
X132080000Y-174496000D01*
X132273638Y-174457483D01*
X132437796Y-174347796D01*
X133707796Y-173077796D01*
X133817483Y-172913638D01*
X133856000Y-172720000D01*
X133856000Y-165100000D01*
X133817483Y-164906362D01*
X133707796Y-164742204D01*
X131316000Y-162350408D01*
X131316000Y-159073003D01*
X134668718Y-159073003D01*
X134916499Y-159672680D01*
X135374907Y-160131888D01*
X135974151Y-160380716D01*
X136623003Y-160381282D01*
X137222680Y-160133501D01*
X137681888Y-159675093D01*
X137930716Y-159075849D01*
X137931282Y-158426997D01*
X137683501Y-157827320D01*
X137225093Y-157368112D01*
X136625849Y-157119284D01*
X135976997Y-157118718D01*
X135377320Y-157366499D01*
X134918112Y-157824907D01*
X134669284Y-158424151D01*
X134668718Y-159073003D01*
X131316000Y-159073003D01*
X131316000Y-153305733D01*
X131628051Y-153514239D01*
X132080000Y-153604137D01*
X132531949Y-153514239D01*
X132915093Y-153258230D01*
X133171102Y-152875086D01*
X133261000Y-152423137D01*
X133261000Y-152376863D01*
X133171102Y-151924914D01*
X132915093Y-151541770D01*
X132531949Y-151285761D01*
X132080000Y-151195863D01*
X131628051Y-151285761D01*
X131316000Y-151494267D01*
X131316000Y-145968464D01*
X132880000Y-145968464D01*
X133021190Y-145941897D01*
X133150865Y-145858454D01*
X133237859Y-145731134D01*
X133268464Y-145580000D01*
X133268464Y-145286000D01*
X134410408Y-145286000D01*
X136167204Y-147042796D01*
X136331362Y-147152483D01*
X136439154Y-147173924D01*
X136370331Y-147173864D01*
X136083177Y-147292514D01*
X135863286Y-147512021D01*
X135744136Y-147798968D01*
X135743864Y-148109669D01*
X135862514Y-148396823D01*
X136082021Y-148616714D01*
X136368968Y-148735864D01*
X136679669Y-148736136D01*
X136966823Y-148617486D01*
X137123583Y-148461000D01*
X141641579Y-148461000D01*
X141797021Y-148616714D01*
X142083968Y-148735864D01*
X142394669Y-148736136D01*
X142681823Y-148617486D01*
X142901714Y-148397979D01*
X143020864Y-148111032D01*
X143021136Y-147800331D01*
X142902486Y-147513177D01*
X142709502Y-147319855D01*
X142901714Y-147127979D01*
X143020864Y-146841032D01*
X143021136Y-146530331D01*
X142902486Y-146243177D01*
X142682979Y-146023286D01*
X142396032Y-145904136D01*
X142085331Y-145903864D01*
X141798177Y-146022514D01*
X141641417Y-146179000D01*
X136734592Y-146179000D01*
X134977796Y-144422204D01*
X134813638Y-144312517D01*
X134620000Y-144274000D01*
X133268464Y-144274000D01*
X133268464Y-143980000D01*
X133241897Y-143838810D01*
X133158454Y-143709135D01*
X133031134Y-143622141D01*
X132880000Y-143591536D01*
X131316000Y-143591536D01*
X131316000Y-139663421D01*
X131471714Y-139507979D01*
X131590864Y-139221032D01*
X131591136Y-138910331D01*
X131472486Y-138623177D01*
X131422400Y-138573003D01*
X134668718Y-138573003D01*
X134916499Y-139172680D01*
X135374907Y-139631888D01*
X135974151Y-139880716D01*
X136623003Y-139881282D01*
X137222680Y-139633501D01*
X137681888Y-139175093D01*
X137930716Y-138575849D01*
X137931282Y-137926997D01*
X137683501Y-137327320D01*
X137225093Y-136868112D01*
X136625849Y-136619284D01*
X135976997Y-136618718D01*
X135377320Y-136866499D01*
X134918112Y-137324907D01*
X134669284Y-137924151D01*
X134668718Y-138573003D01*
X131422400Y-138573003D01*
X131252979Y-138403286D01*
X130966032Y-138284136D01*
X130655331Y-138283864D01*
X130368177Y-138402514D01*
X130148286Y-138622021D01*
X130029136Y-138908968D01*
X130028864Y-139219669D01*
X130147514Y-139506823D01*
X130304000Y-139663583D01*
X130304000Y-143874267D01*
X129991949Y-143665761D01*
X129540000Y-143575863D01*
X129088051Y-143665761D01*
X128776000Y-143874267D01*
X128776000Y-142875000D01*
X128737483Y-142681362D01*
X128627796Y-142517204D01*
X124331000Y-138220408D01*
X124331000Y-137160000D01*
X124292483Y-136966362D01*
X124182796Y-136802204D01*
X123696000Y-136315408D01*
X123696000Y-135666881D01*
X123837039Y-135877961D01*
X124122856Y-136068938D01*
X124460000Y-136136000D01*
X134620000Y-136136000D01*
X134957144Y-136068938D01*
X135242961Y-135877961D01*
X137147961Y-133972961D01*
X137338938Y-133687144D01*
X137406000Y-133350000D01*
X137338938Y-133012856D01*
X137147961Y-132727039D01*
X136862144Y-132536062D01*
X136525000Y-132469000D01*
X136187856Y-132536062D01*
X135902039Y-132727039D01*
X134255078Y-134374000D01*
X124460000Y-134374000D01*
X124122856Y-134441062D01*
X123837039Y-134632039D01*
X123696000Y-134843119D01*
X123696000Y-125884669D01*
X132568864Y-125884669D01*
X132687514Y-126171823D01*
X132907021Y-126391714D01*
X133193968Y-126510864D01*
X133504669Y-126511136D01*
X133791823Y-126392486D01*
X134011714Y-126172979D01*
X134130864Y-125886032D01*
X134131058Y-125664534D01*
X134829592Y-124966000D01*
X137196579Y-124966000D01*
X137352021Y-125121714D01*
X137638968Y-125240864D01*
X137949669Y-125241136D01*
X138236823Y-125122486D01*
X138456714Y-124902979D01*
X138575864Y-124616032D01*
X138576136Y-124305331D01*
X138457486Y-124018177D01*
X138237979Y-123798286D01*
X137951032Y-123679136D01*
X137640331Y-123678864D01*
X137353177Y-123797514D01*
X137196417Y-123954000D01*
X134620000Y-123954000D01*
X134426362Y-123992517D01*
X134262204Y-124102204D01*
X133415351Y-124949057D01*
X133195331Y-124948864D01*
X132908177Y-125067514D01*
X132688286Y-125287021D01*
X132569136Y-125573968D01*
X132568864Y-125884669D01*
X123696000Y-125884669D01*
X123696000Y-120650000D01*
X123657483Y-120456362D01*
X123547796Y-120292204D01*
X122277796Y-119022204D01*
X122113638Y-118912517D01*
X121920000Y-118874000D01*
X118110000Y-118874000D01*
X117916362Y-118912517D01*
X117752204Y-119022204D01*
X117273898Y-119500510D01*
X116864117Y-119419000D01*
X116815883Y-119419000D01*
X116344800Y-119512704D01*
X115945435Y-119779552D01*
X115678587Y-120178917D01*
X115584883Y-120650000D01*
X115678587Y-121121083D01*
X115945435Y-121520448D01*
X116344800Y-121787296D01*
X116815883Y-121881000D01*
X116864117Y-121881000D01*
X117335200Y-121787296D01*
X117734565Y-121520448D01*
X118001413Y-121121083D01*
X118095117Y-120650000D01*
X118005604Y-120199988D01*
X118319592Y-119886000D01*
X121710408Y-119886000D01*
X121714341Y-119889933D01*
X121478177Y-119987514D01*
X121258286Y-120207021D01*
X121139136Y-120493968D01*
X121138942Y-120715466D01*
X119022204Y-122832204D01*
X118912517Y-122996362D01*
X118874000Y-123190000D01*
X118874000Y-134656579D01*
X118718286Y-134812021D01*
X118599136Y-135098968D01*
X118598864Y-135409669D01*
X118717514Y-135696823D01*
X118937021Y-135916714D01*
X119223968Y-136035864D01*
X119534669Y-136036136D01*
X119821823Y-135917486D01*
X120041714Y-135697979D01*
X120160864Y-135411032D01*
X120161136Y-135100331D01*
X120042486Y-134813177D01*
X119886000Y-134656417D01*
X119886000Y-123399592D01*
X121854649Y-121430943D01*
X122074669Y-121431136D01*
X122361823Y-121312486D01*
X122581714Y-121092979D01*
X122680201Y-120855793D01*
X122684000Y-120859592D01*
X122684000Y-122993859D01*
X122582486Y-122748177D01*
X122362979Y-122528286D01*
X122076032Y-122409136D01*
X121765331Y-122408864D01*
X121478177Y-122527514D01*
X121258286Y-122747021D01*
X121139136Y-123033968D01*
X121138864Y-123344669D01*
X121257514Y-123631823D01*
X121414000Y-123788583D01*
X121414000Y-135291579D01*
X121258286Y-135447021D01*
X121139136Y-135733968D01*
X121138864Y-136044669D01*
X121257514Y-136331823D01*
X121477021Y-136551714D01*
X121763968Y-136670864D01*
X122074669Y-136671136D01*
X122361823Y-136552486D01*
X122581714Y-136332979D01*
X122684000Y-136086645D01*
X122684000Y-136525000D01*
X122722517Y-136718638D01*
X122832204Y-136882796D01*
X123319000Y-137369592D01*
X123319000Y-138430000D01*
X123357517Y-138623638D01*
X123467204Y-138787796D01*
X127764000Y-143084592D01*
X127764000Y-143874267D01*
X127451949Y-143665761D01*
X127000000Y-143575863D01*
X126548051Y-143665761D01*
X126164907Y-143921770D01*
X125908898Y-144304914D01*
X125819000Y-144756863D01*
X125819000Y-144803137D01*
X125908898Y-145255086D01*
X126164907Y-145638230D01*
X126494000Y-145858123D01*
X126494000Y-147110408D01*
X125600408Y-148004000D01*
X120300669Y-148004000D01*
X120128501Y-147587320D01*
X119670093Y-147128112D01*
X119070849Y-146879284D01*
X119005282Y-146879227D01*
X119082144Y-146863938D01*
X119367961Y-146672961D01*
X119558938Y-146387144D01*
X119626000Y-146050000D01*
X119558938Y-145712856D01*
X119367961Y-145427039D01*
X119252839Y-145350117D01*
X119769467Y-145136123D01*
X119898715Y-144843320D01*
X119812258Y-144756863D01*
X123279000Y-144756863D01*
X123279000Y-144803137D01*
X123368898Y-145255086D01*
X123624907Y-145638230D01*
X124008051Y-145894239D01*
X124460000Y-145984137D01*
X124911949Y-145894239D01*
X125295093Y-145638230D01*
X125551102Y-145255086D01*
X125641000Y-144803137D01*
X125641000Y-144756863D01*
X125551102Y-144304914D01*
X125295093Y-143921770D01*
X124911949Y-143665761D01*
X124460000Y-143575863D01*
X124008051Y-143665761D01*
X123624907Y-143921770D01*
X123368898Y-144304914D01*
X123279000Y-144756863D01*
X119812258Y-144756863D01*
X118745000Y-143689605D01*
X117591285Y-144843320D01*
X117720533Y-145136123D01*
X117806354Y-145169000D01*
X116840000Y-145169000D01*
X116502856Y-145236062D01*
X116217039Y-145427039D01*
X115181000Y-146463078D01*
X115181000Y-143185806D01*
X116850612Y-143185806D01*
X116870750Y-143935435D01*
X117118877Y-144534467D01*
X117411680Y-144663715D01*
X118565395Y-143510000D01*
X118924605Y-143510000D01*
X120078320Y-144663715D01*
X120371123Y-144534467D01*
X120639388Y-143834194D01*
X120619250Y-143084565D01*
X120371123Y-142485533D01*
X120078320Y-142356285D01*
X118924605Y-143510000D01*
X118565395Y-143510000D01*
X117411680Y-142356285D01*
X117118877Y-142485533D01*
X116850612Y-143185806D01*
X115181000Y-143185806D01*
X115181000Y-133676592D01*
X116334000Y-134829592D01*
X116334000Y-139700000D01*
X116372517Y-139893638D01*
X116482204Y-140057796D01*
X117329057Y-140904649D01*
X117328864Y-141124669D01*
X117447514Y-141411823D01*
X117667021Y-141631714D01*
X117953968Y-141750864D01*
X118041470Y-141750941D01*
X117720533Y-141883877D01*
X117591285Y-142176680D01*
X118745000Y-143330395D01*
X119898715Y-142176680D01*
X119769467Y-141883877D01*
X119069194Y-141615612D01*
X118554886Y-141629428D01*
X118771714Y-141412979D01*
X118890864Y-141126032D01*
X118891136Y-140815331D01*
X118772486Y-140528177D01*
X118552979Y-140308286D01*
X118266032Y-140189136D01*
X118044534Y-140188942D01*
X117346000Y-139490408D01*
X117346000Y-134620000D01*
X117307483Y-134426362D01*
X117197796Y-134262204D01*
X114806000Y-131870408D01*
X114806000Y-130138421D01*
X114961714Y-129982979D01*
X115080864Y-129696032D01*
X115081136Y-129385331D01*
X114962486Y-129098177D01*
X114742979Y-128878286D01*
X114456032Y-128759136D01*
X114145331Y-128758864D01*
X113899738Y-128860341D01*
X113890995Y-126361917D01*
X113822753Y-126025010D01*
X113630777Y-125739863D01*
X113344294Y-125549887D01*
X113006917Y-125484005D01*
X112670010Y-125552247D01*
X112384863Y-125744223D01*
X112194887Y-126030706D01*
X112129005Y-126368083D01*
X112149005Y-132083083D01*
X112182830Y-132250074D01*
X112216062Y-132417144D01*
X112216935Y-132418451D01*
X112217247Y-132419990D01*
X112312346Y-132561243D01*
X112407039Y-132702961D01*
X113419000Y-133714922D01*
X113419000Y-151400078D01*
X113300078Y-151519000D01*
X111663223Y-151519000D01*
X111651897Y-151458810D01*
X111568454Y-151329135D01*
X111441134Y-151242141D01*
X111290000Y-151211536D01*
X109690000Y-151211536D01*
X109548810Y-151238103D01*
X109419135Y-151321546D01*
X109332141Y-151448866D01*
X109317939Y-151519000D01*
X107044922Y-151519000D01*
X106553090Y-151027168D01*
X106553198Y-150903641D01*
X106379554Y-150483388D01*
X106058303Y-150161577D01*
X105638354Y-149987199D01*
X105444340Y-149987030D01*
X105757368Y-149971362D01*
X106141143Y-149812397D01*
X106210608Y-149570213D01*
X105410000Y-148769605D01*
X104609392Y-149570213D01*
X104678857Y-149812397D01*
X105176258Y-149989852D01*
X104763388Y-150160446D01*
X104441577Y-150481697D01*
X104267199Y-150901646D01*
X104266802Y-151356359D01*
X104440446Y-151776612D01*
X104761697Y-152098423D01*
X105181646Y-152272801D01*
X105306988Y-152272910D01*
X106057039Y-153022961D01*
X106342856Y-153213938D01*
X106680000Y-153281000D01*
X109316777Y-153281000D01*
X109328103Y-153341190D01*
X109388819Y-153435545D01*
X109367378Y-153456986D01*
X109482253Y-153571861D01*
X109236136Y-153645995D01*
X109043035Y-154183223D01*
X109070222Y-154753454D01*
X109236136Y-155154005D01*
X109482255Y-155228139D01*
X110310395Y-154400000D01*
X110296252Y-154385858D01*
X110475858Y-154206252D01*
X110490000Y-154220395D01*
X110504142Y-154206252D01*
X110683748Y-154385858D01*
X110669605Y-154400000D01*
X111497745Y-155228139D01*
X111743864Y-155154005D01*
X111936965Y-154616777D01*
X111909778Y-154046546D01*
X111743864Y-153645995D01*
X111497747Y-153571861D01*
X111612622Y-153456986D01*
X111590588Y-153434952D01*
X111647859Y-153351134D01*
X111662061Y-153281000D01*
X113300078Y-153281000D01*
X113419000Y-153399922D01*
X113419000Y-154940000D01*
X113486062Y-155277144D01*
X113677039Y-155562961D01*
X114947039Y-156832961D01*
X115232856Y-157023938D01*
X115570000Y-157091000D01*
X115959000Y-157091000D01*
X115959000Y-163830000D01*
X116026062Y-164167144D01*
X116217039Y-164452961D01*
X121039000Y-169274922D01*
X121039000Y-174282741D01*
X120625093Y-173868112D01*
X120025849Y-173619284D01*
X119376997Y-173618718D01*
X118777320Y-173866499D01*
X118318112Y-174324907D01*
X118144089Y-174744000D01*
X116850000Y-174744000D01*
X116656362Y-174782517D01*
X116593433Y-174824565D01*
X116492204Y-174892204D01*
X114090408Y-177294000D01*
X107950000Y-177294000D01*
X107756362Y-177332517D01*
X107592204Y-177442204D01*
X106322204Y-178712204D01*
X106212517Y-178876362D01*
X106174000Y-179070000D01*
X106174000Y-181400408D01*
X105328464Y-182245944D01*
X105328464Y-182080000D01*
X105301897Y-181938810D01*
X105218454Y-181809135D01*
X105091134Y-181722141D01*
X104988794Y-181701417D01*
X105140619Y-181549856D01*
X105320794Y-181115946D01*
X105321204Y-180646115D01*
X105141787Y-180211891D01*
X104809856Y-179879381D01*
X104646000Y-179811342D01*
X104646000Y-176583320D01*
X105846285Y-176583320D01*
X105975533Y-176876123D01*
X106675806Y-177144388D01*
X107425435Y-177124250D01*
X108024467Y-176876123D01*
X108153715Y-176583320D01*
X107000000Y-175429605D01*
X105846285Y-176583320D01*
X104646000Y-176583320D01*
X104646000Y-174925806D01*
X105105612Y-174925806D01*
X105125750Y-175675435D01*
X105373877Y-176274467D01*
X105666680Y-176403715D01*
X106820395Y-175250000D01*
X107179605Y-175250000D01*
X108333320Y-176403715D01*
X108626123Y-176274467D01*
X108894388Y-175574194D01*
X108894357Y-175573003D01*
X111718718Y-175573003D01*
X111966499Y-176172680D01*
X112424907Y-176631888D01*
X113024151Y-176880716D01*
X113673003Y-176881282D01*
X114272680Y-176633501D01*
X114731888Y-176175093D01*
X114980716Y-175575849D01*
X114981282Y-174926997D01*
X114733501Y-174327320D01*
X114275093Y-173868112D01*
X113675849Y-173619284D01*
X113026997Y-173618718D01*
X112427320Y-173866499D01*
X111968112Y-174324907D01*
X111719284Y-174924151D01*
X111718718Y-175573003D01*
X108894357Y-175573003D01*
X108874250Y-174824565D01*
X108626123Y-174225533D01*
X108333320Y-174096285D01*
X107179605Y-175250000D01*
X106820395Y-175250000D01*
X105666680Y-174096285D01*
X105373877Y-174225533D01*
X105105612Y-174925806D01*
X104646000Y-174925806D01*
X104646000Y-173916680D01*
X105846285Y-173916680D01*
X107000000Y-175070395D01*
X108153715Y-173916680D01*
X108024467Y-173623877D01*
X107324194Y-173355612D01*
X106574565Y-173375750D01*
X105975533Y-173623877D01*
X105846285Y-173916680D01*
X104646000Y-173916680D01*
X104646000Y-172085000D01*
X104607483Y-171891362D01*
X104497796Y-171727204D01*
X103376000Y-170605408D01*
X103376000Y-159073003D01*
X105368718Y-159073003D01*
X105616499Y-159672680D01*
X106074907Y-160131888D01*
X106674151Y-160380716D01*
X107323003Y-160381282D01*
X107922680Y-160133501D01*
X108381888Y-159675093D01*
X108630716Y-159075849D01*
X108630718Y-159073003D01*
X111718718Y-159073003D01*
X111966499Y-159672680D01*
X112424907Y-160131888D01*
X113024151Y-160380716D01*
X113673003Y-160381282D01*
X114272680Y-160133501D01*
X114731888Y-159675093D01*
X114980716Y-159075849D01*
X114981282Y-158426997D01*
X114733501Y-157827320D01*
X114275093Y-157368112D01*
X113675849Y-157119284D01*
X113026997Y-157118718D01*
X112427320Y-157366499D01*
X111968112Y-157824907D01*
X111719284Y-158424151D01*
X111718718Y-159073003D01*
X108630718Y-159073003D01*
X108631282Y-158426997D01*
X108383501Y-157827320D01*
X107925093Y-157368112D01*
X107325849Y-157119284D01*
X106676997Y-157118718D01*
X106077320Y-157366499D01*
X105618112Y-157824907D01*
X105369284Y-158424151D01*
X105368718Y-159073003D01*
X103376000Y-159073003D01*
X103376000Y-155407745D01*
X109661861Y-155407745D01*
X109735995Y-155653864D01*
X110273223Y-155846965D01*
X110843454Y-155819778D01*
X111244005Y-155653864D01*
X111318139Y-155407745D01*
X110490000Y-154579605D01*
X109661861Y-155407745D01*
X103376000Y-155407745D01*
X103376000Y-148382302D01*
X104000856Y-148382302D01*
X104028638Y-148937368D01*
X104187603Y-149321143D01*
X104429787Y-149390608D01*
X105230395Y-148590000D01*
X105589605Y-148590000D01*
X106390213Y-149390608D01*
X106632397Y-149321143D01*
X106791297Y-148875750D01*
X109055000Y-148875750D01*
X109055000Y-149516309D01*
X109151673Y-149749698D01*
X109330301Y-149928327D01*
X109563690Y-150025000D01*
X110204250Y-150025000D01*
X110363000Y-149866250D01*
X110363000Y-148717000D01*
X110617000Y-148717000D01*
X110617000Y-149866250D01*
X110775750Y-150025000D01*
X111416310Y-150025000D01*
X111649699Y-149928327D01*
X111828327Y-149749698D01*
X111925000Y-149516309D01*
X111925000Y-148875750D01*
X111766250Y-148717000D01*
X110617000Y-148717000D01*
X110363000Y-148717000D01*
X109213750Y-148717000D01*
X109055000Y-148875750D01*
X106791297Y-148875750D01*
X106819144Y-148797698D01*
X106791362Y-148242632D01*
X106632397Y-147858857D01*
X106390213Y-147789392D01*
X105589605Y-148590000D01*
X105230395Y-148590000D01*
X104429787Y-147789392D01*
X104187603Y-147858857D01*
X104000856Y-148382302D01*
X103376000Y-148382302D01*
X103376000Y-146276359D01*
X104266802Y-146276359D01*
X104440446Y-146696612D01*
X104761697Y-147018423D01*
X105181646Y-147192801D01*
X105375660Y-147192970D01*
X105062632Y-147208638D01*
X104678857Y-147367603D01*
X104609392Y-147609787D01*
X105410000Y-148410395D01*
X106210608Y-147609787D01*
X106141143Y-147367603D01*
X105643742Y-147190148D01*
X106056612Y-147019554D01*
X106145320Y-146931000D01*
X107585078Y-146931000D01*
X107867039Y-147212961D01*
X108152856Y-147403938D01*
X108490000Y-147471000D01*
X109134815Y-147471000D01*
X109055000Y-147663691D01*
X109055000Y-148304250D01*
X109213750Y-148463000D01*
X110363000Y-148463000D01*
X110363000Y-148443000D01*
X110617000Y-148443000D01*
X110617000Y-148463000D01*
X111766250Y-148463000D01*
X111925000Y-148304250D01*
X111925000Y-147663691D01*
X111828327Y-147430302D01*
X111649699Y-147251673D01*
X111516864Y-147196651D01*
X111670794Y-146825946D01*
X111671204Y-146356115D01*
X111491787Y-145921891D01*
X111159856Y-145589381D01*
X110725946Y-145409206D01*
X110256115Y-145408796D01*
X109821891Y-145588213D01*
X109700893Y-145709000D01*
X108854922Y-145709000D01*
X108572961Y-145427039D01*
X108287144Y-145236062D01*
X107950000Y-145169000D01*
X106145574Y-145169000D01*
X106058303Y-145081577D01*
X105638354Y-144907199D01*
X105183641Y-144906802D01*
X104763388Y-145080446D01*
X104441577Y-145401697D01*
X104267199Y-145821646D01*
X104266802Y-146276359D01*
X103376000Y-146276359D01*
X103376000Y-144989592D01*
X104349592Y-144016000D01*
X104811579Y-144016000D01*
X104967021Y-144171714D01*
X105253968Y-144290864D01*
X105564669Y-144291136D01*
X105851823Y-144172486D01*
X106071714Y-143952979D01*
X106190864Y-143666032D01*
X106191136Y-143355331D01*
X106072486Y-143068177D01*
X105852979Y-142848286D01*
X105566032Y-142729136D01*
X105255331Y-142728864D01*
X104968177Y-142847514D01*
X104811417Y-143004000D01*
X104140000Y-143004000D01*
X103946362Y-143042517D01*
X103782204Y-143152204D01*
X102512204Y-144422204D01*
X102402517Y-144586362D01*
X102364000Y-144780000D01*
X102364000Y-170815000D01*
X102402517Y-171008638D01*
X102512204Y-171172796D01*
X103634000Y-172294592D01*
X103634000Y-179811231D01*
X103471891Y-179878213D01*
X103139381Y-180210144D01*
X102959206Y-180644054D01*
X102958796Y-181113885D01*
X103138213Y-181548109D01*
X103290658Y-181700820D01*
X103198810Y-181718103D01*
X103069135Y-181801546D01*
X102982141Y-181928866D01*
X102951536Y-182080000D01*
X102951536Y-183680000D01*
X102978103Y-183821190D01*
X103061546Y-183950865D01*
X103188866Y-184037859D01*
X103340000Y-184068464D01*
X104940000Y-184068464D01*
X105081190Y-184041897D01*
X105210865Y-183958454D01*
X105297859Y-183831134D01*
X105328464Y-183680000D01*
X105328464Y-183386000D01*
X105410000Y-183386000D01*
X105603638Y-183347483D01*
X105767796Y-183237796D01*
X107037796Y-181967796D01*
X107147483Y-181803638D01*
X107186000Y-181610000D01*
X107186000Y-179279592D01*
X108159592Y-178306000D01*
X114300000Y-178306000D01*
X114493638Y-178267483D01*
X114657796Y-178157796D01*
X117059592Y-175756000D01*
X118144331Y-175756000D01*
X118316499Y-176172680D01*
X118774907Y-176631888D01*
X119374151Y-176880716D01*
X120023003Y-176881282D01*
X120622680Y-176633501D01*
X121039000Y-176217906D01*
X121039000Y-182195872D01*
X120806032Y-182099136D01*
X120495331Y-182098864D01*
X120208177Y-182217514D01*
X119988286Y-182437021D01*
X119869136Y-182723968D01*
X119868864Y-183034669D01*
X119987514Y-183321823D01*
X120144000Y-183478583D01*
X120144000Y-187361579D01*
X119988286Y-187517021D01*
X119869136Y-187803968D01*
X119868864Y-188114669D01*
X119987514Y-188401823D01*
X120207021Y-188621714D01*
X120453355Y-188724000D01*
X108159592Y-188724000D01*
X107186000Y-187750408D01*
X107186000Y-184748421D01*
X107341714Y-184592979D01*
X107460864Y-184306032D01*
X107461136Y-183995331D01*
X107342486Y-183708177D01*
X107122979Y-183488286D01*
X106836032Y-183369136D01*
X106525331Y-183368864D01*
X106238177Y-183487514D01*
X106018286Y-183707021D01*
X105899136Y-183993968D01*
X105898864Y-184304669D01*
X106017514Y-184591823D01*
X106174000Y-184748583D01*
X106174000Y-187960000D01*
X106212517Y-188153638D01*
X106322204Y-188317796D01*
X107573408Y-189569000D01*
X100431000Y-189569000D01*
X100431000Y-141950213D01*
X104609392Y-141950213D01*
X104678857Y-142192397D01*
X105202302Y-142379144D01*
X105757368Y-142351362D01*
X106141143Y-142192397D01*
X106210608Y-141950213D01*
X105410000Y-141149605D01*
X104609392Y-141950213D01*
X100431000Y-141950213D01*
X100431000Y-140762302D01*
X104000856Y-140762302D01*
X104028638Y-141317368D01*
X104187603Y-141701143D01*
X104429787Y-141770608D01*
X105230395Y-140970000D01*
X105589605Y-140970000D01*
X106390213Y-141770608D01*
X106632397Y-141701143D01*
X106809000Y-141206131D01*
X106809000Y-142875000D01*
X106847517Y-143068638D01*
X106957204Y-143232796D01*
X108227204Y-144502796D01*
X108391362Y-144612483D01*
X108585000Y-144651000D01*
X111796579Y-144651000D01*
X111952021Y-144806714D01*
X112238968Y-144925864D01*
X112549669Y-144926136D01*
X112836823Y-144807486D01*
X113056714Y-144587979D01*
X113175864Y-144301032D01*
X113176136Y-143990331D01*
X113057486Y-143703177D01*
X112837979Y-143483286D01*
X112551032Y-143364136D01*
X112240331Y-143363864D01*
X111953177Y-143482514D01*
X111796417Y-143639000D01*
X108794592Y-143639000D01*
X107821000Y-142665408D01*
X107821000Y-130138421D01*
X107976714Y-129982979D01*
X108095864Y-129696032D01*
X108096136Y-129385331D01*
X107977486Y-129098177D01*
X107757979Y-128878286D01*
X107471032Y-128759136D01*
X107160331Y-128758864D01*
X106873177Y-128877514D01*
X106653286Y-129097021D01*
X106534136Y-129383968D01*
X106533864Y-129694669D01*
X106652514Y-129981823D01*
X106809000Y-130138583D01*
X106809000Y-140975028D01*
X106791362Y-140622632D01*
X106632397Y-140238857D01*
X106390213Y-140169392D01*
X105589605Y-140970000D01*
X105230395Y-140970000D01*
X104429787Y-140169392D01*
X104187603Y-140238857D01*
X104000856Y-140762302D01*
X100431000Y-140762302D01*
X100431000Y-132500000D01*
X101631536Y-132500000D01*
X101631536Y-134200000D01*
X101658103Y-134341190D01*
X101741546Y-134470865D01*
X101868866Y-134557859D01*
X101989000Y-134582186D01*
X101989000Y-137160000D01*
X102056062Y-137497144D01*
X102247039Y-137782961D01*
X103517039Y-139052961D01*
X103802856Y-139243938D01*
X104140000Y-139311000D01*
X104674426Y-139311000D01*
X104761697Y-139398423D01*
X105181646Y-139572801D01*
X105375660Y-139572970D01*
X105062632Y-139588638D01*
X104678857Y-139747603D01*
X104609392Y-139989787D01*
X105410000Y-140790395D01*
X106210608Y-139989787D01*
X106141143Y-139747603D01*
X105643742Y-139570148D01*
X106056612Y-139399554D01*
X106378423Y-139078303D01*
X106552801Y-138658354D01*
X106553198Y-138203641D01*
X106379554Y-137783388D01*
X106058303Y-137461577D01*
X105638354Y-137287199D01*
X105183641Y-137286802D01*
X104763388Y-137460446D01*
X104674680Y-137549000D01*
X104504922Y-137549000D01*
X103751000Y-136795078D01*
X103751000Y-134582631D01*
X103861190Y-134561897D01*
X103990865Y-134478454D01*
X104077859Y-134351134D01*
X104108464Y-134200000D01*
X104108464Y-132500000D01*
X104081897Y-132358810D01*
X103998454Y-132229135D01*
X103871134Y-132142141D01*
X103720000Y-132111536D01*
X102020000Y-132111536D01*
X101878810Y-132138103D01*
X101749135Y-132221546D01*
X101662141Y-132348866D01*
X101631536Y-132500000D01*
X100431000Y-132500000D01*
X100431000Y-130810000D01*
X101614883Y-130810000D01*
X101708587Y-131281083D01*
X101975435Y-131680448D01*
X102374800Y-131947296D01*
X102845883Y-132041000D01*
X102894117Y-132041000D01*
X103365200Y-131947296D01*
X103764565Y-131680448D01*
X104031413Y-131281083D01*
X104125117Y-130810000D01*
X104031413Y-130338917D01*
X103764565Y-129939552D01*
X103365200Y-129672704D01*
X102894117Y-129579000D01*
X102845883Y-129579000D01*
X102374800Y-129672704D01*
X101975435Y-129939552D01*
X101708587Y-130338917D01*
X101614883Y-130810000D01*
X100431000Y-130810000D01*
X100431000Y-128270000D01*
X101614883Y-128270000D01*
X101708587Y-128741083D01*
X101975435Y-129140448D01*
X102374800Y-129407296D01*
X102845883Y-129501000D01*
X102894117Y-129501000D01*
X103365200Y-129407296D01*
X103764565Y-129140448D01*
X104031413Y-128741083D01*
X104125117Y-128270000D01*
X104031413Y-127798917D01*
X103764565Y-127399552D01*
X103365200Y-127132704D01*
X102894117Y-127039000D01*
X102845883Y-127039000D01*
X102374800Y-127132704D01*
X101975435Y-127399552D01*
X101708587Y-127798917D01*
X101614883Y-128270000D01*
X100431000Y-128270000D01*
X100431000Y-120363655D01*
X102743000Y-120363655D01*
X102743000Y-120936345D01*
X102849340Y-121470954D01*
X103152172Y-121924173D01*
X103605391Y-122227005D01*
X104140000Y-122333345D01*
X104674609Y-122227005D01*
X105127828Y-121924173D01*
X105260363Y-121725821D01*
X105602370Y-122161236D01*
X106165523Y-122477926D01*
X106297056Y-122509975D01*
X106553000Y-122390836D01*
X106553000Y-120777000D01*
X106533000Y-120777000D01*
X106533000Y-120523000D01*
X106553000Y-120523000D01*
X106553000Y-118909164D01*
X106807000Y-118909164D01*
X106807000Y-120523000D01*
X106827000Y-120523000D01*
X106827000Y-120777000D01*
X106807000Y-120777000D01*
X106807000Y-122390836D01*
X107062944Y-122509975D01*
X107194477Y-122477926D01*
X107757630Y-122161236D01*
X108099637Y-121725821D01*
X108232172Y-121924173D01*
X108685391Y-122227005D01*
X109220000Y-122333345D01*
X109754609Y-122227005D01*
X110207828Y-121924173D01*
X110510660Y-121470954D01*
X110617000Y-120936345D01*
X110617000Y-120363655D01*
X110510660Y-119829046D01*
X110207828Y-119375827D01*
X109754609Y-119072995D01*
X109220000Y-118966655D01*
X108685391Y-119072995D01*
X108232172Y-119375827D01*
X108099637Y-119574179D01*
X107757630Y-119138764D01*
X107194477Y-118822074D01*
X107062944Y-118790025D01*
X106807000Y-118909164D01*
X106553000Y-118909164D01*
X106297056Y-118790025D01*
X106165523Y-118822074D01*
X105602370Y-119138764D01*
X105260363Y-119574179D01*
X105127828Y-119375827D01*
X104674609Y-119072995D01*
X104140000Y-118966655D01*
X103605391Y-119072995D01*
X103152172Y-119375827D01*
X102849340Y-119829046D01*
X102743000Y-120363655D01*
X100431000Y-120363655D01*
X100431000Y-113122022D01*
X103458631Y-113122022D01*
X103782373Y-113905538D01*
X104381309Y-114505521D01*
X105164258Y-114830630D01*
X106012022Y-114831369D01*
X106795538Y-114507627D01*
X107395521Y-113908691D01*
X107720630Y-113125742D01*
X107721369Y-112277978D01*
X107397627Y-111494462D01*
X106798691Y-110894479D01*
X106015742Y-110569370D01*
X105167978Y-110568631D01*
X104384462Y-110892373D01*
X103784479Y-111491309D01*
X103459370Y-112274258D01*
X103458631Y-113122022D01*
X100431000Y-113122022D01*
X100431000Y-108422022D01*
X103458631Y-108422022D01*
X103782373Y-109205538D01*
X104381309Y-109805521D01*
X105164258Y-110130630D01*
X106012022Y-110131369D01*
X106795538Y-109807627D01*
X107395521Y-109208691D01*
X107444000Y-109091941D01*
X107444000Y-110490000D01*
X107482517Y-110683638D01*
X107592204Y-110847796D01*
X108496283Y-111751875D01*
X108279370Y-112274258D01*
X108278631Y-113122022D01*
X108602373Y-113905538D01*
X109201309Y-114505521D01*
X109984258Y-114830630D01*
X110832022Y-114831369D01*
X111615538Y-114507627D01*
X112215521Y-113908691D01*
X112540630Y-113125742D01*
X112541369Y-112277978D01*
X112217627Y-111494462D01*
X111618691Y-110894479D01*
X110835742Y-110569370D01*
X109987978Y-110568631D01*
X109204462Y-110892373D01*
X109136154Y-110960562D01*
X108456000Y-110280408D01*
X108456000Y-108851288D01*
X108602373Y-109205538D01*
X109201309Y-109805521D01*
X109984258Y-110130630D01*
X110832022Y-110131369D01*
X111615538Y-109807627D01*
X112215521Y-109208691D01*
X112528066Y-108456000D01*
X112820408Y-108456000D01*
X113159000Y-108794592D01*
X113159000Y-121920000D01*
X113197517Y-122113638D01*
X113307204Y-122277796D01*
X114154057Y-123124649D01*
X114153864Y-123344669D01*
X114272514Y-123631823D01*
X114492021Y-123851714D01*
X114778968Y-123970864D01*
X115089669Y-123971136D01*
X115376823Y-123852486D01*
X115596714Y-123632979D01*
X115715864Y-123346032D01*
X115716136Y-123035331D01*
X115597486Y-122748177D01*
X115377979Y-122528286D01*
X115091032Y-122409136D01*
X114869534Y-122408942D01*
X114171000Y-121710408D01*
X114171000Y-118110000D01*
X115584883Y-118110000D01*
X115678587Y-118581083D01*
X115945435Y-118980448D01*
X116344800Y-119247296D01*
X116815883Y-119341000D01*
X116864117Y-119341000D01*
X117335200Y-119247296D01*
X117734565Y-118980448D01*
X117833399Y-118832532D01*
X123297073Y-118832532D01*
X123395736Y-119099387D01*
X124005461Y-119325908D01*
X124655460Y-119301856D01*
X125144264Y-119099387D01*
X125242927Y-118832532D01*
X124270000Y-117859605D01*
X123297073Y-118832532D01*
X117833399Y-118832532D01*
X118001413Y-118581083D01*
X118095117Y-118110000D01*
X118001413Y-117638917D01*
X117852105Y-117415461D01*
X122624092Y-117415461D01*
X122648144Y-118065460D01*
X122850613Y-118554264D01*
X123117468Y-118652927D01*
X124090395Y-117680000D01*
X124449605Y-117680000D01*
X125422532Y-118652927D01*
X125689387Y-118554264D01*
X125912581Y-117953493D01*
X126888761Y-117953493D01*
X127098563Y-118461251D01*
X127486705Y-118850072D01*
X127994097Y-119060759D01*
X128543493Y-119061239D01*
X129051251Y-118851437D01*
X129440072Y-118463295D01*
X129650759Y-117955903D01*
X129651239Y-117406507D01*
X129441437Y-116898749D01*
X129053295Y-116509928D01*
X128545903Y-116299241D01*
X127996507Y-116298761D01*
X127488749Y-116508563D01*
X127099928Y-116896705D01*
X126889241Y-117404097D01*
X126888761Y-117953493D01*
X125912581Y-117953493D01*
X125915908Y-117944539D01*
X125891856Y-117294540D01*
X125689387Y-116805736D01*
X125422532Y-116707073D01*
X124449605Y-117680000D01*
X124090395Y-117680000D01*
X123117468Y-116707073D01*
X122850613Y-116805736D01*
X122624092Y-117415461D01*
X117852105Y-117415461D01*
X117734565Y-117239552D01*
X117335200Y-116972704D01*
X116864117Y-116879000D01*
X116815883Y-116879000D01*
X116344800Y-116972704D01*
X115945435Y-117239552D01*
X115678587Y-117638917D01*
X115584883Y-118110000D01*
X114171000Y-118110000D01*
X114171000Y-114720000D01*
X115601536Y-114720000D01*
X115601536Y-116420000D01*
X115628103Y-116561190D01*
X115711546Y-116690865D01*
X115838866Y-116777859D01*
X115990000Y-116808464D01*
X117690000Y-116808464D01*
X117831190Y-116781897D01*
X117960865Y-116698454D01*
X118047859Y-116571134D01*
X118056701Y-116527468D01*
X123297073Y-116527468D01*
X124270000Y-117500395D01*
X125242927Y-116527468D01*
X125144264Y-116260613D01*
X124534539Y-116034092D01*
X123884540Y-116058144D01*
X123395736Y-116260613D01*
X123297073Y-116527468D01*
X118056701Y-116527468D01*
X118078464Y-116420000D01*
X118078464Y-114720000D01*
X118051897Y-114578810D01*
X117968454Y-114449135D01*
X117841134Y-114362141D01*
X117690000Y-114331536D01*
X115990000Y-114331536D01*
X115848810Y-114358103D01*
X115719135Y-114441546D01*
X115632141Y-114568866D01*
X115601536Y-114720000D01*
X114171000Y-114720000D01*
X114171000Y-112981592D01*
X114577204Y-113387796D01*
X114741362Y-113497483D01*
X114935000Y-113536000D01*
X117511579Y-113536000D01*
X117667021Y-113691714D01*
X117953968Y-113810864D01*
X118264669Y-113811136D01*
X118551823Y-113692486D01*
X118771714Y-113472979D01*
X118890864Y-113186032D01*
X118891136Y-112875331D01*
X118772486Y-112588177D01*
X118552979Y-112368286D01*
X118266032Y-112249136D01*
X117955331Y-112248864D01*
X117668177Y-112367514D01*
X117511417Y-112524000D01*
X115144592Y-112524000D01*
X114806000Y-112185408D01*
X114806000Y-108120000D01*
X115351536Y-108120000D01*
X115351536Y-110320000D01*
X115378103Y-110461190D01*
X115461546Y-110590865D01*
X115588866Y-110677859D01*
X115740000Y-110708464D01*
X117940000Y-110708464D01*
X118081190Y-110681897D01*
X118210865Y-110598454D01*
X118297859Y-110471134D01*
X118328464Y-110320000D01*
X118328464Y-108120000D01*
X118301897Y-107978810D01*
X118218454Y-107849135D01*
X118091134Y-107762141D01*
X117940000Y-107731536D01*
X115740000Y-107731536D01*
X115598810Y-107758103D01*
X115469135Y-107841546D01*
X115382141Y-107968866D01*
X115351536Y-108120000D01*
X114806000Y-108120000D01*
X114806000Y-107151532D01*
X119188587Y-107151532D01*
X119550309Y-108026966D01*
X120219511Y-108697337D01*
X121094312Y-109060586D01*
X122041532Y-109061413D01*
X122916966Y-108699691D01*
X123587337Y-108030489D01*
X123950586Y-107155688D01*
X123951413Y-106208468D01*
X123589691Y-105333034D01*
X122920489Y-104662663D01*
X122045688Y-104299414D01*
X121098468Y-104298587D01*
X120223034Y-104660309D01*
X119552663Y-105329511D01*
X119189414Y-106204312D01*
X119188587Y-107151532D01*
X114806000Y-107151532D01*
X114806000Y-104775000D01*
X114767483Y-104581362D01*
X114657796Y-104417204D01*
X113182796Y-102942204D01*
X113018638Y-102832517D01*
X112825000Y-102794000D01*
X112506670Y-102794000D01*
X112217627Y-102094462D01*
X111695064Y-101570985D01*
X115359000Y-101570985D01*
X115359000Y-101629015D01*
X115471734Y-102195769D01*
X115792775Y-102676240D01*
X116273246Y-102997281D01*
X116840000Y-103110015D01*
X117406754Y-102997281D01*
X117887225Y-102676240D01*
X118208266Y-102195769D01*
X118321000Y-101629015D01*
X118321000Y-101570985D01*
X118208266Y-101004231D01*
X117887225Y-100523760D01*
X117406754Y-100202719D01*
X116840000Y-100089985D01*
X116273246Y-100202719D01*
X115792775Y-100523760D01*
X115471734Y-101004231D01*
X115359000Y-101570985D01*
X111695064Y-101570985D01*
X111618691Y-101494479D01*
X110835742Y-101169370D01*
X109987978Y-101168631D01*
X109204462Y-101492373D01*
X108604479Y-102091309D01*
X108456000Y-102448886D01*
X108456000Y-99904592D01*
X108794592Y-99566000D01*
X116876579Y-99566000D01*
X117032021Y-99721714D01*
X117318968Y-99840864D01*
X117629669Y-99841136D01*
X117916823Y-99722486D01*
X117944357Y-99695000D01*
X121039000Y-99695000D01*
X121106062Y-100032144D01*
X121297039Y-100317961D01*
X124214000Y-103234922D01*
X124214000Y-103505000D01*
X124281062Y-103842144D01*
X124472039Y-104127961D01*
X124757856Y-104318938D01*
X125095000Y-104386000D01*
X125432144Y-104318938D01*
X125717961Y-104127961D01*
X125908938Y-103842144D01*
X125976000Y-103505000D01*
X125976000Y-102870000D01*
X125908938Y-102532856D01*
X125717961Y-102247039D01*
X123320591Y-99849669D01*
X124313864Y-99849669D01*
X124432514Y-100136823D01*
X124652021Y-100356714D01*
X124938968Y-100475864D01*
X125160466Y-100476058D01*
X127764000Y-103079592D01*
X127764000Y-104233031D01*
X127545320Y-104323388D01*
X127184655Y-104683425D01*
X126989223Y-105154076D01*
X126988778Y-105663689D01*
X127183388Y-106134680D01*
X127543425Y-106495345D01*
X127943656Y-106661536D01*
X127370000Y-106661536D01*
X127228810Y-106688103D01*
X127099135Y-106771546D01*
X127012141Y-106898866D01*
X126981536Y-107050000D01*
X126981536Y-108850000D01*
X127008103Y-108991190D01*
X127091546Y-109120865D01*
X127218866Y-109207859D01*
X127370000Y-109238464D01*
X129170000Y-109238464D01*
X129311190Y-109211897D01*
X129440865Y-109128454D01*
X129527859Y-109001134D01*
X129558464Y-108850000D01*
X129558464Y-107377128D01*
X131167796Y-105767796D01*
X131277483Y-105603638D01*
X131316000Y-105410000D01*
X131316000Y-97259719D01*
X131556440Y-97019698D01*
X131574000Y-96977409D01*
X131574000Y-110280408D01*
X129817204Y-112037204D01*
X129707517Y-112201362D01*
X129669000Y-112395000D01*
X129669000Y-121956579D01*
X129513286Y-122112021D01*
X129394136Y-122398968D01*
X129393864Y-122709669D01*
X129512514Y-122996823D01*
X129732021Y-123216714D01*
X130018968Y-123335864D01*
X130329669Y-123336136D01*
X130616823Y-123217486D01*
X130836714Y-122997979D01*
X130955864Y-122711032D01*
X130956136Y-122400331D01*
X130837486Y-122113177D01*
X130797383Y-122073003D01*
X134668718Y-122073003D01*
X134916499Y-122672680D01*
X135374907Y-123131888D01*
X135974151Y-123380716D01*
X136623003Y-123381282D01*
X137222680Y-123133501D01*
X137681888Y-122675093D01*
X137930716Y-122075849D01*
X137931282Y-121426997D01*
X137683501Y-120827320D01*
X137225093Y-120368112D01*
X136625849Y-120119284D01*
X135976997Y-120118718D01*
X135377320Y-120366499D01*
X134918112Y-120824907D01*
X134669284Y-121424151D01*
X134668718Y-122073003D01*
X130797383Y-122073003D01*
X130681000Y-121956417D01*
X130681000Y-112604592D01*
X131055592Y-112230000D01*
X136606536Y-112230000D01*
X136606536Y-113830000D01*
X136633103Y-113971190D01*
X136716546Y-114100865D01*
X136843866Y-114187859D01*
X136995000Y-114218464D01*
X138595000Y-114218464D01*
X138736190Y-114191897D01*
X138865865Y-114108454D01*
X138952859Y-113981134D01*
X138973583Y-113878794D01*
X139125144Y-114030619D01*
X139559054Y-114210794D01*
X140028885Y-114211204D01*
X140463109Y-114031787D01*
X140795619Y-113699856D01*
X140975794Y-113265946D01*
X140976204Y-112796115D01*
X140796787Y-112361891D01*
X140464856Y-112029381D01*
X140030946Y-111849206D01*
X139561115Y-111848796D01*
X139126891Y-112028213D01*
X138974180Y-112180658D01*
X138956897Y-112088810D01*
X138873454Y-111959135D01*
X138746134Y-111872141D01*
X138595000Y-111841536D01*
X136995000Y-111841536D01*
X136853810Y-111868103D01*
X136724135Y-111951546D01*
X136637141Y-112078866D01*
X136606536Y-112230000D01*
X131055592Y-112230000D01*
X132437796Y-110847796D01*
X132547483Y-110683638D01*
X132586000Y-110490000D01*
X132586000Y-107151532D01*
X132588587Y-107151532D01*
X132950309Y-108026966D01*
X133619511Y-108697337D01*
X134494312Y-109060586D01*
X135441532Y-109061413D01*
X136316966Y-108699691D01*
X136987337Y-108030489D01*
X137350586Y-107155688D01*
X137351413Y-106208468D01*
X136989691Y-105333034D01*
X136320489Y-104662663D01*
X135445688Y-104299414D01*
X134498468Y-104298587D01*
X133623034Y-104660309D01*
X132952663Y-105329511D01*
X132589414Y-106204312D01*
X132588587Y-107151532D01*
X132586000Y-107151532D01*
X132586000Y-95885000D01*
X132547483Y-95691362D01*
X132437796Y-95527204D01*
X131802796Y-94892204D01*
X131638638Y-94782517D01*
X131445000Y-94744000D01*
X130279719Y-94744000D01*
X130039698Y-94503560D01*
X129716011Y-94369153D01*
X129365527Y-94368847D01*
X129041605Y-94502689D01*
X128793560Y-94750302D01*
X128659153Y-95073989D01*
X128658881Y-95385000D01*
X128555750Y-95385000D01*
X128397000Y-95543750D01*
X128397000Y-96393000D01*
X129246250Y-96393000D01*
X129405000Y-96234250D01*
X129405000Y-96130883D01*
X129714473Y-96131153D01*
X130038395Y-95997311D01*
X130280127Y-95756000D01*
X130351995Y-95756000D01*
X130311605Y-95772689D01*
X130063560Y-96020302D01*
X129929153Y-96343989D01*
X129928847Y-96694473D01*
X130062689Y-97018395D01*
X130304000Y-97260127D01*
X130304000Y-105200408D01*
X128842872Y-106661536D01*
X128595534Y-106661536D01*
X128994680Y-106496612D01*
X129355345Y-106136575D01*
X129550777Y-105665924D01*
X129551222Y-105156311D01*
X129356612Y-104685320D01*
X128996575Y-104324655D01*
X128776000Y-104233064D01*
X128776000Y-102870000D01*
X128737483Y-102676362D01*
X128627796Y-102512204D01*
X125875943Y-99760351D01*
X125876136Y-99540331D01*
X125757486Y-99253177D01*
X125537979Y-99033286D01*
X125251032Y-98914136D01*
X124940331Y-98913864D01*
X124653177Y-99032514D01*
X124433286Y-99252021D01*
X124314136Y-99538968D01*
X124313864Y-99849669D01*
X123320591Y-99849669D01*
X122542961Y-99072039D01*
X122257144Y-98881062D01*
X121920000Y-98814000D01*
X121582856Y-98881062D01*
X121297039Y-99072039D01*
X121106062Y-99357856D01*
X121039000Y-99695000D01*
X117944357Y-99695000D01*
X118136714Y-99502979D01*
X118255864Y-99216032D01*
X118256136Y-98905331D01*
X118137486Y-98618177D01*
X117917979Y-98398286D01*
X117631032Y-98279136D01*
X117320331Y-98278864D01*
X117033177Y-98397514D01*
X116876417Y-98554000D01*
X108585000Y-98554000D01*
X108391362Y-98592517D01*
X108227204Y-98702204D01*
X107592204Y-99337204D01*
X107482517Y-99501362D01*
X107444000Y-99695000D01*
X107444000Y-101873100D01*
X107284528Y-101785077D01*
X105769605Y-103300000D01*
X107284528Y-104814923D01*
X107444000Y-104726900D01*
X107444000Y-106906693D01*
X107397627Y-106794462D01*
X106798691Y-106194479D01*
X106015742Y-105869370D01*
X105167978Y-105868631D01*
X104384462Y-106192373D01*
X103784479Y-106791309D01*
X103459370Y-107574258D01*
X103458631Y-108422022D01*
X100431000Y-108422022D01*
X100431000Y-104994528D01*
X104075077Y-104994528D01*
X104265364Y-105339271D01*
X105146591Y-105690956D01*
X106095323Y-105678641D01*
X106914636Y-105339271D01*
X107104923Y-104994528D01*
X105590000Y-103479605D01*
X104075077Y-104994528D01*
X100431000Y-104994528D01*
X100431000Y-102856591D01*
X103199044Y-102856591D01*
X103211359Y-103805323D01*
X103550729Y-104624636D01*
X103895472Y-104814923D01*
X105410395Y-103300000D01*
X103895472Y-101785077D01*
X103550729Y-101975364D01*
X103199044Y-102856591D01*
X100431000Y-102856591D01*
X100431000Y-101605472D01*
X104075077Y-101605472D01*
X105590000Y-103120395D01*
X107104923Y-101605472D01*
X106914636Y-101260729D01*
X106033409Y-100909044D01*
X105084677Y-100921359D01*
X104265364Y-101260729D01*
X104075077Y-101605472D01*
X100431000Y-101605472D01*
X100431000Y-100431000D01*
X107000000Y-100431000D01*
X107164937Y-100398192D01*
X107304763Y-100304763D01*
X107398192Y-100164937D01*
X107431000Y-100000000D01*
X107431000Y-95670000D01*
X110521536Y-95670000D01*
X110521536Y-97370000D01*
X110548103Y-97511190D01*
X110631546Y-97640865D01*
X110758866Y-97727859D01*
X110910000Y-97758464D01*
X112610000Y-97758464D01*
X112751190Y-97731897D01*
X112880865Y-97648454D01*
X112967859Y-97521134D01*
X112998464Y-97370000D01*
X112998464Y-96495883D01*
X113069000Y-96495883D01*
X113069000Y-96544117D01*
X113162704Y-97015200D01*
X113429552Y-97414565D01*
X113828917Y-97681413D01*
X114300000Y-97775117D01*
X114771083Y-97681413D01*
X115170448Y-97414565D01*
X115437296Y-97015200D01*
X115478958Y-96805750D01*
X127135000Y-96805750D01*
X127135000Y-97146309D01*
X127231673Y-97379698D01*
X127410301Y-97558327D01*
X127643690Y-97655000D01*
X127984250Y-97655000D01*
X128143000Y-97496250D01*
X128143000Y-96647000D01*
X128397000Y-96647000D01*
X128397000Y-97496250D01*
X128555750Y-97655000D01*
X128896310Y-97655000D01*
X129129699Y-97558327D01*
X129308327Y-97379698D01*
X129405000Y-97146309D01*
X129405000Y-96805750D01*
X129246250Y-96647000D01*
X128397000Y-96647000D01*
X128143000Y-96647000D01*
X127293750Y-96647000D01*
X127135000Y-96805750D01*
X115478958Y-96805750D01*
X115531000Y-96544117D01*
X115531000Y-96495883D01*
X115437296Y-96024800D01*
X115349692Y-95893691D01*
X127135000Y-95893691D01*
X127135000Y-96234250D01*
X127293750Y-96393000D01*
X128143000Y-96393000D01*
X128143000Y-95543750D01*
X127984250Y-95385000D01*
X127643690Y-95385000D01*
X127410301Y-95481673D01*
X127231673Y-95660302D01*
X127135000Y-95893691D01*
X115349692Y-95893691D01*
X115170448Y-95625435D01*
X114771083Y-95358587D01*
X114300000Y-95264883D01*
X113828917Y-95358587D01*
X113429552Y-95625435D01*
X113162704Y-96024800D01*
X113069000Y-96495883D01*
X112998464Y-96495883D01*
X112998464Y-95670000D01*
X112971897Y-95528810D01*
X112888454Y-95399135D01*
X112761134Y-95312141D01*
X112610000Y-95281536D01*
X110910000Y-95281536D01*
X110768810Y-95308103D01*
X110639135Y-95391546D01*
X110552141Y-95518866D01*
X110521536Y-95670000D01*
X107431000Y-95670000D01*
X107431000Y-93431000D01*
X147569000Y-93431000D01*
X147569000Y-100000000D01*
M02*
