G04 #@! TF.FileFunction,Soldermask,Bot*
%FSLAX46Y46*%
G04 Gerber Fmt 4.6, Leading zero omitted, Abs format (unit mm)*
G04 Created by KiCad (PCBNEW 4.0.1-stable) date 2017年08月20日日曜日 22:05:08*
%MOMM*%
G01*
G04 APERTURE LIST*
%ADD10C,0.100000*%
%ADD11C,2.500000*%
%ADD12R,1.600000X1.600000*%
%ADD13C,1.600000*%
%ADD14C,4.000000*%
%ADD15C,2.000000*%
%ADD16R,2.200000X2.200000*%
%ADD17O,2.200000X2.200000*%
%ADD18R,1.800000X1.800000*%
%ADD19C,1.800000*%
%ADD20R,1.700000X1.700000*%
%ADD21O,1.700000X1.700000*%
%ADD22C,1.000000*%
%ADD23R,1.000000X1.000000*%
%ADD24C,3.500000*%
%ADD25O,2.032000X2.540000*%
%ADD26O,1.600000X1.600000*%
%ADD27C,1.524000*%
G04 APERTURE END LIST*
D10*
D11*
X136300000Y-121750000D03*
X142650000Y-121750000D03*
X149000000Y-121750000D03*
X136300000Y-138250000D03*
X142650000Y-138250000D03*
X149000000Y-138250000D03*
D12*
X137795000Y-113030000D03*
D13*
X139795000Y-113030000D03*
D14*
X121570000Y-106680000D03*
D15*
X132270000Y-117680000D03*
X128270000Y-117680000D03*
X124270000Y-117680000D03*
D14*
X134970000Y-106680000D03*
D11*
X119700000Y-175250000D03*
X113350000Y-175250000D03*
X107000000Y-175250000D03*
X119700000Y-158750000D03*
X113350000Y-158750000D03*
X107000000Y-158750000D03*
X136300000Y-158750000D03*
X142650000Y-158750000D03*
X149000000Y-158750000D03*
X136300000Y-175250000D03*
X142650000Y-175250000D03*
X149000000Y-175250000D03*
D12*
X140970000Y-143510000D03*
D13*
X138970000Y-143510000D03*
D12*
X151130000Y-182880000D03*
D13*
X151130000Y-180880000D03*
D12*
X110490000Y-152400000D03*
D13*
X110490000Y-154400000D03*
D12*
X110490000Y-148590000D03*
D13*
X110490000Y-146590000D03*
D12*
X104140000Y-182880000D03*
D13*
X104140000Y-180880000D03*
D16*
X116840000Y-109220000D03*
D17*
X116840000Y-101600000D03*
D18*
X128270000Y-157480000D03*
D19*
X128270000Y-160020000D03*
D18*
X128270000Y-107950000D03*
D19*
X128270000Y-105410000D03*
D20*
X102870000Y-133350000D03*
D21*
X102870000Y-130810000D03*
X102870000Y-128270000D03*
D20*
X116840000Y-115570000D03*
D21*
X116840000Y-118110000D03*
X116840000Y-120650000D03*
D20*
X111760000Y-96520000D03*
D21*
X114300000Y-96520000D03*
D22*
X128270000Y-173990000D03*
X129540000Y-175260000D03*
D23*
X127000000Y-175260000D03*
D22*
X129540000Y-95250000D03*
X130810000Y-96520000D03*
D23*
X128270000Y-96520000D03*
D11*
X118745000Y-148510000D03*
X118745000Y-153510000D03*
X118745000Y-143510000D03*
X132270000Y-186650000D03*
X128270000Y-186650000D03*
X124270000Y-186650000D03*
X124270000Y-181650000D03*
X132270000Y-181650000D03*
X128270000Y-181650000D03*
D24*
X147000000Y-103300000D03*
X147000000Y-108000000D03*
X147000000Y-112700000D03*
X110410000Y-103300000D03*
X110410000Y-108000000D03*
X110410000Y-112700000D03*
X105590000Y-103300000D03*
X105590000Y-108000000D03*
X105590000Y-112700000D03*
D25*
X106680000Y-120650000D03*
X109220000Y-120650000D03*
X104140000Y-120650000D03*
D12*
X132080000Y-144780000D03*
D26*
X124460000Y-152400000D03*
X129540000Y-144780000D03*
X127000000Y-152400000D03*
X127000000Y-144780000D03*
X129540000Y-152400000D03*
X124460000Y-144780000D03*
X132080000Y-152400000D03*
D27*
X105410000Y-138430000D03*
X105410000Y-140970000D03*
X105410000Y-146050000D03*
X105410000Y-148590000D03*
X105410000Y-151130000D03*
M02*
